<svg width="343" height="99" viewBox="0 0 343 99" fill="none" xmlns="http://www.w3.org/2000/svg">
<path d="M0 9.99999C0 4.47714 4.47715 0 10 0H333C338.523 0 343 4.47715 343 10V98.34H0V9.99999Z" fill="#242424FF"/>
<path d="M151.355 0H191.355V80H151.355V0Z" fill="#8CBDED"/>
<path d="M201.826 43.97L201.475 51.84H202.775L203.016 45.3H203.086L204.836 50.32H206.315L208.055 45.3H208.125L208.365 51.84H209.755L209.405 43.97H207.345L205.685 48.81H205.625L204.005 43.97H201.826Z" fill="#8CBDED"/>
<path d="M212.055 44.95C211.815 44.95 211.625 44.88 211.475 44.75C211.335 44.61 211.255 44.43 211.255 44.2C211.255 43.97 211.326 43.77 211.475 43.63C211.615 43.49 211.815 43.42 212.055 43.42C212.315 43.42 212.505 43.49 212.635 43.63C212.766 43.77 212.835 43.96 212.835 44.2C212.835 44.44 212.766 44.62 212.635 44.75C212.505 44.88 212.305 44.95 212.055 44.95Z" fill="#8CBDED"/>
<path d="M211.396 51.84V45.92L212.725 45.84V51.84H211.396Z" fill="#8CBDED"/>
<path d="M214.345 45.92V51.84H215.675V47.26C215.895 47.18 216.085 47.12 216.255 47.09C216.425 47.06 216.625 47.04 216.845 47.04C217.205 47.04 217.475 47.13 217.665 47.33C217.855 47.53 217.945 47.81 217.945 48.16V51.84H219.275V47.92C219.275 47.23 219.105 46.71 218.745 46.35C218.385 45.99 217.885 45.81 217.235 45.81C216.915 45.81 216.635 45.85 216.385 45.92C216.135 45.99 215.885 46.11 215.625 46.28V45.86L214.345 45.92Z" fill="#8CBDED"/>
<path d="M221.475 44.95C221.235 44.95 221.045 44.88 220.895 44.75C220.755 44.61 220.675 44.43 220.675 44.2C220.675 43.97 220.745 43.77 220.895 43.63C221.035 43.49 221.235 43.42 221.475 43.42C221.735 43.42 221.925 43.49 222.055 43.63C222.185 43.77 222.255 43.96 222.255 44.2C222.255 44.44 222.185 44.62 222.055 44.75C221.925 44.88 221.725 44.95 221.475 44.95Z" fill="#8CBDED"/>
<path d="M220.815 51.84V45.92L222.145 45.84V51.84H220.815Z" fill="#8CBDED"/>
<path d="M224.156 51.91C224.436 51.94 224.745 51.95 225.095 51.95C225.605 51.95 226.046 51.87 226.406 51.71C226.776 51.55 227.056 51.31 227.255 51.02C227.456 50.73 227.555 50.38 227.555 49.97C227.555 49.56 227.435 49.23 227.206 48.97C226.975 48.71 226.625 48.52 226.165 48.39L225.466 48.21C225.185 48.14 224.995 48.06 224.885 47.96C224.776 47.86 224.725 47.73 224.725 47.57C224.725 47.39 224.806 47.25 224.975 47.14C225.146 47.03 225.426 46.97 225.826 46.97C226.076 46.97 226.315 46.97 226.526 46.99C226.736 47 226.965 47.03 227.206 47.07L227.305 45.94C227.095 45.9 226.875 45.87 226.635 45.85C226.396 45.83 226.135 45.82 225.845 45.82C225.336 45.82 224.896 45.9 224.535 46.06C224.176 46.22 223.896 46.44 223.695 46.72C223.505 47 223.406 47.32 223.406 47.68C223.406 48.1 223.516 48.44 223.736 48.69C223.956 48.94 224.266 49.13 224.676 49.25L225.375 49.47C225.695 49.56 225.915 49.66 226.046 49.77C226.176 49.88 226.236 50.02 226.236 50.18C226.236 50.37 226.155 50.52 225.975 50.64C225.796 50.76 225.505 50.82 225.095 50.82C224.815 50.82 224.526 50.8 224.245 50.77C223.956 50.74 223.676 50.68 223.385 50.6V51.78C223.625 51.84 223.885 51.88 224.156 51.91Z" fill="#8CBDED"/>
<path d="M230.901 51.95C230.543 51.9494 230.224 51.8794 229.955 51.74C229.675 51.6 229.465 51.39 229.305 51.09C229.145 50.8 229.075 50.42 229.075 49.95V46.94H228.365V45.92H229.075V44.84L230.395 44.72V45.92H231.905V46.94H230.395V49.8C230.395 50.14 230.475 50.39 230.645 50.55C230.815 50.71 231.025 50.79 231.295 50.79C231.435 50.79 231.565 50.79 231.675 50.76C231.755 50.7456 231.844 50.726 231.94 50.705L232.007 50.6904L232.055 50.68V51.8C231.888 51.8464 231.713 51.8756 231.544 51.9036L231.505 51.91C231.327 51.9298 231.129 51.9497 230.901 51.95Z" fill="#8CBDED"/>
<path d="M230.901 51.95L230.905 51.95H230.895L230.901 51.95Z" fill="#8CBDED"/>
<path fill-rule="evenodd" clip-rule="evenodd" d="M233.516 51.2C234.035 51.7 234.755 51.95 235.655 51.95V51.93C236.046 51.93 236.385 51.91 236.675 51.85C236.965 51.8 237.266 51.71 237.565 51.6V50.49C237.275 50.6 236.995 50.67 236.725 50.72C236.456 50.77 236.155 50.79 235.815 50.79C235.475 50.79 235.175 50.74 234.915 50.62C234.655 50.51 234.455 50.33 234.305 50.09C234.155 49.85 234.065 49.55 234.035 49.19H237.685C237.706 49.05 237.715 48.89 237.715 48.73V48.22C237.715 47.7 237.625 47.27 237.435 46.91C237.245 46.55 236.975 46.28 236.625 46.09C236.275 45.9 235.855 45.81 235.365 45.81C234.875 45.81 234.425 45.93 234.025 46.16C233.625 46.4 233.305 46.74 233.076 47.2C232.845 47.66 232.725 48.23 232.725 48.91C232.725 49.94 232.995 50.7 233.516 51.2ZM236.415 48.23H234.025V48.22C234.076 47.8 234.225 47.46 234.456 47.22C234.685 46.98 234.965 46.86 235.285 46.86C235.635 46.86 235.915 46.98 236.115 47.22C236.315 47.46 236.415 47.79 236.415 48.23Z" fill="#8CBDED"/>
<path d="M239.065 51.83V45.92L240.385 45.86V46.53C240.595 46.27 240.796 46.08 240.995 45.97C241.195 45.86 241.405 45.81 241.615 45.81C241.755 45.81 241.885 45.81 241.985 45.83C242.085 45.84 242.195 45.86 242.315 45.9L242.215 47.18C242.085 47.14 241.965 47.11 241.865 47.1C241.755 47.09 241.635 47.08 241.516 47.08C241.326 47.08 241.145 47.11 240.965 47.18C240.796 47.25 240.605 47.36 240.396 47.52V51.83H239.065Z" fill="#8CBDED"/>
<path d="M243.296 44.75C243.445 44.88 243.635 44.95 243.875 44.95C244.125 44.95 244.326 44.88 244.456 44.75C244.586 44.62 244.656 44.44 244.656 44.2C244.656 43.96 244.586 43.77 244.456 43.63C244.326 43.49 244.135 43.42 243.875 43.42C243.635 43.42 243.436 43.49 243.296 43.63C243.146 43.77 243.076 43.97 243.076 44.2C243.076 44.43 243.155 44.61 243.296 44.75Z" fill="#8CBDED"/>
<path d="M243.216 45.92V51.84H244.546V45.84L243.216 45.92Z" fill="#8CBDED"/>
<path fill-rule="evenodd" clip-rule="evenodd" d="M248.795 51.95C247.895 51.95 247.175 51.7 246.655 51.2C246.135 50.7 245.865 49.94 245.865 48.91C245.865 48.23 245.985 47.66 246.215 47.2C246.445 46.74 246.765 46.4 247.165 46.16C247.565 45.93 248.015 45.81 248.505 45.81C248.995 45.81 249.415 45.9 249.765 46.09C250.115 46.28 250.385 46.55 250.575 46.91C250.765 47.27 250.855 47.7 250.855 48.22V48.73C250.855 48.89 250.845 49.05 250.825 49.19H247.175C247.205 49.55 247.295 49.85 247.445 50.09C247.595 50.33 247.795 50.51 248.055 50.62C248.315 50.73 248.615 50.79 248.955 50.79C249.295 50.79 249.595 50.77 249.865 50.72C250.135 50.67 250.415 50.6 250.705 50.49V51.6C250.405 51.71 250.105 51.8 249.815 51.85C249.525 51.91 249.185 51.93 248.795 51.93V51.95ZM247.165 48.23H249.555C249.555 47.79 249.455 47.46 249.255 47.22C249.055 46.98 248.775 46.86 248.425 46.86C248.105 46.86 247.825 46.98 247.595 47.22C247.365 47.46 247.215 47.8 247.165 48.22V48.23Z" fill="#8CBDED"/>
<path d="M253.826 45.92L255.706 51.84H257.516L259.415 45.92H258.035L256.716 50.77H256.646L255.345 45.92H253.826Z" fill="#8CBDED"/>
<path fill-rule="evenodd" clip-rule="evenodd" d="M261.845 51.95C261.245 51.95 260.785 51.8 260.455 51.49C260.125 51.18 259.965 50.78 259.965 50.29C259.965 49.74 260.185 49.29 260.615 48.94C261.055 48.59 261.735 48.41 262.675 48.41H263.085C263.205 48.41 263.335 48.41 263.475 48.42V47.98C263.475 47.68 263.375 47.44 263.175 47.27C262.975 47.1 262.645 47.01 262.195 47.01C261.625 47.01 261.055 47.13 260.475 47.37L260.285 46.25C260.645 46.1 260.995 45.99 261.326 45.91C261.655 45.83 262.015 45.8 262.415 45.8C263.205 45.8 263.795 45.98 264.185 46.34C264.576 46.7 264.766 47.21 264.766 47.88V51.83H263.525V51.48C263.265 51.64 263.015 51.76 262.755 51.83C262.495 51.9 262.195 51.94 261.845 51.94V51.95ZM262.205 50.88C262.455 50.88 262.675 50.85 262.875 50.8C263.075 50.75 263.275 50.67 263.475 50.57V49.41C263.335 49.41 263.215 49.4 263.095 49.39C263.018 49.3835 262.936 49.3854 262.844 49.3876C262.794 49.3888 262.742 49.39 262.685 49.39C262.195 49.39 261.855 49.47 261.645 49.62C261.435 49.77 261.335 49.96 261.335 50.18C261.335 50.4 261.405 50.57 261.555 50.7C261.695 50.83 261.915 50.89 262.205 50.89V50.88Z" fill="#8CBDED"/>
<path d="M266.326 45.92V51.84H267.656V47.26C267.875 47.18 268.065 47.12 268.236 47.09C268.405 47.06 268.605 47.04 268.826 47.04C269.185 47.04 269.456 47.13 269.646 47.33C269.836 47.53 269.926 47.81 269.926 48.16V51.84H271.255V47.92C271.255 47.23 271.086 46.71 270.725 46.35C270.366 45.99 269.866 45.81 269.216 45.81C268.896 45.81 268.616 45.85 268.366 45.92C268.116 45.99 267.866 46.11 267.605 46.28V45.86L266.326 45.92Z" fill="#8CBDED"/>
<path d="M203.025 65.92L200.685 58.05H202.225L204.125 64.61H204.195L205.985 58.05H207.445L205.105 65.92H203.025Z" fill="#8CBDED"/>
<path fill-rule="evenodd" clip-rule="evenodd" d="M208.986 65.7C209.405 65.92 209.885 66.03 210.435 66.03C210.956 66.03 211.435 65.91 211.885 65.65C212.326 65.39 212.685 65.03 212.956 64.55C213.225 64.08 213.355 63.51 213.355 62.86C213.355 62.21 213.236 61.66 213.005 61.22C212.766 60.78 212.445 60.45 212.035 60.23C211.616 60.01 211.135 59.9 210.586 59.9C210.065 59.9 209.576 60.02 209.135 60.28C208.695 60.54 208.335 60.91 208.065 61.38C207.796 61.85 207.665 62.42 207.665 63.07C207.665 63.72 207.785 64.27 208.016 64.71C208.255 65.15 208.576 65.48 208.986 65.7ZM211.275 64.62C211.055 64.77 210.805 64.85 210.516 64.85C210.055 64.85 209.695 64.7 209.426 64.4C209.155 64.1 209.025 63.64 209.025 63.02C209.025 62.6 209.095 62.25 209.225 61.96C209.355 61.67 209.535 61.45 209.755 61.3C209.986 61.15 210.236 61.07 210.516 61.07C210.975 61.07 211.336 61.22 211.605 61.52C211.875 61.82 212.005 62.28 212.005 62.9C212.005 63.32 211.935 63.67 211.805 63.96C211.676 64.25 211.495 64.47 211.275 64.62Z" fill="#8CBDED"/>
<path d="M214.685 65.92V57.58L216.016 57.51V65.92H214.685Z" fill="#8CBDED"/>
<path d="M217.625 57.58V65.92H218.965V63.18H219.525L221.285 65.92H222.865L220.625 62.49L222.715 60.01H221.175L219.445 62.13H218.956V57.51L217.625 57.58Z" fill="#8CBDED"/>
<path d="M225.406 66.03C225.056 66.03 224.746 66.02 224.466 65.99C224.195 65.96 223.935 65.92 223.695 65.86V64.68C223.986 64.76 224.266 64.82 224.555 64.85C224.836 64.88 225.125 64.9 225.406 64.9C225.815 64.9 226.105 64.84 226.285 64.72C226.465 64.6 226.546 64.45 226.546 64.26C226.546 64.1 226.486 63.96 226.355 63.85C226.225 63.74 226.005 63.64 225.685 63.55L224.986 63.33C224.576 63.21 224.266 63.02 224.046 62.77C223.826 62.52 223.716 62.18 223.716 61.76C223.716 61.4 223.815 61.08 224.005 60.8C224.206 60.52 224.486 60.3 224.845 60.14C225.206 59.98 225.646 59.9 226.156 59.9C226.445 59.9 226.706 59.91 226.945 59.93C227.185 59.95 227.405 59.98 227.616 60.02L227.516 61.15C227.276 61.11 227.046 61.08 226.836 61.07C226.625 61.05 226.385 61.05 226.135 61.05C225.736 61.05 225.456 61.11 225.285 61.22C225.116 61.33 225.035 61.47 225.035 61.65C225.035 61.81 225.086 61.94 225.195 62.04C225.305 62.14 225.495 62.22 225.776 62.29L226.475 62.47C226.936 62.6 227.285 62.79 227.516 63.05C227.746 63.31 227.866 63.64 227.866 64.05C227.866 64.46 227.766 64.81 227.565 65.1C227.366 65.39 227.086 65.63 226.716 65.79C226.355 65.95 225.915 66.03 225.406 66.03Z" fill="#8CBDED"/>
<path fill-rule="evenodd" clip-rule="evenodd" d="M229.595 68.06C229.965 68.19 230.435 68.26 230.995 68.26H231.005C231.705 68.26 232.285 68.17 232.735 67.99C233.185 67.81 233.525 67.57 233.745 67.26C233.965 66.95 234.075 66.6 234.075 66.22C234.075 65.77 233.925 65.43 233.635 65.18C233.345 64.93 232.875 64.81 232.225 64.81L230.795 64.79C230.525 64.79 230.335 64.76 230.215 64.68C230.095 64.6 230.035 64.5 230.035 64.36C230.035 64.28 230.065 64.21 230.115 64.14C230.175 64.07 230.235 64.02 230.305 63.99C230.415 64.0099 230.535 64.0299 230.654 64.0498L230.655 64.05C230.785 64.07 230.905 64.07 231.035 64.07C231.855 64.07 232.485 63.89 232.915 63.55C233.345 63.2 233.565 62.71 233.565 62.07C233.565 61.81 233.515 61.58 233.415 61.38C233.315 61.18 233.185 61.04 233.045 60.95V60.91H234.015V60.01H232.135C231.995 59.97 231.845 59.94 231.685 59.92C231.515 59.9 231.355 59.89 231.185 59.89C230.685 59.89 230.245 59.98 229.875 60.15C229.505 60.32 229.215 60.58 229.015 60.91C228.805 61.25 228.705 61.65 228.705 62.12C228.705 62.5 228.785 62.82 228.955 63.08C229.125 63.34 229.345 63.54 229.625 63.68V63.72C229.395 63.81 229.225 63.93 229.105 64.09C228.985 64.25 228.925 64.42 228.925 64.61C228.925 64.8 228.965 64.97 229.065 65.11C229.165 65.25 229.285 65.36 229.425 65.42V65.46C229.145 65.57 228.915 65.75 228.745 65.97C228.575 66.19 228.485 66.44 228.485 66.73C228.485 67.02 228.585 67.28 228.765 67.51C228.945 67.74 229.225 67.93 229.595 68.06ZM232.485 67.02C232.225 67.18 231.775 67.26 231.135 67.26C230.645 67.26 230.275 67.18 230.035 67.04C229.795 66.9 229.675 66.7 229.675 66.45C229.675 66.31 229.705 66.18 229.785 66.07C229.865 65.96 229.965 65.87 230.105 65.81L232.075 65.88C232.365 65.88 232.575 65.93 232.695 66.02C232.815 66.11 232.875 66.24 232.875 66.42C232.875 66.66 232.745 66.86 232.485 67.02ZM232.025 62.88C231.827 63.0684 231.531 63.1585 231.136 63.16C230.78 63.1585 230.504 63.0784 230.295 62.9C230.085 62.73 229.975 62.45 229.975 62.05C229.975 61.65 230.075 61.35 230.295 61.15C230.505 60.95 230.795 60.85 231.155 60.85C231.545 60.85 231.835 60.94 232.035 61.13C232.225 61.31 232.325 61.59 232.325 61.96C232.325 62.39 232.225 62.69 232.025 62.88Z" fill="#8CBDED"/>
<path fill-rule="evenodd" clip-rule="evenodd" d="M237.625 66.03C236.725 66.03 236.005 65.78 235.486 65.28C234.965 64.78 234.695 64.02 234.695 62.99C234.695 62.31 234.815 61.74 235.046 61.28C235.276 60.82 235.595 60.48 235.995 60.24C236.396 60.01 236.845 59.89 237.336 59.89C237.826 59.89 238.245 59.98 238.595 60.17C238.945 60.36 239.216 60.63 239.406 60.99C239.595 61.35 239.685 61.78 239.685 62.3V62.81C239.685 62.97 239.676 63.13 239.656 63.27H236.005C236.035 63.63 236.125 63.93 236.276 64.17C236.426 64.41 236.625 64.59 236.885 64.7C237.146 64.81 237.445 64.87 237.785 64.87C238.125 64.87 238.426 64.85 238.695 64.8C238.965 64.75 239.246 64.68 239.535 64.57V65.68C239.236 65.79 238.935 65.88 238.646 65.93C238.355 65.99 238.016 66.01 237.625 66.01V66.03ZM235.995 62.31H238.385C238.385 61.87 238.285 61.54 238.086 61.3C237.885 61.06 237.605 60.94 237.255 60.94C236.935 60.94 236.655 61.06 236.426 61.3C236.195 61.54 236.046 61.88 235.995 62.3V62.31Z" fill="#8CBDED"/>
<path d="M240.655 64.89V65.93H245.045V64.85H242.175V64.81L245.005 61.03V60.01H240.795V61.09H243.485V61.11L240.655 64.89Z" fill="#8CBDED"/>
<path fill-rule="evenodd" clip-rule="evenodd" d="M248.605 66.03C248.055 66.03 247.575 65.92 247.155 65.7C246.745 65.48 246.425 65.15 246.185 64.71C245.955 64.27 245.835 63.72 245.835 63.07C245.835 62.42 245.965 61.85 246.235 61.38C246.505 60.91 246.865 60.54 247.305 60.28C247.755 60.02 248.235 59.9 248.755 59.9C249.305 59.9 249.785 60.01 250.205 60.23C250.625 60.45 250.935 60.78 251.175 61.22C251.405 61.66 251.525 62.21 251.525 62.86C251.525 63.51 251.395 64.08 251.125 64.55C250.855 65.03 250.495 65.39 250.055 65.65C249.605 65.91 249.125 66.03 248.605 66.03ZM248.695 64.85C248.985 64.85 249.235 64.77 249.455 64.62C249.675 64.47 249.855 64.25 249.985 63.96C250.115 63.67 250.185 63.32 250.185 62.9C250.185 62.28 250.055 61.82 249.785 61.52C249.515 61.22 249.155 61.07 248.695 61.07C248.415 61.07 248.165 61.15 247.935 61.3C247.705 61.45 247.535 61.67 247.405 61.96C247.275 62.25 247.205 62.6 247.205 63.02C247.205 63.64 247.335 64.1 247.605 64.4C247.875 64.7 248.235 64.85 248.695 64.85Z" fill="#8CBDED"/>
<path d="M252.855 60V65.92H254.185V61.34C254.405 61.26 254.595 61.2 254.765 61.17C254.935 61.14 255.135 61.12 255.355 61.12C255.715 61.12 255.985 61.21 256.175 61.41C256.365 61.61 256.455 61.89 256.455 62.24V65.92H257.785V62C257.785 61.31 257.615 60.79 257.255 60.43C256.895 60.07 256.395 59.89 255.745 59.89C255.425 59.89 255.145 59.93 254.895 60C254.645 60.07 254.395 60.19 254.135 60.36V59.94L252.855 60Z" fill="#8CBDED"/>
<path fill-rule="evenodd" clip-rule="evenodd" d="M261.546 66.03C261.046 66.03 260.615 65.92 260.235 65.7C259.855 65.48 259.565 65.16 259.355 64.72C259.145 64.29 259.035 63.75 259.035 63.11C259.035 62.43 259.165 61.85 259.435 61.37C259.706 60.89 260.076 60.52 260.535 60.27C261.005 60.02 261.535 59.89 262.125 59.89C262.296 59.89 262.445 59.89 262.586 59.91C262.725 59.93 262.855 59.95 262.975 59.99V57.58L264.305 57.51V65.92H263.025V65.56C262.815 65.7 262.585 65.82 262.326 65.9C262.069 65.979 261.812 66.0288 261.546 66.03ZM261.896 64.87C262.115 64.87 262.315 64.85 262.475 64.8C262.635 64.75 262.815 64.69 262.995 64.59V61.11C262.855 61.09 262.706 61.07 262.565 61.06C262.425 61.05 262.275 61.04 262.115 61.04C261.775 61.04 261.465 61.12 261.206 61.27C260.945 61.42 260.745 61.65 260.595 61.95C260.455 62.25 260.375 62.61 260.375 63.03C260.375 63.66 260.516 64.13 260.785 64.43C261.055 64.73 261.425 64.88 261.875 64.88L261.896 64.87Z" fill="#8CBDED"/>
<path d="M265.925 57.58V65.92H267.245V61.34C267.465 61.26 267.655 61.2 267.825 61.17C267.995 61.14 268.195 61.12 268.415 61.12C268.775 61.12 269.045 61.21 269.235 61.41C269.425 61.61 269.515 61.89 269.515 62.24V65.92H270.845V62C270.845 61.31 270.675 60.79 270.315 60.43C269.965 60.07 269.465 59.89 268.825 59.89C268.505 59.89 268.225 59.93 267.985 60C267.745 60.08 267.505 60.19 267.255 60.34V57.51L265.925 57.58Z" fill="#8CBDED"/>
<path fill-rule="evenodd" clip-rule="evenodd" d="M275.055 66.03C274.155 66.03 273.435 65.78 272.915 65.28C272.395 64.78 272.125 64.02 272.125 62.99C272.125 62.31 272.245 61.74 272.475 61.28C272.706 60.82 273.025 60.48 273.425 60.24C273.826 60.01 274.275 59.89 274.766 59.89C275.255 59.89 275.675 59.98 276.025 60.17C276.375 60.36 276.646 60.63 276.836 60.99C277.025 61.35 277.115 61.78 277.115 62.3V62.81C277.115 62.97 277.105 63.13 277.086 63.27H273.435C273.465 63.63 273.555 63.93 273.706 64.17C273.855 64.41 274.055 64.59 274.315 64.7C274.576 64.82 274.875 64.87 275.215 64.87C275.555 64.87 275.855 64.85 276.125 64.8C276.395 64.75 276.676 64.68 276.965 64.57V65.68C276.665 65.79 276.365 65.88 276.076 65.93C275.785 65.99 275.445 66.01 275.055 66.01V66.03ZM273.425 62.31H275.815C275.815 61.87 275.715 61.54 275.516 61.3C275.315 61.06 275.035 60.94 274.685 60.94C274.365 60.94 274.085 61.06 273.855 61.3C273.625 61.54 273.475 61.88 273.425 62.3V62.31Z" fill="#8CBDED"/>
<path d="M278.535 58.83C278.685 58.96 278.875 59.03 279.115 59.03C279.365 59.03 279.565 58.97 279.695 58.83C279.826 58.7 279.895 58.52 279.895 58.28C279.895 58.04 279.826 57.85 279.695 57.71C279.565 57.57 279.375 57.5 279.115 57.5C278.875 57.5 278.676 57.57 278.535 57.71C278.385 57.85 278.315 58.05 278.315 58.28C278.315 58.51 278.395 58.69 278.535 58.83Z" fill="#8CBDED"/>
<path d="M278.456 60V65.92H279.785V59.92L278.456 60Z" fill="#8CBDED"/>
<path fill-rule="evenodd" clip-rule="evenodd" d="M283.595 66.03C283.095 66.03 282.665 65.92 282.285 65.7C281.905 65.48 281.615 65.16 281.405 64.72C281.195 64.29 281.085 63.75 281.085 63.11C281.085 62.43 281.215 61.85 281.485 61.37C281.755 60.89 282.125 60.52 282.585 60.27C283.055 60.02 283.585 59.89 284.175 59.89C284.345 59.89 284.495 59.89 284.635 59.91C284.775 59.92 284.905 59.95 285.025 59.99V57.58L286.355 57.51V65.92H285.076V65.56C284.865 65.7 284.635 65.82 284.375 65.9C284.119 65.979 283.862 66.0288 283.595 66.03ZM283.945 64.87C284.165 64.87 284.365 64.85 284.525 64.8C284.685 64.76 284.865 64.69 285.045 64.59V61.11C284.905 61.09 284.755 61.07 284.615 61.06C284.475 61.05 284.325 61.04 284.165 61.04C283.825 61.04 283.515 61.12 283.255 61.27C282.995 61.42 282.795 61.65 282.645 61.95C282.505 62.25 282.425 62.61 282.425 63.03C282.425 63.66 282.565 64.13 282.835 64.43C283.115 64.73 283.475 64.88 283.925 64.88L283.945 64.87Z" fill="#8CBDED"/>
<path d="M287.562 67.3L287.555 67.31V67.3H287.562Z" fill="#8CBDED"/>
<path d="M287.562 67.3C287.729 67.0433 287.867 66.7867 287.985 66.53C288.105 66.27 288.195 66.03 288.275 65.79C288.135 65.72 288.015 65.62 287.935 65.48C287.855 65.35 287.805 65.19 287.805 65.02C287.805 64.75 287.885 64.52 288.055 64.34C288.225 64.16 288.445 64.07 288.725 64.07C288.985 64.07 289.205 64.15 289.385 64.32C289.565 64.49 289.645 64.73 289.645 65.05C289.645 65.27 289.585 65.51 289.475 65.77C289.365 66.03 289.205 66.28 288.995 66.54C288.785 66.8 288.535 67.05 288.225 67.3H287.562Z" fill="#8CBDED"/>
<path d="M202.755 80L200.695 72.13H202.236L203.815 78.69H203.885L205.445 73.84L204.905 72.12H206.405L208.365 78.68H208.435L209.986 72.12H211.435L209.336 79.99H207.415L206.095 75.54H206.035L204.655 79.99H202.755V80Z" fill="#8CBDED"/>
<path fill-rule="evenodd" clip-rule="evenodd" d="M212.595 79.36C213.115 79.86 213.835 80.11 214.735 80.11V80.09C215.125 80.09 215.465 80.07 215.755 80.01C216.045 79.96 216.345 79.87 216.645 79.76V78.65C216.355 78.76 216.075 78.83 215.805 78.88C215.535 78.93 215.235 78.95 214.895 78.95C214.555 78.95 214.255 78.89 213.995 78.78C213.735 78.67 213.535 78.49 213.385 78.25C213.235 78.01 213.145 77.71 213.115 77.35H216.765C216.785 77.21 216.795 77.05 216.795 76.89V76.38C216.795 75.86 216.705 75.43 216.515 75.07C216.325 74.71 216.055 74.44 215.705 74.25C215.355 74.06 214.935 73.97 214.445 73.97C213.955 73.97 213.505 74.09 213.105 74.32C212.705 74.56 212.385 74.9 212.155 75.36C211.925 75.82 211.805 76.39 211.805 77.07C211.805 78.1 212.075 78.86 212.595 79.36ZM215.495 76.39H213.105V76.38C213.155 75.96 213.305 75.62 213.535 75.38C213.765 75.14 214.045 75.02 214.365 75.02C214.715 75.02 214.995 75.14 215.195 75.38C215.395 75.62 215.495 75.95 215.495 76.39Z" fill="#8CBDED"/>
<path d="M218.155 80V71.66L219.485 71.59V80H218.155Z" fill="#8CBDED"/>
<path d="M220.665 78.97V80.01H225.055V78.93H222.185V78.89L225.015 75.11V74.09H220.805V75.17H223.495V75.19L220.665 78.97Z" fill="#8CBDED"/>
<path d="M226.896 73.11C226.655 73.11 226.465 73.04 226.315 72.91C226.175 72.77 226.095 72.59 226.095 72.36C226.095 72.13 226.165 71.93 226.315 71.79C226.456 71.65 226.655 71.58 226.896 71.58C227.155 71.58 227.345 71.65 227.475 71.79C227.605 71.93 227.675 72.12 227.675 72.36C227.675 72.6 227.605 72.78 227.475 72.91C227.345 73.05 227.146 73.11 226.896 73.11Z" fill="#8CBDED"/>
<path d="M226.235 80V74.08L227.565 74V80H226.235Z" fill="#8CBDED"/>
<path d="M228.295 81.27L228.415 82.34H228.425C228.825 82.29 229.185 82.17 229.505 82C229.825 81.83 230.075 81.58 230.265 81.25C230.455 80.92 230.545 80.51 230.545 80.02V74L229.215 74.08V80.03C229.215 80.38 229.135 80.65 228.995 80.85C228.845 81.05 228.615 81.19 228.295 81.27Z" fill="#8CBDED"/>
<path d="M229.285 72.91C229.435 73.04 229.625 73.11 229.865 73.11C230.115 73.11 230.315 73.05 230.445 72.91C230.575 72.78 230.645 72.6 230.645 72.36C230.645 72.12 230.575 71.93 230.445 71.79C230.315 71.65 230.125 71.58 229.865 71.58C229.625 71.58 229.425 71.65 229.285 71.79C229.135 71.93 229.065 72.13 229.065 72.36C229.065 72.59 229.145 72.77 229.285 72.91Z" fill="#8CBDED"/>
<path d="M232.145 80V74.08L233.425 74.02V74.44C233.685 74.27 233.935 74.15 234.185 74.08C234.435 74.01 234.715 73.97 235.035 73.97C235.685 73.97 236.185 74.15 236.545 74.51C236.905 74.87 237.075 75.39 237.075 76.08V80H235.745V76.32C235.745 75.97 235.655 75.69 235.465 75.49C235.275 75.29 235.005 75.2 234.645 75.2C234.425 75.2 234.225 75.22 234.055 75.25C233.885 75.28 233.695 75.34 233.475 75.42V80H232.145Z" fill="#8CBDED"/>
<path fill-rule="evenodd" clip-rule="evenodd" d="M241.555 79.36C242.076 79.86 242.796 80.11 243.695 80.11V80.09C244.086 80.09 244.426 80.07 244.716 80.01C245.005 79.96 245.306 79.87 245.605 79.76V78.65C245.315 78.76 245.035 78.83 244.766 78.88C244.496 78.93 244.195 78.95 243.855 78.95C243.516 78.95 243.215 78.9 242.956 78.78C242.695 78.67 242.495 78.49 242.345 78.25C242.195 78.01 242.105 77.71 242.076 77.35H245.725C245.746 77.21 245.755 77.05 245.755 76.89V76.38C245.755 75.86 245.665 75.43 245.475 75.07C245.285 74.71 245.016 74.44 244.665 74.25C244.315 74.06 243.896 73.97 243.406 73.97C242.915 73.97 242.465 74.09 242.065 74.32C241.665 74.56 241.345 74.9 241.116 75.36C240.885 75.82 240.766 76.39 240.766 77.07C240.766 78.1 241.035 78.86 241.555 79.36ZM244.456 76.39H242.065V76.38C242.116 75.96 242.266 75.62 242.495 75.38C242.725 75.14 243.005 75.02 243.326 75.02C243.676 75.02 243.956 75.14 244.156 75.38C244.355 75.62 244.456 75.95 244.456 76.39Z" fill="#8CBDED"/>
<path d="M247.105 80V74.08L248.385 74.02V74.44C248.645 74.27 248.895 74.15 249.145 74.08C249.395 74.01 249.675 73.97 249.995 73.97C250.645 73.97 251.145 74.15 251.505 74.51C251.865 74.87 252.035 75.39 252.035 76.08V80H250.705V76.32C250.705 75.97 250.615 75.69 250.425 75.49C250.235 75.29 249.965 75.2 249.605 75.2C249.385 75.2 249.185 75.22 249.015 75.25C248.845 75.28 248.655 75.34 248.435 75.42V80H247.105Z" fill="#8CBDED"/>
<path d="M256.695 80.07C257.005 80.1 257.335 80.11 257.685 80.11C258.335 80.11 258.895 80 259.375 79.79C259.855 79.58 260.215 79.28 260.465 78.9C260.715 78.52 260.845 78.08 260.845 77.59C260.845 77.07 260.705 76.65 260.445 76.32C260.175 75.99 259.745 75.73 259.146 75.54L258.266 75.26C257.885 75.14 257.615 75 257.465 74.84C257.315 74.68 257.235 74.47 257.235 74.22C257.235 74.03 257.285 73.85 257.396 73.7C257.505 73.54 257.676 73.42 257.905 73.34C258.146 73.25 258.435 73.21 258.785 73.21C259.085 73.21 259.365 73.23 259.615 73.25C259.865 73.27 260.135 73.31 260.415 73.37L260.516 72.18C260.245 72.12 259.986 72.08 259.715 72.06C259.445 72.03 259.155 72.02 258.855 72.02C258.215 72.02 257.676 72.12 257.225 72.33C256.775 72.54 256.435 72.82 256.195 73.17C255.955 73.52 255.836 73.93 255.836 74.4C255.836 74.91 255.975 75.33 256.245 75.66C256.516 75.99 256.895 76.24 257.385 76.4L258.235 76.68C258.546 76.78 258.785 76.89 258.965 77C259.135 77.11 259.266 77.23 259.336 77.36C259.405 77.49 259.445 77.64 259.445 77.82C259.445 78.04 259.385 78.24 259.255 78.4C259.125 78.56 258.935 78.69 258.685 78.78C258.435 78.87 258.125 78.91 257.745 78.91C257.415 78.91 257.095 78.9 256.785 78.87C256.475 78.84 256.135 78.79 255.755 78.72V79.96C256.076 80.01 256.385 80.05 256.695 80.07Z" fill="#8CBDED"/>
<path fill-rule="evenodd" clip-rule="evenodd" d="M262.146 82.29V74.08L263.426 74.02V74.44C263.646 74.29 263.885 74.17 264.146 74.09C264.405 74.01 264.695 73.97 264.995 73.97C265.736 73.97 266.315 74.21 266.755 74.69C267.195 75.17 267.406 75.9 267.406 76.86C267.406 77.56 267.276 78.14 267.005 78.62C266.736 79.1 266.375 79.47 265.896 79.72C265.415 79.97 264.866 80.1 264.236 80.1C264.095 80.1 263.965 80.1 263.845 80.08C263.777 80.0686 263.709 80.0605 263.637 80.0519C263.583 80.0454 263.526 80.0386 263.466 80.03V82.29H262.146ZM264.255 78.97C264.616 78.97 264.926 78.9 265.195 78.76C265.465 78.62 265.676 78.4 265.826 78.11C265.975 77.81 266.055 77.43 266.055 76.97C266.055 76.34 265.926 75.89 265.656 75.62C265.385 75.34 265.026 75.21 264.565 75.21C264.355 75.21 264.176 75.23 264.005 75.26C263.836 75.29 263.655 75.35 263.456 75.43V78.91L263.515 78.9186C263.633 78.9355 263.743 78.9514 263.845 78.96C263.965 78.97 264.095 78.98 264.245 78.98L264.255 78.97Z" fill="#8CBDED"/>
<path fill-rule="evenodd" clip-rule="evenodd" d="M269.745 79.78C270.165 80 270.645 80.11 271.195 80.11C271.715 80.11 272.195 79.99 272.645 79.73C273.085 79.47 273.445 79.11 273.715 78.63C273.985 78.16 274.115 77.59 274.115 76.94C274.115 76.29 273.995 75.74 273.765 75.3C273.525 74.86 273.215 74.53 272.795 74.31C272.375 74.09 271.895 73.98 271.345 73.98C270.825 73.98 270.345 74.1 269.895 74.36C269.455 74.62 269.095 74.99 268.825 75.46C268.555 75.93 268.425 76.5 268.425 77.15C268.425 77.8 268.545 78.35 268.775 78.79C269.015 79.23 269.335 79.56 269.745 79.78ZM272.045 78.7C271.825 78.85 271.575 78.93 271.285 78.93C270.825 78.93 270.465 78.78 270.195 78.48C269.925 78.18 269.795 77.72 269.795 77.1C269.795 76.68 269.865 76.33 269.995 76.04C270.125 75.75 270.295 75.53 270.525 75.38C270.755 75.23 271.005 75.15 271.285 75.15C271.745 75.15 272.105 75.3 272.375 75.6C272.645 75.9 272.775 76.36 272.775 76.98C272.775 77.4 272.705 77.75 272.575 78.04C272.445 78.33 272.265 78.55 272.045 78.7Z" fill="#8CBDED"/>
<path d="M275.445 79.99V74.08L276.766 74.02V74.69C276.975 74.43 277.176 74.24 277.375 74.13C277.576 74.02 277.785 73.97 277.995 73.97C278.135 73.97 278.266 73.97 278.366 73.99C278.466 74 278.576 74.02 278.695 74.06L278.595 75.34C278.465 75.3 278.345 75.27 278.245 75.26C278.135 75.25 278.016 75.24 277.896 75.24C277.706 75.24 277.525 75.27 277.345 75.34C277.176 75.41 276.986 75.52 276.776 75.68V79.99H275.445Z" fill="#8CBDED"/>
<path d="M281.891 80.11C281.892 80.11 281.894 80.11 281.895 80.11H281.885C281.887 80.11 281.889 80.11 281.891 80.11Z" fill="#8CBDED"/>
<path d="M280.945 79.9C281.214 80.0394 281.533 80.1094 281.891 80.11C282.119 80.1097 282.317 80.0898 282.495 80.07L282.534 80.0636C282.702 80.0356 282.878 80.0064 283.045 79.96V78.84C283.006 78.8484 282.968 78.8568 282.93 78.865C282.834 78.886 282.745 78.9056 282.665 78.92C282.555 78.95 282.425 78.95 282.285 78.95C282.015 78.95 281.805 78.87 281.635 78.71C281.465 78.55 281.385 78.3 281.385 77.96V75.1H282.895V74.08H281.385V72.88L280.065 73V74.08H279.355V75.1H280.065V78.11C280.065 78.58 280.135 78.96 280.295 79.25C280.455 79.55 280.665 79.76 280.945 79.9Z" fill="#8CBDED"/>
<path d="M172.076 61.8898H171.376V59.9598H172.076V61.8898ZM175.216 53.3798H174.516V51.4498H175.216V53.3798ZM162.326 50.0498C162.266 50.0498 161.906 50.0498 161.906 50.1198C161.906 50.1898 162.076 50.1598 162.326 50.1998C162.886 50.2998 163.106 50.5798 163.496 50.5798C163.846 50.5798 164.216 50.3398 164.076 49.8298C164.056 49.7398 164.006 49.7698 163.986 49.8298C163.926 50.0598 163.646 50.1898 163.356 50.1898C162.986 50.1898 162.916 50.0598 162.336 50.0598L162.326 50.0498ZM158.496 51.9798C158.556 52.0698 159.216 52.9198 158.206 53.2398C158.156 53.2598 158.146 53.2998 158.206 53.3298C158.946 53.6398 159.306 53.0698 159.306 53.0698C159.686 53.9298 159.106 54.4098 159.106 54.4098C159.186 54.5598 159.546 54.8298 160.086 54.9498C160.296 54.8398 160.586 54.6298 160.706 54.3098C160.706 54.3098 160.846 54.6898 160.726 55.0498C162.246 55.1898 162.786 53.9698 163.956 54.1898C163.986 54.1898 164.006 54.1698 164.006 54.1398C164.006 53.3898 163.546 52.0198 162.096 51.7398C160.646 51.4598 161.036 50.8698 161.036 50.8698C161.646 50.8498 161.996 51.1098 161.996 51.1098C162.106 50.9298 161.946 50.7298 161.946 50.7298C162.006 50.6598 162.036 50.4098 162.036 50.4098C161.346 50.4098 161.176 50.2598 161.176 50.2598C161.076 49.8498 161.356 49.2798 162.376 49.8898C162.636 49.6698 162.606 49.3098 162.606 49.3098C162.686 49.2698 162.736 49.1498 162.736 49.0998C162.736 48.9298 161.916 48.4798 161.716 48.4198C161.666 48.1698 161.346 47.8198 160.386 47.9498C159.926 48.0098 159.606 47.8898 159.756 47.6198C159.776 47.5698 159.696 47.5598 159.656 47.6198C159.556 47.7198 159.406 48.0198 159.796 48.2198C160.236 48.4398 160.256 48.8798 160.266 48.9498C160.266 49.0498 160.166 49.0498 160.136 48.9498C159.936 48.2098 158.916 48.0498 158.316 48.4398C158.346 48.8398 158.776 49.0998 159.016 49.0998C159.156 49.0998 159.336 48.9598 159.336 48.7798C159.336 48.6898 159.386 48.6998 159.406 48.7798C159.506 49.0398 159.106 49.5998 158.536 49.2598C157.946 49.8498 158.186 50.5898 158.236 50.8498C158.336 51.3298 158.106 51.7998 157.666 51.5898C157.646 51.5898 157.616 51.5698 157.616 51.6198C157.616 51.9098 158.016 52.2498 158.486 51.9898L158.496 51.9798ZM161.756 48.9898C161.476 49.2998 161.026 49.2298 160.916 48.7198C161.496 48.6898 161.736 48.7398 161.756 48.9898ZM179.416 50.1798C179.116 50.1798 178.836 50.0498 178.786 49.8198C178.766 49.7598 178.726 49.7398 178.696 49.8198C178.556 50.3298 178.916 50.5698 179.276 50.5698C179.666 50.5698 179.886 50.2898 180.446 50.1898C180.696 50.1498 180.866 50.1898 180.866 50.1098C180.866 50.0398 180.506 50.0398 180.446 50.0398C179.866 50.0398 179.786 50.1698 179.426 50.1698L179.416 50.1798ZM185.136 51.5898C185.136 51.5898 185.116 51.5498 185.086 51.5598C184.646 51.7798 184.416 51.3098 184.516 50.8198C184.576 50.5498 184.816 49.8198 184.216 49.2298C183.636 49.5698 183.236 49.0098 183.346 48.7498C183.366 48.6798 183.416 48.6698 183.416 48.7498C183.416 48.9298 183.596 49.0698 183.736 49.0698C183.966 49.0698 184.396 48.8098 184.436 48.4098C183.836 48.0198 182.816 48.1798 182.616 48.9198C182.596 49.0198 182.476 49.0098 182.486 48.9198C182.486 48.8598 182.516 48.4198 182.956 48.1898C183.356 47.9898 183.216 47.6898 183.096 47.5898C183.056 47.5498 182.966 47.5598 182.996 47.5898C183.146 47.8498 182.816 47.9698 182.376 47.9198C181.416 47.7898 181.106 48.1498 181.046 48.3898C180.836 48.4498 180.026 48.8998 180.026 49.0698C180.026 49.1198 180.076 49.2498 180.156 49.2798C180.156 49.2798 180.136 49.6198 180.386 49.8598C181.406 49.2398 181.686 49.8198 181.586 50.2298C181.586 50.2298 181.406 50.3698 180.716 50.3798C180.716 50.3798 180.746 50.6298 180.806 50.6998C180.806 50.6998 180.646 50.8998 180.756 51.0798C180.756 51.0798 181.106 50.8198 181.716 50.8398C181.716 50.8398 182.106 51.4298 180.656 51.7098C179.206 51.9898 178.746 53.3598 178.746 54.1098C178.746 54.1498 178.766 54.1698 178.796 54.1598C179.976 53.9398 180.506 55.1598 182.026 55.0198C181.886 54.6598 182.046 54.2798 182.046 54.2798C182.166 54.5998 182.456 54.8198 182.666 54.9198C183.206 54.7998 183.566 54.5398 183.646 54.3798C183.646 54.3798 183.066 53.9098 183.446 53.0398C183.446 53.0398 183.806 53.6198 184.546 53.2998C184.606 53.2698 184.596 53.2298 184.546 53.2098C183.536 52.8798 184.196 52.0298 184.256 51.9498C184.726 52.2298 185.126 51.8898 185.126 51.5798L185.136 51.5898ZM181.846 48.7198C181.736 49.2298 181.286 49.2998 181.006 48.9898C181.026 48.7398 181.276 48.6898 181.846 48.7198ZM171.116 40.1698C171.116 40.2998 171.176 40.4098 171.216 40.4698C171.306 40.5998 171.286 40.6698 171.246 40.7098C171.206 40.7498 171.136 40.7698 171.006 40.6798C170.946 40.6298 170.826 40.5798 170.706 40.5798C170.486 40.5798 170.376 40.7198 170.376 40.8398C170.376 40.9598 170.486 41.0998 170.706 41.0998C170.836 41.0998 170.946 41.0398 171.006 40.9998C171.136 40.9098 171.206 40.9298 171.246 40.9698C171.286 41.0098 171.226 41.4498 171.176 41.7998C170.816 41.8798 170.636 42.1698 170.636 42.3398C170.636 42.7798 171.096 43.0298 171.376 43.1798C171.646 43.0398 172.116 42.7798 172.116 42.3398C172.116 42.1698 171.936 41.8798 171.576 41.7998C171.526 41.4598 171.466 41.0098 171.506 40.9698C171.546 40.9298 171.616 40.9098 171.746 40.9998C171.806 41.0498 171.926 41.0998 172.046 41.0998C172.266 41.0998 172.376 40.9598 172.376 40.8398C172.376 40.7198 172.266 40.5798 172.046 40.5798C171.916 40.5798 171.806 40.6398 171.746 40.6798C171.616 40.7698 171.546 40.7498 171.506 40.7098C171.466 40.6698 171.446 40.5998 171.536 40.4698C171.586 40.4098 171.636 40.2898 171.636 40.1698C171.636 39.9498 171.496 39.8398 171.376 39.8398C171.256 39.8398 171.116 39.9498 171.116 40.1698ZM171.376 43.4198C171.076 43.4198 170.836 43.6598 170.836 43.9598C170.836 44.2598 171.076 44.4998 171.376 44.4998C171.676 44.4998 171.916 44.2598 171.916 43.9598C171.916 43.6598 171.676 43.4198 171.376 43.4198ZM171.376 48.5398C173.516 48.5398 174.716 48.9498 174.716 48.9498C174.716 47.8698 174.716 47.2698 175.336 47.3598C174.996 46.4598 176.456 46.0998 176.456 44.9198C176.456 44.1398 175.906 44.0598 175.746 44.0598C175.266 44.0598 175.336 44.3698 174.926 44.3698C174.876 44.3698 174.826 44.3498 174.826 44.3898C174.826 44.5298 174.936 44.7598 175.126 44.7598C175.386 44.7598 175.386 44.4998 175.576 44.4998C175.656 44.4998 175.776 44.5598 175.776 44.8298C175.776 45.3298 175.446 45.8898 175.056 46.3198C174.966 46.1998 174.846 46.1198 174.696 46.1198C174.466 46.1198 174.266 46.3598 174.266 46.6598C174.266 46.7698 174.286 46.8498 174.326 46.9398C174.196 47.0098 174.076 47.0498 173.996 47.0498C173.816 47.0498 173.556 46.9798 173.556 46.5898C173.556 45.7298 174.696 44.9798 174.696 43.8898C174.696 43.3698 174.356 42.8598 173.626 42.8598C172.846 42.8598 172.996 43.5598 172.326 43.5598C172.296 43.5598 172.266 43.5598 172.266 43.5998C172.266 43.6498 172.386 44.0398 172.726 44.0398C173.096 44.0398 173.196 43.3998 173.536 43.3998C173.656 43.3998 173.836 43.4698 173.836 43.8998C173.836 44.2398 173.666 44.7898 173.426 45.3098C173.336 45.2198 173.216 45.1598 173.086 45.1598C172.796 45.1598 172.586 45.4398 172.586 45.7698C172.586 45.9798 172.666 46.1898 172.806 46.3098C172.636 46.5298 172.466 46.6998 172.226 46.6998C171.766 46.6998 171.566 46.4398 171.566 46.1498C171.566 45.8398 172.136 45.7298 172.136 45.2498C172.136 44.9198 171.916 44.7398 171.716 44.7398C171.496 44.7398 171.376 44.8798 171.356 44.8798C171.336 44.8798 171.216 44.7398 170.996 44.7398C170.786 44.7398 170.576 44.9198 170.576 45.2498C170.576 45.7298 171.146 45.8498 171.146 46.1498C171.146 46.4398 170.936 46.6998 170.486 46.6998C170.256 46.6998 170.076 46.5198 169.906 46.3098C170.046 46.1698 170.126 45.9698 170.126 45.7698C170.126 45.4298 169.916 45.1598 169.626 45.1598C169.486 45.1598 169.376 45.2198 169.286 45.3098C169.046 44.7798 168.876 44.2398 168.876 43.8998C168.876 43.4698 169.056 43.3998 169.176 43.3998C169.506 43.3998 169.606 44.0398 169.986 44.0398C170.326 44.0398 170.446 43.6498 170.446 43.5998C170.446 43.5798 170.426 43.5598 170.386 43.5598C169.716 43.5598 169.856 42.8598 169.086 42.8598C168.366 42.8598 168.016 43.3698 168.016 43.8898C168.016 44.9798 169.156 45.7298 169.156 46.5898C169.156 46.9698 168.896 47.0498 168.716 47.0498C168.626 47.0498 168.516 47.0098 168.386 46.9398C168.426 46.8398 168.446 46.7698 168.446 46.6598C168.446 46.3598 168.246 46.1198 168.016 46.1198C167.876 46.1198 167.756 46.1998 167.666 46.3198C167.276 45.8898 166.946 45.3398 166.946 44.8298C166.946 44.5698 167.066 44.4998 167.146 44.4998C167.326 44.4998 167.336 44.7598 167.596 44.7598C167.786 44.7598 167.896 44.5298 167.896 44.3898C167.896 44.3498 167.836 44.3698 167.796 44.3698C167.386 44.3698 167.456 44.0598 166.976 44.0598C166.816 44.0598 166.266 44.1498 166.266 44.9198C166.266 46.0998 167.726 46.4598 167.386 47.3598C168.006 47.2698 167.996 47.8698 168.006 48.9498C168.006 48.9498 169.196 48.5398 171.336 48.5398H171.376ZM167.466 50.1398C166.886 50.2698 166.466 50.3898 166.286 50.4398C166.286 50.1798 166.386 49.9398 166.626 49.8998C166.656 49.8998 166.666 49.8498 166.626 49.8398C166.106 49.4998 165.836 50.1498 165.826 50.1798C165.646 50.1598 165.366 50.2198 165.366 50.4698C165.366 51.2098 163.666 51.6198 163.276 51.6898C163.976 51.9498 164.256 52.8298 164.256 52.8298C164.756 52.3298 165.346 51.8898 165.476 51.8898C165.606 51.8898 165.656 52.0598 165.666 52.1498C165.666 52.1798 165.696 52.1898 165.726 52.1698C165.986 51.7798 165.866 51.6898 165.836 51.5698C165.816 51.4798 165.836 51.1398 166.226 51.1798V56.1298L166.026 56.1698C165.936 56.1898 165.206 55.5698 164.386 54.9898C163.556 54.4098 163.116 54.7598 162.166 55.2698C160.926 55.9398 159.676 55.3298 159.676 55.3298C158.616 56.0898 158.246 58.2998 158.246 58.2998C158.026 58.3898 157.676 58.4798 157.346 58.4798C156.526 58.4798 156.386 57.9798 156.386 57.6998C156.386 56.4398 157.966 55.9098 157.966 54.6698C157.966 54.3698 157.826 53.1498 156.316 53.1498H154.966C154.396 53.1498 154.266 52.7398 154.186 52.5898C154.156 52.5298 154.096 52.5698 154.126 52.6098C154.166 52.7098 154.066 52.8698 154.066 53.1898C154.066 53.6898 154.366 53.9998 154.916 53.9998C155.166 53.9998 155.406 53.9298 155.476 53.8798C155.526 53.8498 155.556 53.8998 155.536 53.9298C155.296 54.2098 155.276 54.7398 155.376 54.8598C155.396 54.8898 155.436 54.8798 155.436 54.8598C155.576 54.3298 156.066 53.8298 156.736 53.8298C157.556 53.8298 157.556 54.5298 157.556 54.6898C157.556 55.6998 155.786 56.4298 155.786 57.8298C155.786 59.2298 157.276 59.5298 158.126 59.3198C158.076 60.7298 156.466 61.2098 156.416 60.1998C156.416 60.1498 156.376 60.1398 156.356 60.1998C156.156 60.6998 156.236 61.1398 156.856 61.2698C156.896 61.2698 156.876 61.2998 156.836 61.3298C156.216 61.7198 156.546 63.2698 156.576 63.7298C156.626 64.3898 155.966 64.3098 155.916 64.2898C155.896 64.2898 155.856 64.2898 155.916 64.3498C156.376 64.9198 156.956 64.3998 156.956 64.3998C157.386 64.5398 157.126 64.8998 156.826 65.0998C156.776 65.1298 156.786 65.1598 156.826 65.1598C156.886 65.1598 157.566 65.2198 157.686 64.6898C157.986 65.0398 158.426 64.9098 158.506 64.8698C158.636 64.8098 159.266 64.5698 159.326 65.2798C159.326 65.3298 159.356 65.2998 159.386 65.2798C159.856 64.6798 159.356 64.3098 159.066 64.2698C159.086 64.2398 159.466 63.9198 159.806 64.3598C159.826 64.3898 159.856 64.3998 159.856 64.3398C159.896 63.5798 159.276 63.5198 158.876 63.8398C158.856 63.7598 158.726 63.3398 159.326 63.3498C159.346 63.3498 159.366 63.3298 159.346 63.2998C158.886 62.7998 158.496 63.2498 158.406 63.3598C158.196 63.6098 157.676 63.4998 157.626 63.4998C157.786 60.8698 160.106 61.7998 160.426 60.5198C160.446 60.4598 160.476 60.4798 160.476 60.4998C160.566 60.8098 161.346 60.8498 161.496 60.2398C161.496 60.1998 161.496 60.1798 161.476 60.1998C160.806 60.8698 159.296 58.7798 161.356 57.0698C163.116 55.6198 164.696 56.4298 165.296 56.8998C165.326 57.1098 165.196 57.1798 165.116 57.1998C165.086 57.1998 165.076 57.2298 165.116 57.2598C165.286 57.3198 165.516 57.2998 165.626 57.1498C166.006 57.4098 165.686 57.7498 165.526 57.8398C165.486 57.8598 165.506 57.8898 165.526 57.8998C165.866 57.9598 166.156 57.6098 166.176 57.3998L166.236 57.4298V58.9298C166.236 61.0598 168.696 61.3498 171.386 63.1498C174.086 61.3398 176.526 61.0498 176.526 58.9298V57.4298L176.586 57.3998C176.606 57.5998 176.886 57.9598 177.236 57.8998C177.266 57.8998 177.286 57.8698 177.236 57.8398C177.086 57.7398 176.756 57.4198 177.136 57.1498C177.246 57.3098 177.476 57.3298 177.646 57.2598C177.696 57.2398 177.686 57.2098 177.646 57.1998C177.566 57.1798 177.436 57.0998 177.466 56.8998C178.066 56.4198 179.646 55.6098 181.406 57.0698C183.466 58.7698 181.956 60.8598 181.286 60.1998C181.256 60.1698 181.256 60.1998 181.266 60.2398C181.406 60.8598 182.196 60.8098 182.286 60.4998C182.286 60.4798 182.326 60.4498 182.336 60.5198C182.656 61.7998 184.966 60.8598 185.136 63.4998C185.086 63.4998 184.566 63.5998 184.356 63.3598C184.266 63.2598 183.886 62.7998 183.416 63.2998C183.386 63.3298 183.416 63.3498 183.436 63.3498C184.036 63.3298 183.906 63.7598 183.886 63.8398C183.486 63.5098 182.866 63.5798 182.906 64.3398C182.906 64.3998 182.926 64.3998 182.956 64.3598C183.296 63.9198 183.676 64.2398 183.696 64.2698C183.416 64.3098 182.906 64.6798 183.376 65.2798C183.396 65.2998 183.426 65.3398 183.436 65.2798C183.496 64.5798 184.126 64.7998 184.256 64.8698C184.346 64.9198 184.786 65.0498 185.076 64.6898C185.196 65.2298 185.866 65.1698 185.936 65.1598C185.986 65.1598 185.986 65.1298 185.936 65.0998C185.646 64.9098 185.376 64.5398 185.806 64.3998C185.806 64.3998 186.386 64.9198 186.846 64.3498C186.886 64.2998 186.866 64.2898 186.846 64.2898C186.786 64.3098 186.136 64.3898 186.186 63.7298C186.216 63.2698 186.556 61.7198 185.926 61.3298C185.886 61.3098 185.866 61.2798 185.906 61.2698C186.526 61.1298 186.606 60.6898 186.406 60.1998C186.386 60.1398 186.346 60.1498 186.346 60.1998C186.296 61.2098 184.686 60.7298 184.636 59.3198C185.496 59.5398 186.976 59.2398 186.976 57.8298C186.976 56.4198 185.206 55.6998 185.206 54.6898C185.206 54.5198 185.206 53.8298 186.026 53.8298C186.696 53.8298 187.196 54.3298 187.326 54.8598C187.326 54.8798 187.356 54.8898 187.386 54.8598C187.486 54.7298 187.466 54.2098 187.226 53.9298C187.206 53.9098 187.226 53.8498 187.286 53.8798C187.356 53.9298 187.596 53.9998 187.846 53.9998C188.396 53.9998 188.696 53.6998 188.696 53.1898C188.696 52.8798 188.586 52.7198 188.636 52.6098C188.656 52.5598 188.596 52.5298 188.576 52.5898C188.496 52.7498 188.356 53.1498 187.796 53.1498H186.446C184.936 53.1498 184.796 54.3698 184.796 54.6698C184.796 55.9098 186.376 56.4498 186.376 57.6998C186.376 57.9998 186.226 58.4798 185.416 58.4798C185.076 58.4798 184.726 58.3798 184.516 58.2998C184.516 58.2998 184.156 56.0998 183.086 55.3298C183.086 55.3298 181.836 55.9398 180.596 55.2698C179.656 54.7598 179.206 54.4098 178.376 54.9898C177.546 55.5698 176.826 56.1798 176.736 56.1698L176.536 56.1298V51.1798C176.916 51.1398 176.946 51.4798 176.926 51.5698C176.906 51.6798 176.786 51.7798 177.036 52.1698C177.056 52.1998 177.086 52.1898 177.096 52.1498C177.096 52.0498 177.156 51.8898 177.286 51.8898C177.416 51.8898 178.006 52.3298 178.506 52.8298C178.506 52.8298 178.796 51.9598 179.486 51.6898C179.096 51.6298 177.396 51.2198 177.396 50.4698C177.396 50.2198 177.116 50.1698 176.936 50.1798C176.936 50.1598 176.646 49.4998 176.136 49.8398C176.116 49.8598 176.116 49.8998 176.136 49.8998C176.366 49.9598 176.466 50.1898 176.476 50.4398C175.976 50.2898 173.876 49.6998 171.376 49.6998C170.156 49.6998 169.046 49.8398 168.156 49.9998V51.7098H167.456V50.1298M162.856 67.7198C162.676 67.6498 162.556 67.5298 162.556 67.2798V66.2198C162.256 66.1198 161.416 65.7998 159.746 65.7998C158.366 65.7998 157.926 66.1098 157.906 66.2198L157.536 68.2398C157.536 68.2398 158.096 67.7298 160.106 67.8598C162.526 68.0098 165.026 69.4398 165.026 67.9198V67.0198C163.136 67.0198 162.856 67.6398 162.856 67.7198ZM177.736 67.0198V67.9198C177.736 69.4398 180.236 68.0198 182.656 67.8598C184.666 67.7298 185.226 68.2398 185.226 68.2398L184.856 66.2098C184.836 66.0998 184.396 65.7898 183.016 65.7898C181.356 65.7898 180.516 66.1098 180.206 66.2098V67.2698C180.206 67.5098 180.086 67.6298 179.906 67.7098C179.906 67.6198 179.636 67.0098 177.736 67.0098V67.0198ZM171.376 66.0998C175.276 66.0998 179.226 66.2998 179.736 66.8898C179.776 66.9398 179.796 66.8898 179.796 66.8498V64.7898C179.796 64.1898 175.716 63.8398 171.376 63.8398C167.036 63.8398 162.956 64.1898 162.956 64.7898V66.8498C162.956 66.8498 162.976 66.9298 163.016 66.8898C163.556 66.3098 167.506 66.0998 171.396 66.0998H171.376ZM167.906 56.3798L167.516 56.2798L167.486 56.3298L167.026 56.1298H167.436C167.436 56.1298 167.476 56.1098 167.456 56.0898C167.276 55.9098 167.106 55.7498 167.106 55.7498C167.106 55.7498 167.286 55.8198 167.556 55.9198C167.586 55.9198 167.596 55.9198 167.576 55.8898C167.446 55.7098 167.276 55.4498 167.276 55.4498C167.276 55.4498 167.646 55.6998 167.716 55.7498C167.736 55.7698 167.756 55.7498 167.746 55.7298C167.646 55.4898 167.536 55.2098 167.536 55.2098L167.936 55.5898C167.936 55.5898 167.976 55.5898 167.966 55.5698C167.926 55.3898 167.856 55.0498 167.856 55.0498L168.156 55.4798C168.156 55.4798 168.196 55.4998 168.196 55.4798C168.196 55.3898 168.196 55.0098 168.196 55.0098C168.196 55.0098 168.326 55.2998 168.376 55.4398C168.396 55.4698 168.406 55.4698 168.426 55.4398C168.446 55.3898 168.576 55.0698 168.576 55.0698L168.596 55.5698L168.536 55.5898L168.456 56.1798C169.036 56.0398 169.776 55.0398 170.336 55.0398C171.006 55.0398 171.246 55.8198 172.476 55.4198C172.786 55.8798 172.896 56.2798 173.016 56.8398C173.496 57.2898 174.156 57.1398 174.156 56.6598C174.156 56.0198 173.456 55.8998 173.456 55.2298C173.456 54.9298 173.666 54.4998 174.236 54.4998C174.536 54.4998 174.976 54.6298 175.236 54.6298C175.536 54.6298 175.606 54.4098 175.636 54.3198C175.656 54.2598 175.746 54.2698 175.736 54.3198C175.736 54.3798 175.766 54.4698 175.766 54.6198C175.766 55.0398 175.146 55.0998 175.076 55.0398C175.046 55.0198 175.016 55.0398 175.046 55.0698C175.146 55.1398 175.116 55.3998 175.006 55.5598C174.986 55.5798 174.976 55.5798 174.976 55.5598C174.916 55.2598 174.556 54.8798 174.236 54.8798C174.126 54.8798 173.896 54.9398 173.896 55.2198C173.896 55.5998 174.656 55.9498 174.656 56.7298C174.656 57.5098 173.846 57.7498 173.036 57.5398C173.056 58.3198 174.216 58.7698 174.246 58.2198C174.246 58.1798 174.266 58.1998 174.276 58.2198C174.446 58.4598 174.376 58.6398 174.146 58.7298C174.346 58.8198 174.386 59.2298 174.446 59.4698C174.536 59.8398 174.916 59.6298 174.946 59.6198C174.966 59.5998 174.976 59.6198 174.966 59.6398C174.826 60.0198 174.426 59.8698 174.426 59.8698C174.226 60.0098 174.466 60.1398 174.646 60.1998C174.666 60.1998 174.666 60.2198 174.646 60.2398C174.506 60.2898 174.226 60.3798 174.076 60.1398C173.976 60.3998 173.756 60.3898 173.676 60.3898C173.526 60.3898 173.426 60.5398 173.456 60.7498C173.456 60.7698 173.456 60.7698 173.436 60.7698C173.086 60.5398 173.286 60.2598 173.436 60.1898C173.416 60.1698 173.166 60.0698 173.056 60.3598C173.056 60.3798 173.036 60.3798 173.026 60.3598C172.876 59.9398 173.206 59.8198 173.446 59.9298C173.426 59.8698 173.306 59.6698 172.986 59.7398C172.966 59.7398 172.966 59.7398 172.966 59.7198C173.026 59.5898 173.176 59.4098 173.466 59.5898C173.616 59.6898 173.876 59.5498 173.896 59.5298C173.376 58.4998 172.376 59.3598 172.146 58.5498C172.146 58.5298 172.126 58.5198 172.106 58.5698C172.046 58.7398 171.606 58.7498 171.526 58.4198C171.526 58.3998 171.526 58.3898 171.546 58.3998C171.606 58.4598 171.746 58.5198 171.926 58.2598C172.046 58.0798 172.066 57.8498 172.066 57.6998C172.066 57.0798 171.446 56.0198 170.466 56.0198C169.846 56.0198 169.186 56.2598 168.686 56.6198L169.146 56.7198C169.106 57.1798 168.656 57.4598 168.246 57.3398L168.316 56.8098C168.246 56.8298 168.066 56.8998 167.976 57.0298H167.956C167.876 56.7298 168.126 56.5698 168.196 56.5398C167.976 56.5398 167.856 56.6898 167.816 56.7498H167.796C167.816 56.6898 167.776 56.5298 167.886 56.4198L167.906 56.3798ZM169.276 59.9598C169.096 60.1798 168.946 59.9598 168.716 59.9598C168.496 59.9598 168.456 60.1398 168.456 60.2198C168.456 60.2398 168.456 60.2398 168.436 60.2198C168.186 59.8798 168.466 59.6998 168.626 59.6798C168.606 59.6598 168.366 59.4998 168.206 59.7198C168.206 59.7398 168.186 59.7198 168.186 59.7198C168.186 59.2998 168.506 59.2698 168.726 59.4598C168.766 59.2998 168.666 59.1998 168.486 59.1898C168.466 59.1898 168.466 59.1698 168.466 59.1698C168.536 59.0898 168.606 59.0598 168.686 59.0598C168.916 59.0598 168.946 59.3598 169.106 59.3598C169.326 59.3598 169.656 59.0598 169.686 59.0198C169.686 58.9998 169.466 58.4098 169.506 58.0598C169.506 58.0398 169.506 58.0398 169.486 58.0598C169.376 58.1198 169.106 58.1198 169.106 57.7798C169.106 57.7598 169.106 57.7498 169.126 57.7798C169.246 57.9498 169.446 57.7598 169.546 57.6398C169.646 57.5198 170.226 56.6898 170.986 56.6898C171.156 56.6898 171.366 56.7898 171.546 56.9098C171.286 57.2298 171.546 57.5298 171.736 57.4898C171.756 57.4898 171.756 57.5098 171.736 57.5098C170.726 57.8898 170.276 58.0398 170.276 58.8898C170.276 59.3298 170.426 59.5798 170.686 59.5098C170.706 59.5098 170.706 59.5098 170.686 59.5298C170.586 59.6398 170.486 59.6798 170.396 59.6798C170.186 59.6798 170.146 59.5698 170.036 59.5698C169.926 59.5698 169.546 59.7898 169.546 59.9798C169.546 60.0498 169.596 60.1498 169.726 60.2298V60.2498C169.616 60.2498 169.316 60.2698 169.256 59.9898L169.276 59.9598ZM171.926 51.7598C171.616 51.7398 171.406 51.8098 171.426 51.9098C171.576 52.0698 171.776 52.0498 171.926 51.7598ZM170.766 52.5398C170.986 52.4798 171.226 52.5098 171.266 52.5198C171.306 52.5298 171.296 52.5798 171.266 52.5898C170.806 52.6498 170.776 52.8598 170.486 52.8598C170.296 52.8598 170.076 52.6598 170.156 52.3698C170.156 52.3298 170.196 52.3298 170.206 52.3698C170.236 52.4998 170.426 52.6298 170.786 52.5398H170.766ZM164.736 62.8198C165.036 63.2098 165.336 62.8398 165.746 62.8398C165.946 62.8398 166.186 62.8998 166.226 63.2998C166.226 63.3198 166.246 63.3198 166.266 63.2998C166.706 62.6998 166.206 62.3598 165.916 62.3198C165.976 62.2598 166.406 61.9998 166.686 62.3898C166.706 62.4098 166.736 62.4098 166.736 62.3698C166.736 61.6098 166.166 61.5498 165.756 61.8798C165.676 61.5798 165.896 61.3898 166.186 61.3898C166.216 61.3898 166.236 61.3698 166.216 61.3498C165.706 60.8098 165.326 61.4898 165.236 61.5998C165.036 61.8698 164.306 61.3598 164.016 61.0598C164.016 61.0598 164.656 60.3898 164.656 59.7698C164.656 59.7298 164.656 59.6798 164.656 59.6598C164.656 59.6398 164.656 59.6398 164.676 59.6398C164.736 59.6798 164.826 59.6998 164.916 59.6998C165.056 59.6998 165.336 59.6498 165.336 59.1298C165.336 59.0898 165.316 59.0898 165.306 59.1098C165.226 59.2198 165.146 59.2498 165.086 59.2498C164.566 59.2498 163.486 57.5198 162.206 57.5198C161.866 57.5198 161.236 57.7598 160.926 58.0998C161.076 58.1898 161.106 58.3798 161.096 58.5198C161.076 58.7398 160.896 58.8498 160.716 58.8998C160.686 58.8998 160.686 58.9298 160.716 58.9498C161.366 59.1998 162.536 59.6398 162.806 59.8698C163.116 60.1398 163.066 60.6498 162.876 61.3698C162.696 62.0498 162.326 61.9598 162.176 61.9398C162.156 61.9398 162.156 61.9398 162.156 61.9598C162.326 62.1698 162.526 62.2398 162.696 62.2398C163.036 62.2398 163.156 62.0298 163.326 62.0298C163.616 62.0298 164.226 62.4498 164.226 62.7698C164.226 62.9498 164.086 63.1098 163.906 63.2298V63.2498C164.046 63.2698 164.606 63.3198 164.726 62.8098L164.736 62.8198ZM178.846 63.2598C178.846 63.2598 178.866 63.2398 178.846 63.2398C178.666 63.1198 178.526 62.9598 178.526 62.7798C178.526 62.4598 179.136 62.0398 179.426 62.0398C179.606 62.0398 179.726 62.2498 180.056 62.2498C180.236 62.2498 180.436 62.1798 180.596 61.9698C180.616 61.9498 180.596 61.9398 180.576 61.9498C180.436 61.9698 180.056 62.0598 179.876 61.3798C179.696 60.6698 179.626 60.1598 179.946 59.8798C180.206 59.6498 181.386 59.2098 182.036 58.9598C182.066 58.9398 182.066 58.9198 182.036 58.9098C181.856 58.8598 181.686 58.7498 181.656 58.5298C181.636 58.3898 181.676 58.2098 181.826 58.1098C181.506 57.7698 180.876 57.5298 180.536 57.5298C179.256 57.5298 178.176 59.2598 177.656 59.2598C177.596 59.2598 177.506 59.2398 177.436 59.1198C177.416 59.0998 177.406 59.0998 177.406 59.1398C177.406 59.6598 177.686 59.7098 177.826 59.7098C177.906 59.7098 178.006 59.6898 178.066 59.6498C178.086 59.6498 178.086 59.6498 178.086 59.6698C178.086 59.6898 178.086 59.7398 178.086 59.7798C178.086 60.3998 178.726 61.0698 178.726 61.0698C178.436 61.3698 177.706 61.8798 177.506 61.6098C177.416 61.4998 177.046 60.8198 176.526 61.3598C176.506 61.3798 176.526 61.3998 176.556 61.3998C176.846 61.3998 177.066 61.5898 176.986 61.8898C176.566 61.5598 176.006 61.6198 176.006 62.3798C176.006 62.4098 176.036 62.4198 176.056 62.3998C176.326 62.0098 176.756 62.2698 176.816 62.3298C176.526 62.3698 176.036 62.7098 176.466 63.3098C176.486 63.3298 176.496 63.3298 176.506 63.3098C176.556 62.9198 176.796 62.8498 176.986 62.8498C177.386 62.8498 177.686 63.2198 177.996 62.8298C178.126 63.3398 178.696 63.2898 178.826 63.2698L178.846 63.2598ZM168.516 53.2898C168.476 53.3498 168.336 53.2898 168.296 53.2698C168.326 53.3398 168.456 53.5598 168.646 53.5598C168.736 53.5598 168.866 53.5098 168.896 53.4498C168.896 53.4498 169.646 53.6998 170.016 53.7898C169.876 53.9798 169.786 54.2098 169.756 54.4598C169.456 54.2798 168.256 53.6398 168.256 53.6398L167.886 54.1498C167.826 54.2298 167.526 54.0098 167.586 53.9298L167.866 53.5398C167.766 53.4398 167.546 53.4998 167.486 53.5198C167.486 53.5198 167.466 53.5198 167.486 53.4998C167.526 53.4198 167.666 53.1898 168.016 53.2898C168.016 53.0698 167.696 53.1498 167.606 53.1698C167.696 53.0698 167.956 52.8698 168.246 53.0398L168.376 52.8598L168.116 52.5898L168.276 52.3698L168.456 52.6098L169.836 50.7098C169.836 50.7098 170.146 50.5798 170.246 50.5598C170.246 50.6598 170.266 50.9498 170.246 50.9998L168.886 52.9098L169.176 53.0098L169.016 53.2298L168.676 53.0698L168.536 53.2798L168.516 53.2898ZM173.376 52.9798C173.376 53.1598 173.476 53.4098 173.716 53.3298H173.736C173.706 53.5198 173.356 53.6998 173.196 53.4698C173.056 53.7698 173.096 54.0498 173.386 54.2098C173.406 54.2098 173.406 54.2398 173.386 54.2598C173.206 54.3898 172.926 54.3598 172.796 54.1098C172.546 54.2898 172.576 54.6898 172.736 54.8298C172.736 54.8298 172.046 55.2398 171.426 54.9498C171.006 54.7498 170.676 54.4898 170.136 54.5398C170.206 53.7898 170.586 53.5998 171.276 53.4798C171.826 53.3898 171.896 53.1398 171.816 52.9398C171.636 52.8898 171.286 53.0598 171.286 53.0598C171.226 52.9598 171.306 52.8498 171.306 52.8498C171.276 52.8098 171.256 52.6698 171.256 52.6698C171.636 52.6698 171.716 52.5798 171.716 52.5798C171.786 52.1798 171.376 52.1398 171.066 52.3598C170.926 52.2298 170.946 52.0598 170.946 52.0598C170.906 52.0398 170.876 51.9698 170.876 51.9398C170.876 51.8398 171.336 51.5898 171.456 51.5598C171.486 51.4198 171.646 51.2398 172.136 51.2898C172.196 51.1598 172.096 50.6898 172.036 50.5698C172.016 50.5298 172.036 50.5098 172.086 50.5398C172.256 50.6398 172.426 51.0398 172.546 51.0498C172.546 51.0498 173.086 50.7598 173.116 50.7798C173.136 50.7998 173.216 51.3998 173.216 51.3998C173.286 51.4898 173.716 51.3998 173.896 51.4798C173.946 51.4998 173.946 51.5398 173.896 51.5398C173.756 51.5598 173.316 51.7598 173.246 51.8798C173.506 52.2598 173.386 52.8098 173.386 52.9598L173.376 52.9798Z" fill="#121212"/>
</svg>
