<svg width="343" height="99" viewBox="0 0 343 99" fill="none" xmlns="http://www.w3.org/2000/svg">
<path d="M0 12C0 5.37257 5.37258 0 12 0H331C337.627 0 343 5.37258 343 12V98.34H0V12Z" fill="#ffffffff"/>
<path d="M151.355 0H191.355V80H151.355V0Z" fill="#154273"/>
<path d="M201.826 43.97L201.475 51.84H202.775L203.016 45.3H203.086L204.836 50.32H206.315L208.055 45.3H208.125L208.365 51.84H209.755L209.405 43.97H207.345L205.685 48.81H205.625L204.005 43.97H201.826Z" fill="#154273"/>
<path d="M212.055 44.95C211.815 44.95 211.625 44.88 211.475 44.75C211.335 44.61 211.255 44.43 211.255 44.2C211.255 43.97 211.326 43.77 211.475 43.63C211.615 43.49 211.815 43.42 212.055 43.42C212.315 43.42 212.505 43.49 212.635 43.63C212.766 43.77 212.835 43.96 212.835 44.2C212.835 44.44 212.766 44.62 212.635 44.75C212.505 44.88 212.305 44.95 212.055 44.95Z" fill="#154273"/>
<path d="M211.396 51.84V45.92L212.725 45.84V51.84H211.396Z" fill="#154273"/>
<path d="M214.345 45.92V51.84H215.675V47.26C215.895 47.18 216.085 47.12 216.255 47.09C216.425 47.06 216.625 47.04 216.845 47.04C217.205 47.04 217.475 47.13 217.665 47.33C217.855 47.53 217.945 47.81 217.945 48.16V51.84H219.275V47.92C219.275 47.23 219.105 46.71 218.745 46.35C218.385 45.99 217.885 45.81 217.235 45.81C216.915 45.81 216.635 45.85 216.385 45.92C216.135 45.99 215.885 46.11 215.625 46.28V45.86L214.345 45.92Z" fill="#154273"/>
<path d="M221.475 44.95C221.235 44.95 221.045 44.88 220.895 44.75C220.755 44.61 220.675 44.43 220.675 44.2C220.675 43.97 220.745 43.77 220.895 43.63C221.035 43.49 221.235 43.42 221.475 43.42C221.735 43.42 221.925 43.49 222.055 43.63C222.185 43.77 222.255 43.96 222.255 44.2C222.255 44.44 222.185 44.62 222.055 44.75C221.925 44.88 221.725 44.95 221.475 44.95Z" fill="#154273"/>
<path d="M220.815 51.84V45.92L222.145 45.84V51.84H220.815Z" fill="#154273"/>
<path d="M224.156 51.91C224.436 51.94 224.745 51.95 225.095 51.95C225.605 51.95 226.046 51.87 226.406 51.71C226.776 51.55 227.056 51.31 227.255 51.02C227.456 50.73 227.555 50.38 227.555 49.97C227.555 49.56 227.435 49.23 227.206 48.97C226.975 48.71 226.625 48.52 226.165 48.39L225.466 48.21C225.185 48.14 224.995 48.06 224.885 47.96C224.776 47.86 224.725 47.73 224.725 47.57C224.725 47.39 224.806 47.25 224.975 47.14C225.146 47.03 225.426 46.97 225.826 46.97C226.076 46.97 226.315 46.97 226.526 46.99C226.736 47 226.965 47.03 227.206 47.07L227.305 45.94C227.095 45.9 226.875 45.87 226.635 45.85C226.396 45.83 226.135 45.82 225.845 45.82C225.336 45.82 224.896 45.9 224.535 46.06C224.176 46.22 223.896 46.44 223.695 46.72C223.505 47 223.406 47.32 223.406 47.68C223.406 48.1 223.516 48.44 223.736 48.69C223.956 48.94 224.266 49.13 224.676 49.25L225.375 49.47C225.695 49.56 225.915 49.66 226.046 49.77C226.176 49.88 226.236 50.02 226.236 50.18C226.236 50.37 226.155 50.52 225.975 50.64C225.796 50.76 225.505 50.82 225.095 50.82C224.815 50.82 224.526 50.8 224.245 50.77C223.956 50.74 223.676 50.68 223.385 50.6V51.78C223.625 51.84 223.885 51.88 224.156 51.91Z" fill="#154273"/>
<path d="M230.901 51.95C230.543 51.9494 230.224 51.8794 229.955 51.74C229.675 51.6 229.465 51.39 229.305 51.09C229.145 50.8 229.075 50.42 229.075 49.95V46.94H228.365V45.92H229.075V44.84L230.395 44.72V45.92H231.905V46.94H230.395V49.8C230.395 50.14 230.475 50.39 230.645 50.55C230.815 50.71 231.025 50.79 231.295 50.79C231.435 50.79 231.565 50.79 231.675 50.76C231.755 50.7456 231.844 50.726 231.94 50.705L232.007 50.6904L232.055 50.68V51.8C231.888 51.8464 231.713 51.8756 231.544 51.9036L231.505 51.91C231.327 51.9298 231.129 51.9497 230.901 51.95Z" fill="#154273"/>
<path d="M230.901 51.95L230.905 51.95H230.895L230.901 51.95Z" fill="#154273"/>
<path fill-rule="evenodd" clip-rule="evenodd" d="M233.516 51.2C234.035 51.7 234.755 51.95 235.655 51.95V51.93C236.046 51.93 236.385 51.91 236.675 51.85C236.965 51.8 237.266 51.71 237.565 51.6V50.49C237.275 50.6 236.995 50.67 236.725 50.72C236.456 50.77 236.155 50.79 235.815 50.79C235.475 50.79 235.175 50.74 234.915 50.62C234.655 50.51 234.455 50.33 234.305 50.09C234.155 49.85 234.065 49.55 234.035 49.19H237.685C237.706 49.05 237.715 48.89 237.715 48.73V48.22C237.715 47.7 237.625 47.27 237.435 46.91C237.245 46.55 236.975 46.28 236.625 46.09C236.275 45.9 235.855 45.81 235.365 45.81C234.875 45.81 234.425 45.93 234.025 46.16C233.625 46.4 233.305 46.74 233.076 47.2C232.845 47.66 232.725 48.23 232.725 48.91C232.725 49.94 232.995 50.7 233.516 51.2ZM236.415 48.23H234.025V48.22C234.076 47.8 234.225 47.46 234.456 47.22C234.685 46.98 234.965 46.86 235.285 46.86C235.635 46.86 235.915 46.98 236.115 47.22C236.315 47.46 236.415 47.79 236.415 48.23Z" fill="#154273"/>
<path d="M239.065 51.83V45.92L240.385 45.86V46.53C240.595 46.27 240.796 46.08 240.995 45.97C241.195 45.86 241.405 45.81 241.615 45.81C241.755 45.81 241.885 45.81 241.985 45.83C242.085 45.84 242.195 45.86 242.315 45.9L242.215 47.18C242.085 47.14 241.965 47.11 241.865 47.1C241.755 47.09 241.635 47.08 241.516 47.08C241.326 47.08 241.145 47.11 240.965 47.18C240.796 47.25 240.605 47.36 240.396 47.52V51.83H239.065Z" fill="#154273"/>
<path d="M243.296 44.75C243.445 44.88 243.635 44.95 243.875 44.95C244.125 44.95 244.326 44.88 244.456 44.75C244.586 44.62 244.656 44.44 244.656 44.2C244.656 43.96 244.586 43.77 244.456 43.63C244.326 43.49 244.135 43.42 243.875 43.42C243.635 43.42 243.436 43.49 243.296 43.63C243.146 43.77 243.076 43.97 243.076 44.2C243.076 44.43 243.155 44.61 243.296 44.75Z" fill="#154273"/>
<path d="M243.216 45.92V51.84H244.546V45.84L243.216 45.92Z" fill="#154273"/>
<path fill-rule="evenodd" clip-rule="evenodd" d="M248.795 51.95C247.895 51.95 247.175 51.7 246.655 51.2C246.135 50.7 245.865 49.94 245.865 48.91C245.865 48.23 245.985 47.66 246.215 47.2C246.445 46.74 246.765 46.4 247.165 46.16C247.565 45.93 248.015 45.81 248.505 45.81C248.995 45.81 249.415 45.9 249.765 46.09C250.115 46.28 250.385 46.55 250.575 46.91C250.765 47.27 250.855 47.7 250.855 48.22V48.73C250.855 48.89 250.845 49.05 250.825 49.19H247.175C247.205 49.55 247.295 49.85 247.445 50.09C247.595 50.33 247.795 50.51 248.055 50.62C248.315 50.73 248.615 50.79 248.955 50.79C249.295 50.79 249.595 50.77 249.865 50.72C250.135 50.67 250.415 50.6 250.705 50.49V51.6C250.405 51.71 250.105 51.8 249.815 51.85C249.525 51.91 249.185 51.93 248.795 51.93V51.95ZM247.165 48.23H249.555C249.555 47.79 249.455 47.46 249.255 47.22C249.055 46.98 248.775 46.86 248.425 46.86C248.105 46.86 247.825 46.98 247.595 47.22C247.365 47.46 247.215 47.8 247.165 48.22V48.23Z" fill="#154273"/>
<path d="M253.826 45.92L255.706 51.84H257.516L259.415 45.92H258.035L256.716 50.77H256.646L255.345 45.92H253.826Z" fill="#154273"/>
<path fill-rule="evenodd" clip-rule="evenodd" d="M261.845 51.95C261.245 51.95 260.785 51.8 260.455 51.49C260.125 51.18 259.965 50.78 259.965 50.29C259.965 49.74 260.185 49.29 260.615 48.94C261.055 48.59 261.735 48.41 262.675 48.41H263.085C263.205 48.41 263.335 48.41 263.475 48.42V47.98C263.475 47.68 263.375 47.44 263.175 47.27C262.975 47.1 262.645 47.01 262.195 47.01C261.625 47.01 261.055 47.13 260.475 47.37L260.285 46.25C260.645 46.1 260.995 45.99 261.326 45.91C261.655 45.83 262.015 45.8 262.415 45.8C263.205 45.8 263.795 45.98 264.185 46.34C264.576 46.7 264.766 47.21 264.766 47.88V51.83H263.525V51.48C263.265 51.64 263.015 51.76 262.755 51.83C262.495 51.9 262.195 51.94 261.845 51.94V51.95ZM262.205 50.88C262.455 50.88 262.675 50.85 262.875 50.8C263.075 50.75 263.275 50.67 263.475 50.57V49.41C263.335 49.41 263.215 49.4 263.095 49.39C263.018 49.3835 262.936 49.3854 262.844 49.3876C262.794 49.3888 262.742 49.39 262.685 49.39C262.195 49.39 261.855 49.47 261.645 49.62C261.435 49.77 261.335 49.96 261.335 50.18C261.335 50.4 261.405 50.57 261.555 50.7C261.695 50.83 261.915 50.89 262.205 50.89V50.88Z" fill="#154273"/>
<path d="M266.326 45.92V51.84H267.656V47.26C267.875 47.18 268.065 47.12 268.236 47.09C268.405 47.06 268.605 47.04 268.826 47.04C269.185 47.04 269.456 47.13 269.646 47.33C269.836 47.53 269.926 47.81 269.926 48.16V51.84H271.255V47.92C271.255 47.23 271.086 46.71 270.725 46.35C270.366 45.99 269.866 45.81 269.216 45.81C268.896 45.81 268.616 45.85 268.366 45.92C268.116 45.99 267.866 46.11 267.605 46.28V45.86L266.326 45.92Z" fill="#154273"/>
<path d="M203.025 65.92L200.685 58.05H202.225L204.125 64.61H204.195L205.985 58.05H207.445L205.105 65.92H203.025Z" fill="#154273"/>
<path fill-rule="evenodd" clip-rule="evenodd" d="M208.986 65.7C209.405 65.92 209.885 66.03 210.435 66.03C210.956 66.03 211.435 65.91 211.885 65.65C212.326 65.39 212.685 65.03 212.956 64.55C213.225 64.08 213.355 63.51 213.355 62.86C213.355 62.21 213.236 61.66 213.005 61.22C212.766 60.78 212.445 60.45 212.035 60.23C211.616 60.01 211.135 59.9 210.586 59.9C210.065 59.9 209.576 60.02 209.135 60.28C208.695 60.54 208.335 60.91 208.065 61.38C207.796 61.85 207.665 62.42 207.665 63.07C207.665 63.72 207.785 64.27 208.016 64.71C208.255 65.15 208.576 65.48 208.986 65.7ZM211.275 64.62C211.055 64.77 210.805 64.85 210.516 64.85C210.055 64.85 209.695 64.7 209.426 64.4C209.155 64.1 209.025 63.64 209.025 63.02C209.025 62.6 209.095 62.25 209.225 61.96C209.355 61.67 209.535 61.45 209.755 61.3C209.986 61.15 210.236 61.07 210.516 61.07C210.975 61.07 211.336 61.22 211.605 61.52C211.875 61.82 212.005 62.28 212.005 62.9C212.005 63.32 211.935 63.67 211.805 63.96C211.676 64.25 211.495 64.47 211.275 64.62Z" fill="#154273"/>
<path d="M214.685 65.92V57.58L216.016 57.51V65.92H214.685Z" fill="#154273"/>
<path d="M217.625 57.58V65.92H218.965V63.18H219.525L221.285 65.92H222.865L220.625 62.49L222.715 60.01H221.175L219.445 62.13H218.956V57.51L217.625 57.58Z" fill="#154273"/>
<path d="M225.406 66.03C225.056 66.03 224.746 66.02 224.466 65.99C224.195 65.96 223.935 65.92 223.695 65.86V64.68C223.986 64.76 224.266 64.82 224.555 64.85C224.836 64.88 225.125 64.9 225.406 64.9C225.815 64.9 226.105 64.84 226.285 64.72C226.465 64.6 226.546 64.45 226.546 64.26C226.546 64.1 226.486 63.96 226.355 63.85C226.225 63.74 226.005 63.64 225.685 63.55L224.986 63.33C224.576 63.21 224.266 63.02 224.046 62.77C223.826 62.52 223.716 62.18 223.716 61.76C223.716 61.4 223.815 61.08 224.005 60.8C224.206 60.52 224.486 60.3 224.845 60.14C225.206 59.98 225.646 59.9 226.156 59.9C226.445 59.9 226.706 59.91 226.945 59.93C227.185 59.95 227.405 59.98 227.616 60.02L227.516 61.15C227.276 61.11 227.046 61.08 226.836 61.07C226.625 61.05 226.385 61.05 226.135 61.05C225.736 61.05 225.456 61.11 225.285 61.22C225.116 61.33 225.035 61.47 225.035 61.65C225.035 61.81 225.086 61.94 225.195 62.04C225.305 62.14 225.495 62.22 225.776 62.29L226.475 62.47C226.936 62.6 227.285 62.79 227.516 63.05C227.746 63.31 227.866 63.64 227.866 64.05C227.866 64.46 227.766 64.81 227.565 65.1C227.366 65.39 227.086 65.63 226.716 65.79C226.355 65.95 225.915 66.03 225.406 66.03Z" fill="#154273"/>
<path fill-rule="evenodd" clip-rule="evenodd" d="M229.595 68.06C229.965 68.19 230.435 68.26 230.995 68.26H231.005C231.705 68.26 232.285 68.17 232.735 67.99C233.185 67.81 233.525 67.57 233.745 67.26C233.965 66.95 234.075 66.6 234.075 66.22C234.075 65.77 233.925 65.43 233.635 65.18C233.345 64.93 232.875 64.81 232.225 64.81L230.795 64.79C230.525 64.79 230.335 64.76 230.215 64.68C230.095 64.6 230.035 64.5 230.035 64.36C230.035 64.28 230.065 64.21 230.115 64.14C230.175 64.07 230.235 64.02 230.305 63.99C230.415 64.0099 230.535 64.0299 230.654 64.0498L230.655 64.05C230.785 64.07 230.905 64.07 231.035 64.07C231.855 64.07 232.485 63.89 232.915 63.55C233.345 63.2 233.565 62.71 233.565 62.07C233.565 61.81 233.515 61.58 233.415 61.38C233.315 61.18 233.185 61.04 233.045 60.95V60.91H234.015V60.01H232.135C231.995 59.97 231.845 59.94 231.685 59.92C231.515 59.9 231.355 59.89 231.185 59.89C230.685 59.89 230.245 59.98 229.875 60.15C229.505 60.32 229.215 60.58 229.015 60.91C228.805 61.25 228.705 61.65 228.705 62.12C228.705 62.5 228.785 62.82 228.955 63.08C229.125 63.34 229.345 63.54 229.625 63.68V63.72C229.395 63.81 229.225 63.93 229.105 64.09C228.985 64.25 228.925 64.42 228.925 64.61C228.925 64.8 228.965 64.97 229.065 65.11C229.165 65.25 229.285 65.36 229.425 65.42V65.46C229.145 65.57 228.915 65.75 228.745 65.97C228.575 66.19 228.485 66.44 228.485 66.73C228.485 67.02 228.585 67.28 228.765 67.51C228.945 67.74 229.225 67.93 229.595 68.06ZM232.485 67.02C232.225 67.18 231.775 67.26 231.135 67.26C230.645 67.26 230.275 67.18 230.035 67.04C229.795 66.9 229.675 66.7 229.675 66.45C229.675 66.31 229.705 66.18 229.785 66.07C229.865 65.96 229.965 65.87 230.105 65.81L232.075 65.88C232.365 65.88 232.575 65.93 232.695 66.02C232.815 66.11 232.875 66.24 232.875 66.42C232.875 66.66 232.745 66.86 232.485 67.02ZM232.025 62.88C231.827 63.0684 231.531 63.1585 231.136 63.16C230.78 63.1585 230.504 63.0784 230.295 62.9C230.085 62.73 229.975 62.45 229.975 62.05C229.975 61.65 230.075 61.35 230.295 61.15C230.505 60.95 230.795 60.85 231.155 60.85C231.545 60.85 231.835 60.94 232.035 61.13C232.225 61.31 232.325 61.59 232.325 61.96C232.325 62.39 232.225 62.69 232.025 62.88Z" fill="#154273"/>
<path fill-rule="evenodd" clip-rule="evenodd" d="M237.625 66.03C236.725 66.03 236.005 65.78 235.486 65.28C234.965 64.78 234.695 64.02 234.695 62.99C234.695 62.31 234.815 61.74 235.046 61.28C235.276 60.82 235.595 60.48 235.995 60.24C236.396 60.01 236.845 59.89 237.336 59.89C237.826 59.89 238.245 59.98 238.595 60.17C238.945 60.36 239.216 60.63 239.406 60.99C239.595 61.35 239.685 61.78 239.685 62.3V62.81C239.685 62.97 239.676 63.13 239.656 63.27H236.005C236.035 63.63 236.125 63.93 236.276 64.17C236.426 64.41 236.625 64.59 236.885 64.7C237.146 64.81 237.445 64.87 237.785 64.87C238.125 64.87 238.426 64.85 238.695 64.8C238.965 64.75 239.246 64.68 239.535 64.57V65.68C239.236 65.79 238.935 65.88 238.646 65.93C238.355 65.99 238.016 66.01 237.625 66.01V66.03ZM235.995 62.31H238.385C238.385 61.87 238.285 61.54 238.086 61.3C237.885 61.06 237.605 60.94 237.255 60.94C236.935 60.94 236.655 61.06 236.426 61.3C236.195 61.54 236.046 61.88 235.995 62.3V62.31Z" fill="#154273"/>
<path d="M240.655 64.89V65.93H245.045V64.85H242.175V64.81L245.005 61.03V60.01H240.795V61.09H243.485V61.11L240.655 64.89Z" fill="#154273"/>
<path fill-rule="evenodd" clip-rule="evenodd" d="M248.605 66.03C248.055 66.03 247.575 65.92 247.155 65.7C246.745 65.48 246.425 65.15 246.185 64.71C245.955 64.27 245.835 63.72 245.835 63.07C245.835 62.42 245.965 61.85 246.235 61.38C246.505 60.91 246.865 60.54 247.305 60.28C247.755 60.02 248.235 59.9 248.755 59.9C249.305 59.9 249.785 60.01 250.205 60.23C250.625 60.45 250.935 60.78 251.175 61.22C251.405 61.66 251.525 62.21 251.525 62.86C251.525 63.51 251.395 64.08 251.125 64.55C250.855 65.03 250.495 65.39 250.055 65.65C249.605 65.91 249.125 66.03 248.605 66.03ZM248.695 64.85C248.985 64.85 249.235 64.77 249.455 64.62C249.675 64.47 249.855 64.25 249.985 63.96C250.115 63.67 250.185 63.32 250.185 62.9C250.185 62.28 250.055 61.82 249.785 61.52C249.515 61.22 249.155 61.07 248.695 61.07C248.415 61.07 248.165 61.15 247.935 61.3C247.705 61.45 247.535 61.67 247.405 61.96C247.275 62.25 247.205 62.6 247.205 63.02C247.205 63.64 247.335 64.1 247.605 64.4C247.875 64.7 248.235 64.85 248.695 64.85Z" fill="#154273"/>
<path d="M252.855 60V65.92H254.185V61.34C254.405 61.26 254.595 61.2 254.765 61.17C254.935 61.14 255.135 61.12 255.355 61.12C255.715 61.12 255.985 61.21 256.175 61.41C256.365 61.61 256.455 61.89 256.455 62.24V65.92H257.785V62C257.785 61.31 257.615 60.79 257.255 60.43C256.895 60.07 256.395 59.89 255.745 59.89C255.425 59.89 255.145 59.93 254.895 60C254.645 60.07 254.395 60.19 254.135 60.36V59.94L252.855 60Z" fill="#154273"/>
<path fill-rule="evenodd" clip-rule="evenodd" d="M261.546 66.03C261.046 66.03 260.615 65.92 260.235 65.7C259.855 65.48 259.565 65.16 259.355 64.72C259.145 64.29 259.035 63.75 259.035 63.11C259.035 62.43 259.165 61.85 259.435 61.37C259.706 60.89 260.076 60.52 260.535 60.27C261.005 60.02 261.535 59.89 262.125 59.89C262.296 59.89 262.445 59.89 262.586 59.91C262.725 59.93 262.855 59.95 262.975 59.99V57.58L264.305 57.51V65.92H263.025V65.56C262.815 65.7 262.585 65.82 262.326 65.9C262.069 65.979 261.812 66.0288 261.546 66.03ZM261.896 64.87C262.115 64.87 262.315 64.85 262.475 64.8C262.635 64.75 262.815 64.69 262.995 64.59V61.11C262.855 61.09 262.706 61.07 262.565 61.06C262.425 61.05 262.275 61.04 262.115 61.04C261.775 61.04 261.465 61.12 261.206 61.27C260.945 61.42 260.745 61.65 260.595 61.95C260.455 62.25 260.375 62.61 260.375 63.03C260.375 63.66 260.516 64.13 260.785 64.43C261.055 64.73 261.425 64.88 261.875 64.88L261.896 64.87Z" fill="#154273"/>
<path d="M265.925 57.58V65.92H267.245V61.34C267.465 61.26 267.655 61.2 267.825 61.17C267.995 61.14 268.195 61.12 268.415 61.12C268.775 61.12 269.045 61.21 269.235 61.41C269.425 61.61 269.515 61.89 269.515 62.24V65.92H270.845V62C270.845 61.31 270.675 60.79 270.315 60.43C269.965 60.07 269.465 59.89 268.825 59.89C268.505 59.89 268.225 59.93 267.985 60C267.745 60.08 267.505 60.19 267.255 60.34V57.51L265.925 57.58Z" fill="#154273"/>
<path fill-rule="evenodd" clip-rule="evenodd" d="M275.055 66.03C274.155 66.03 273.435 65.78 272.915 65.28C272.395 64.78 272.125 64.02 272.125 62.99C272.125 62.31 272.245 61.74 272.475 61.28C272.706 60.82 273.025 60.48 273.425 60.24C273.826 60.01 274.275 59.89 274.766 59.89C275.255 59.89 275.675 59.98 276.025 60.17C276.375 60.36 276.646 60.63 276.836 60.99C277.025 61.35 277.115 61.78 277.115 62.3V62.81C277.115 62.97 277.105 63.13 277.086 63.27H273.435C273.465 63.63 273.555 63.93 273.706 64.17C273.855 64.41 274.055 64.59 274.315 64.7C274.576 64.82 274.875 64.87 275.215 64.87C275.555 64.87 275.855 64.85 276.125 64.8C276.395 64.75 276.676 64.68 276.965 64.57V65.68C276.665 65.79 276.365 65.88 276.076 65.93C275.785 65.99 275.445 66.01 275.055 66.01V66.03ZM273.425 62.31H275.815C275.815 61.87 275.715 61.54 275.516 61.3C275.315 61.06 275.035 60.94 274.685 60.94C274.365 60.94 274.085 61.06 273.855 61.3C273.625 61.54 273.475 61.88 273.425 62.3V62.31Z" fill="#154273"/>
<path d="M278.535 58.83C278.685 58.96 278.875 59.03 279.115 59.03C279.365 59.03 279.565 58.97 279.695 58.83C279.826 58.7 279.895 58.52 279.895 58.28C279.895 58.04 279.826 57.85 279.695 57.71C279.565 57.57 279.375 57.5 279.115 57.5C278.875 57.5 278.676 57.57 278.535 57.71C278.385 57.85 278.315 58.05 278.315 58.28C278.315 58.51 278.395 58.69 278.535 58.83Z" fill="#154273"/>
<path d="M278.456 60V65.92H279.785V59.92L278.456 60Z" fill="#154273"/>
<path fill-rule="evenodd" clip-rule="evenodd" d="M283.595 66.03C283.095 66.03 282.665 65.92 282.285 65.7C281.905 65.48 281.615 65.16 281.405 64.72C281.195 64.29 281.085 63.75 281.085 63.11C281.085 62.43 281.215 61.85 281.485 61.37C281.755 60.89 282.125 60.52 282.585 60.27C283.055 60.02 283.585 59.89 284.175 59.89C284.345 59.89 284.495 59.89 284.635 59.91C284.775 59.92 284.905 59.95 285.025 59.99V57.58L286.355 57.51V65.92H285.076V65.56C284.865 65.7 284.635 65.82 284.375 65.9C284.119 65.979 283.862 66.0288 283.595 66.03ZM283.945 64.87C284.165 64.87 284.365 64.85 284.525 64.8C284.685 64.76 284.865 64.69 285.045 64.59V61.11C284.905 61.09 284.755 61.07 284.615 61.06C284.475 61.05 284.325 61.04 284.165 61.04C283.825 61.04 283.515 61.12 283.255 61.27C282.995 61.42 282.795 61.65 282.645 61.95C282.505 62.25 282.425 62.61 282.425 63.03C282.425 63.66 282.565 64.13 282.835 64.43C283.115 64.73 283.475 64.88 283.925 64.88L283.945 64.87Z" fill="#154273"/>
<path d="M287.562 67.3L287.555 67.31V67.3H287.562Z" fill="#154273"/>
<path d="M287.562 67.3C287.729 67.0433 287.867 66.7867 287.985 66.53C288.105 66.27 288.195 66.03 288.275 65.79C288.135 65.72 288.015 65.62 287.935 65.48C287.855 65.35 287.805 65.19 287.805 65.02C287.805 64.75 287.885 64.52 288.055 64.34C288.225 64.16 288.445 64.07 288.725 64.07C288.985 64.07 289.205 64.15 289.385 64.32C289.565 64.49 289.645 64.73 289.645 65.05C289.645 65.27 289.585 65.51 289.475 65.77C289.365 66.03 289.205 66.28 288.995 66.54C288.785 66.8 288.535 67.05 288.225 67.3H287.562Z" fill="#154273"/>
<path d="M202.755 80L200.695 72.13H202.236L203.815 78.69H203.885L205.445 73.84L204.905 72.12H206.405L208.365 78.68H208.435L209.986 72.12H211.435L209.336 79.99H207.415L206.095 75.54H206.035L204.655 79.99H202.755V80Z" fill="#154273"/>
<path fill-rule="evenodd" clip-rule="evenodd" d="M212.595 79.36C213.115 79.86 213.835 80.11 214.735 80.11V80.09C215.125 80.09 215.465 80.07 215.755 80.01C216.045 79.96 216.345 79.87 216.645 79.76V78.65C216.355 78.76 216.075 78.83 215.805 78.88C215.535 78.93 215.235 78.95 214.895 78.95C214.555 78.95 214.255 78.89 213.995 78.78C213.735 78.67 213.535 78.49 213.385 78.25C213.235 78.01 213.145 77.71 213.115 77.35H216.765C216.785 77.21 216.795 77.05 216.795 76.89V76.38C216.795 75.86 216.705 75.43 216.515 75.07C216.325 74.71 216.055 74.44 215.705 74.25C215.355 74.06 214.935 73.97 214.445 73.97C213.955 73.97 213.505 74.09 213.105 74.32C212.705 74.56 212.385 74.9 212.155 75.36C211.925 75.82 211.805 76.39 211.805 77.07C211.805 78.1 212.075 78.86 212.595 79.36ZM215.495 76.39H213.105V76.38C213.155 75.96 213.305 75.62 213.535 75.38C213.765 75.14 214.045 75.02 214.365 75.02C214.715 75.02 214.995 75.14 215.195 75.38C215.395 75.62 215.495 75.95 215.495 76.39Z" fill="#154273"/>
<path d="M218.155 80V71.66L219.485 71.59V80H218.155Z" fill="#154273"/>
<path d="M220.665 78.97V80.01H225.055V78.93H222.185V78.89L225.015 75.11V74.09H220.805V75.17H223.495V75.19L220.665 78.97Z" fill="#154273"/>
<path d="M226.896 73.11C226.655 73.11 226.465 73.04 226.315 72.91C226.175 72.77 226.095 72.59 226.095 72.36C226.095 72.13 226.165 71.93 226.315 71.79C226.456 71.65 226.655 71.58 226.896 71.58C227.155 71.58 227.345 71.65 227.475 71.79C227.605 71.93 227.675 72.12 227.675 72.36C227.675 72.6 227.605 72.78 227.475 72.91C227.345 73.05 227.146 73.11 226.896 73.11Z" fill="#154273"/>
<path d="M226.235 80V74.08L227.565 74V80H226.235Z" fill="#154273"/>
<path d="M228.295 81.27L228.415 82.34H228.425C228.825 82.29 229.185 82.17 229.505 82C229.825 81.83 230.075 81.58 230.265 81.25C230.455 80.92 230.545 80.51 230.545 80.02V74L229.215 74.08V80.03C229.215 80.38 229.135 80.65 228.995 80.85C228.845 81.05 228.615 81.19 228.295 81.27Z" fill="#154273"/>
<path d="M229.285 72.91C229.435 73.04 229.625 73.11 229.865 73.11C230.115 73.11 230.315 73.05 230.445 72.91C230.575 72.78 230.645 72.6 230.645 72.36C230.645 72.12 230.575 71.93 230.445 71.79C230.315 71.65 230.125 71.58 229.865 71.58C229.625 71.58 229.425 71.65 229.285 71.79C229.135 71.93 229.065 72.13 229.065 72.36C229.065 72.59 229.145 72.77 229.285 72.91Z" fill="#154273"/>
<path d="M232.145 80V74.08L233.425 74.02V74.44C233.685 74.27 233.935 74.15 234.185 74.08C234.435 74.01 234.715 73.97 235.035 73.97C235.685 73.97 236.185 74.15 236.545 74.51C236.905 74.87 237.075 75.39 237.075 76.08V80H235.745V76.32C235.745 75.97 235.655 75.69 235.465 75.49C235.275 75.29 235.005 75.2 234.645 75.2C234.425 75.2 234.225 75.22 234.055 75.25C233.885 75.28 233.695 75.34 233.475 75.42V80H232.145Z" fill="#154273"/>
<path fill-rule="evenodd" clip-rule="evenodd" d="M241.555 79.36C242.076 79.86 242.796 80.11 243.695 80.11V80.09C244.086 80.09 244.426 80.07 244.716 80.01C245.005 79.96 245.306 79.87 245.605 79.76V78.65C245.315 78.76 245.035 78.83 244.766 78.88C244.496 78.93 244.195 78.95 243.855 78.95C243.516 78.95 243.215 78.9 242.956 78.78C242.695 78.67 242.495 78.49 242.345 78.25C242.195 78.01 242.105 77.71 242.076 77.35H245.725C245.746 77.21 245.755 77.05 245.755 76.89V76.38C245.755 75.86 245.665 75.43 245.475 75.07C245.285 74.71 245.016 74.44 244.665 74.25C244.315 74.06 243.896 73.97 243.406 73.97C242.915 73.97 242.465 74.09 242.065 74.32C241.665 74.56 241.345 74.9 241.116 75.36C240.885 75.82 240.766 76.39 240.766 77.07C240.766 78.1 241.035 78.86 241.555 79.36ZM244.456 76.39H242.065V76.38C242.116 75.96 242.266 75.62 242.495 75.38C242.725 75.14 243.005 75.02 243.326 75.02C243.676 75.02 243.956 75.14 244.156 75.38C244.355 75.62 244.456 75.95 244.456 76.39Z" fill="#154273"/>
<path d="M247.105 80V74.08L248.385 74.02V74.44C248.645 74.27 248.895 74.15 249.145 74.08C249.395 74.01 249.675 73.97 249.995 73.97C250.645 73.97 251.145 74.15 251.505 74.51C251.865 74.87 252.035 75.39 252.035 76.08V80H250.705V76.32C250.705 75.97 250.615 75.69 250.425 75.49C250.235 75.29 249.965 75.2 249.605 75.2C249.385 75.2 249.185 75.22 249.015 75.25C248.845 75.28 248.655 75.34 248.435 75.42V80H247.105Z" fill="#154273"/>
<path d="M256.695 80.07C257.005 80.1 257.335 80.11 257.685 80.11C258.335 80.11 258.895 80 259.375 79.79C259.855 79.58 260.215 79.28 260.465 78.9C260.715 78.52 260.845 78.08 260.845 77.59C260.845 77.07 260.705 76.65 260.445 76.32C260.175 75.99 259.745 75.73 259.146 75.54L258.266 75.26C257.885 75.14 257.615 75 257.465 74.84C257.315 74.68 257.235 74.47 257.235 74.22C257.235 74.03 257.285 73.85 257.396 73.7C257.505 73.54 257.676 73.42 257.905 73.34C258.146 73.25 258.435 73.21 258.785 73.21C259.085 73.21 259.365 73.23 259.615 73.25C259.865 73.27 260.135 73.31 260.415 73.37L260.516 72.18C260.245 72.12 259.986 72.08 259.715 72.06C259.445 72.03 259.155 72.02 258.855 72.02C258.215 72.02 257.676 72.12 257.225 72.33C256.775 72.54 256.435 72.82 256.195 73.17C255.955 73.52 255.836 73.93 255.836 74.4C255.836 74.91 255.975 75.33 256.245 75.66C256.516 75.99 256.895 76.24 257.385 76.4L258.235 76.68C258.546 76.78 258.785 76.89 258.965 77C259.135 77.11 259.266 77.23 259.336 77.36C259.405 77.49 259.445 77.64 259.445 77.82C259.445 78.04 259.385 78.24 259.255 78.4C259.125 78.56 258.935 78.69 258.685 78.78C258.435 78.87 258.125 78.91 257.745 78.91C257.415 78.91 257.095 78.9 256.785 78.87C256.475 78.84 256.135 78.79 255.755 78.72V79.96C256.076 80.01 256.385 80.05 256.695 80.07Z" fill="#154273"/>
<path fill-rule="evenodd" clip-rule="evenodd" d="M262.146 82.29V74.08L263.426 74.02V74.44C263.646 74.29 263.885 74.17 264.146 74.09C264.405 74.01 264.695 73.97 264.995 73.97C265.736 73.97 266.315 74.21 266.755 74.69C267.195 75.17 267.406 75.9 267.406 76.86C267.406 77.56 267.276 78.14 267.005 78.62C266.736 79.1 266.375 79.47 265.896 79.72C265.415 79.97 264.866 80.1 264.236 80.1C264.095 80.1 263.965 80.1 263.845 80.08C263.777 80.0686 263.709 80.0605 263.637 80.0519C263.583 80.0454 263.526 80.0386 263.466 80.03V82.29H262.146ZM264.255 78.97C264.616 78.97 264.926 78.9 265.195 78.76C265.465 78.62 265.676 78.4 265.826 78.11C265.975 77.81 266.055 77.43 266.055 76.97C266.055 76.34 265.926 75.89 265.656 75.62C265.385 75.34 265.026 75.21 264.565 75.21C264.355 75.21 264.176 75.23 264.005 75.26C263.836 75.29 263.655 75.35 263.456 75.43V78.91L263.515 78.9186C263.633 78.9355 263.743 78.9514 263.845 78.96C263.965 78.97 264.095 78.98 264.245 78.98L264.255 78.97Z" fill="#154273"/>
<path fill-rule="evenodd" clip-rule="evenodd" d="M269.745 79.78C270.165 80 270.645 80.11 271.195 80.11C271.715 80.11 272.195 79.99 272.645 79.73C273.085 79.47 273.445 79.11 273.715 78.63C273.985 78.16 274.115 77.59 274.115 76.94C274.115 76.29 273.995 75.74 273.765 75.3C273.525 74.86 273.215 74.53 272.795 74.31C272.375 74.09 271.895 73.98 271.345 73.98C270.825 73.98 270.345 74.1 269.895 74.36C269.455 74.62 269.095 74.99 268.825 75.46C268.555 75.93 268.425 76.5 268.425 77.15C268.425 77.8 268.545 78.35 268.775 78.79C269.015 79.23 269.335 79.56 269.745 79.78ZM272.045 78.7C271.825 78.85 271.575 78.93 271.285 78.93C270.825 78.93 270.465 78.78 270.195 78.48C269.925 78.18 269.795 77.72 269.795 77.1C269.795 76.68 269.865 76.33 269.995 76.04C270.125 75.75 270.295 75.53 270.525 75.38C270.755 75.23 271.005 75.15 271.285 75.15C271.745 75.15 272.105 75.3 272.375 75.6C272.645 75.9 272.775 76.36 272.775 76.98C272.775 77.4 272.705 77.75 272.575 78.04C272.445 78.33 272.265 78.55 272.045 78.7Z" fill="#154273"/>
<path d="M275.445 79.99V74.08L276.766 74.02V74.69C276.975 74.43 277.176 74.24 277.375 74.13C277.576 74.02 277.785 73.97 277.995 73.97C278.135 73.97 278.266 73.97 278.366 73.99C278.466 74 278.576 74.02 278.695 74.06L278.595 75.34C278.465 75.3 278.345 75.27 278.245 75.26C278.135 75.25 278.016 75.24 277.896 75.24C277.706 75.24 277.525 75.27 277.345 75.34C277.176 75.41 276.986 75.52 276.776 75.68V79.99H275.445Z" fill="#154273"/>
<path d="M281.891 80.11C281.892 80.11 281.894 80.11 281.895 80.11H281.885C281.887 80.11 281.889 80.11 281.891 80.11Z" fill="#154273"/>
<path d="M280.945 79.9C281.214 80.0394 281.533 80.1094 281.891 80.11C282.119 80.1097 282.317 80.0898 282.495 80.07L282.534 80.0636C282.702 80.0356 282.878 80.0064 283.045 79.96V78.84C283.006 78.8484 282.968 78.8568 282.93 78.865C282.834 78.886 282.745 78.9056 282.665 78.92C282.555 78.95 282.425 78.95 282.285 78.95C282.015 78.95 281.805 78.87 281.635 78.71C281.465 78.55 281.385 78.3 281.385 77.96V75.1H282.895V74.08H281.385V72.88L280.065 73V74.08H279.355V75.1H280.065V78.11C280.065 78.58 280.135 78.96 280.295 79.25C280.455 79.55 280.665 79.76 280.945 79.9Z" fill="#154273"/>
<path d="M172.075 61.89H171.375V59.96H172.075V61.89ZM175.215 53.38H174.515V51.45H175.215V53.38ZM162.325 50.05C162.265 50.05 161.905 50.05 161.905 50.12C161.905 50.19 162.075 50.16 162.325 50.2C162.885 50.3 163.105 50.58 163.495 50.58C163.845 50.58 164.215 50.34 164.075 49.83C164.055 49.74 164.005 49.77 163.985 49.83C163.925 50.06 163.645 50.19 163.355 50.19C162.985 50.19 162.915 50.06 162.335 50.06L162.325 50.05ZM158.495 51.98C158.555 52.07 159.215 52.92 158.205 53.24C158.155 53.26 158.145 53.3 158.205 53.33C158.945 53.64 159.305 53.07 159.305 53.07C159.685 53.93 159.105 54.41 159.105 54.41C159.185 54.56 159.545 54.83 160.085 54.95C160.295 54.84 160.585 54.63 160.705 54.31C160.705 54.31 160.845 54.69 160.725 55.05C162.245 55.19 162.785 53.97 163.955 54.19C163.985 54.19 164.005 54.17 164.005 54.14C164.005 53.39 163.545 52.02 162.095 51.74C160.645 51.46 161.035 50.87 161.035 50.87C161.645 50.85 161.995 51.11 161.995 51.11C162.105 50.93 161.945 50.73 161.945 50.73C162.005 50.66 162.035 50.41 162.035 50.41C161.345 50.41 161.175 50.26 161.175 50.26C161.075 49.85 161.355 49.28 162.375 49.89C162.635 49.67 162.605 49.31 162.605 49.31C162.685 49.27 162.735 49.15 162.735 49.1C162.735 48.93 161.915 48.48 161.715 48.42C161.665 48.17 161.345 47.82 160.385 47.95C159.925 48.01 159.605 47.89 159.755 47.62C159.775 47.57 159.695 47.56 159.655 47.62C159.555 47.72 159.405 48.02 159.795 48.22C160.235 48.44 160.255 48.88 160.265 48.95C160.265 49.05 160.165 49.05 160.135 48.95C159.935 48.21 158.915 48.05 158.315 48.44C158.345 48.84 158.775 49.1 159.015 49.1C159.155 49.1 159.335 48.96 159.335 48.78C159.335 48.69 159.385 48.7 159.405 48.78C159.505 49.04 159.105 49.6 158.535 49.26C157.945 49.85 158.185 50.59 158.235 50.85C158.335 51.33 158.105 51.8 157.665 51.59C157.645 51.59 157.615 51.57 157.615 51.62C157.615 51.91 158.015 52.25 158.485 51.99L158.495 51.98ZM161.755 48.99C161.475 49.3 161.025 49.23 160.915 48.72C161.495 48.69 161.735 48.74 161.755 48.99ZM179.415 50.18C179.115 50.18 178.835 50.05 178.785 49.82C178.765 49.76 178.725 49.74 178.695 49.82C178.555 50.33 178.915 50.57 179.275 50.57C179.665 50.57 179.885 50.29 180.445 50.19C180.695 50.15 180.865 50.19 180.865 50.11C180.865 50.04 180.505 50.04 180.445 50.04C179.865 50.04 179.785 50.17 179.425 50.17L179.415 50.18ZM185.135 51.59C185.135 51.59 185.115 51.55 185.085 51.56C184.645 51.78 184.415 51.31 184.515 50.82C184.575 50.55 184.815 49.82 184.215 49.23C183.635 49.57 183.235 49.01 183.345 48.75C183.365 48.68 183.415 48.67 183.415 48.75C183.415 48.93 183.595 49.07 183.735 49.07C183.965 49.07 184.395 48.81 184.435 48.41C183.835 48.02 182.815 48.18 182.615 48.92C182.595 49.02 182.475 49.01 182.485 48.92C182.485 48.86 182.515 48.42 182.955 48.19C183.355 47.99 183.215 47.69 183.095 47.59C183.055 47.55 182.965 47.56 182.995 47.59C183.145 47.85 182.815 47.97 182.375 47.92C181.415 47.79 181.105 48.15 181.045 48.39C180.835 48.45 180.025 48.9 180.025 49.07C180.025 49.12 180.075 49.25 180.155 49.28C180.155 49.28 180.135 49.62 180.385 49.86C181.405 49.24 181.685 49.82 181.585 50.23C181.585 50.23 181.405 50.37 180.715 50.38C180.715 50.38 180.745 50.63 180.805 50.7C180.805 50.7 180.645 50.9 180.755 51.08C180.755 51.08 181.105 50.82 181.715 50.84C181.715 50.84 182.105 51.43 180.655 51.71C179.205 51.99 178.745 53.36 178.745 54.11C178.745 54.15 178.765 54.17 178.795 54.16C179.975 53.94 180.505 55.16 182.025 55.02C181.885 54.66 182.045 54.28 182.045 54.28C182.165 54.6 182.455 54.82 182.665 54.92C183.205 54.8 183.565 54.54 183.645 54.38C183.645 54.38 183.065 53.91 183.445 53.04C183.445 53.04 183.805 53.62 184.545 53.3C184.605 53.27 184.595 53.23 184.545 53.21C183.535 52.88 184.195 52.03 184.255 51.95C184.725 52.23 185.125 51.89 185.125 51.58L185.135 51.59ZM181.845 48.72C181.735 49.23 181.285 49.3 181.005 48.99C181.025 48.74 181.275 48.69 181.845 48.72ZM171.115 40.17C171.115 40.3 171.175 40.41 171.215 40.47C171.305 40.6 171.285 40.67 171.245 40.71C171.205 40.75 171.135 40.77 171.005 40.68C170.945 40.63 170.825 40.58 170.705 40.58C170.485 40.58 170.375 40.72 170.375 40.84C170.375 40.96 170.485 41.1 170.705 41.1C170.835 41.1 170.945 41.04 171.005 41C171.135 40.91 171.205 40.93 171.245 40.97C171.285 41.01 171.225 41.45 171.175 41.8C170.815 41.88 170.635 42.17 170.635 42.34C170.635 42.78 171.095 43.03 171.375 43.18C171.645 43.04 172.115 42.78 172.115 42.34C172.115 42.17 171.935 41.88 171.575 41.8C171.525 41.46 171.465 41.01 171.505 40.97C171.545 40.93 171.615 40.91 171.745 41C171.805 41.05 171.925 41.1 172.045 41.1C172.265 41.1 172.375 40.96 172.375 40.84C172.375 40.72 172.265 40.58 172.045 40.58C171.915 40.58 171.805 40.64 171.745 40.68C171.615 40.77 171.545 40.75 171.505 40.71C171.465 40.67 171.445 40.6 171.535 40.47C171.585 40.41 171.635 40.29 171.635 40.17C171.635 39.95 171.495 39.84 171.375 39.84C171.255 39.84 171.115 39.95 171.115 40.17ZM171.375 43.42C171.075 43.42 170.835 43.66 170.835 43.96C170.835 44.26 171.075 44.5 171.375 44.5C171.675 44.5 171.915 44.26 171.915 43.96C171.915 43.66 171.675 43.42 171.375 43.42ZM171.375 48.54C173.515 48.54 174.715 48.95 174.715 48.95C174.715 47.87 174.715 47.27 175.335 47.36C174.995 46.46 176.455 46.1 176.455 44.92C176.455 44.14 175.905 44.06 175.745 44.06C175.265 44.06 175.335 44.37 174.925 44.37C174.875 44.37 174.825 44.35 174.825 44.39C174.825 44.53 174.935 44.76 175.125 44.76C175.385 44.76 175.385 44.5 175.575 44.5C175.655 44.5 175.775 44.56 175.775 44.83C175.775 45.33 175.445 45.89 175.055 46.32C174.965 46.2 174.845 46.12 174.695 46.12C174.465 46.12 174.265 46.36 174.265 46.66C174.265 46.77 174.285 46.85 174.325 46.94C174.195 47.01 174.075 47.05 173.995 47.05C173.815 47.05 173.555 46.98 173.555 46.59C173.555 45.73 174.695 44.98 174.695 43.89C174.695 43.37 174.355 42.86 173.625 42.86C172.845 42.86 172.995 43.56 172.325 43.56C172.295 43.56 172.265 43.56 172.265 43.6C172.265 43.65 172.385 44.04 172.725 44.04C173.095 44.04 173.195 43.4 173.535 43.4C173.655 43.4 173.835 43.47 173.835 43.9C173.835 44.24 173.665 44.79 173.425 45.31C173.335 45.22 173.215 45.16 173.085 45.16C172.795 45.16 172.585 45.44 172.585 45.77C172.585 45.98 172.665 46.19 172.805 46.31C172.635 46.53 172.465 46.7 172.225 46.7C171.765 46.7 171.565 46.44 171.565 46.15C171.565 45.84 172.135 45.73 172.135 45.25C172.135 44.92 171.915 44.74 171.715 44.74C171.495 44.74 171.375 44.88 171.355 44.88C171.335 44.88 171.215 44.74 170.995 44.74C170.785 44.74 170.575 44.92 170.575 45.25C170.575 45.73 171.145 45.85 171.145 46.15C171.145 46.44 170.935 46.7 170.485 46.7C170.255 46.7 170.075 46.52 169.905 46.31C170.045 46.17 170.125 45.97 170.125 45.77C170.125 45.43 169.915 45.16 169.625 45.16C169.485 45.16 169.375 45.22 169.285 45.31C169.045 44.78 168.875 44.24 168.875 43.9C168.875 43.47 169.055 43.4 169.175 43.4C169.505 43.4 169.605 44.04 169.985 44.04C170.325 44.04 170.445 43.65 170.445 43.6C170.445 43.58 170.425 43.56 170.385 43.56C169.715 43.56 169.855 42.86 169.085 42.86C168.365 42.86 168.015 43.37 168.015 43.89C168.015 44.98 169.155 45.73 169.155 46.59C169.155 46.97 168.895 47.05 168.715 47.05C168.625 47.05 168.515 47.01 168.385 46.94C168.425 46.84 168.445 46.77 168.445 46.66C168.445 46.36 168.245 46.12 168.015 46.12C167.875 46.12 167.755 46.2 167.665 46.32C167.275 45.89 166.945 45.34 166.945 44.83C166.945 44.57 167.065 44.5 167.145 44.5C167.325 44.5 167.335 44.76 167.595 44.76C167.785 44.76 167.895 44.53 167.895 44.39C167.895 44.35 167.835 44.37 167.795 44.37C167.385 44.37 167.455 44.06 166.975 44.06C166.815 44.06 166.265 44.15 166.265 44.92C166.265 46.1 167.725 46.46 167.385 47.36C168.005 47.27 167.995 47.87 168.005 48.95C168.005 48.95 169.195 48.54 171.335 48.54H171.375ZM167.465 50.14C166.885 50.27 166.465 50.39 166.285 50.44C166.285 50.18 166.385 49.94 166.625 49.9C166.655 49.9 166.665 49.85 166.625 49.84C166.105 49.5 165.835 50.15 165.825 50.18C165.645 50.16 165.365 50.22 165.365 50.47C165.365 51.21 163.665 51.62 163.275 51.69C163.975 51.95 164.255 52.83 164.255 52.83C164.755 52.33 165.345 51.89 165.475 51.89C165.605 51.89 165.655 52.06 165.665 52.15C165.665 52.18 165.695 52.19 165.725 52.17C165.985 51.78 165.865 51.69 165.835 51.57C165.815 51.48 165.835 51.14 166.225 51.18V56.13L166.025 56.17C165.935 56.19 165.205 55.57 164.385 54.99C163.555 54.41 163.115 54.76 162.165 55.27C160.925 55.94 159.675 55.33 159.675 55.33C158.615 56.09 158.245 58.3 158.245 58.3C158.025 58.39 157.675 58.48 157.345 58.48C156.525 58.48 156.385 57.98 156.385 57.7C156.385 56.44 157.965 55.91 157.965 54.67C157.965 54.37 157.825 53.15 156.315 53.15H154.965C154.395 53.15 154.265 52.74 154.185 52.59C154.155 52.53 154.095 52.57 154.125 52.61C154.165 52.71 154.065 52.87 154.065 53.19C154.065 53.69 154.365 54 154.915 54C155.165 54 155.405 53.93 155.475 53.88C155.525 53.85 155.555 53.9 155.535 53.93C155.295 54.21 155.275 54.74 155.375 54.86C155.395 54.89 155.435 54.88 155.435 54.86C155.575 54.33 156.065 53.83 156.735 53.83C157.555 53.83 157.555 54.53 157.555 54.69C157.555 55.7 155.785 56.43 155.785 57.83C155.785 59.23 157.275 59.53 158.125 59.32C158.075 60.73 156.465 61.21 156.415 60.2C156.415 60.15 156.375 60.14 156.355 60.2C156.155 60.7 156.235 61.14 156.855 61.27C156.895 61.27 156.875 61.3 156.835 61.33C156.215 61.72 156.545 63.27 156.575 63.73C156.625 64.39 155.965 64.31 155.915 64.29C155.895 64.29 155.855 64.29 155.915 64.35C156.375 64.92 156.955 64.4 156.955 64.4C157.385 64.54 157.125 64.9 156.825 65.1C156.775 65.13 156.785 65.16 156.825 65.16C156.885 65.16 157.565 65.22 157.685 64.69C157.985 65.04 158.425 64.91 158.505 64.87C158.635 64.81 159.265 64.57 159.325 65.28C159.325 65.33 159.355 65.3 159.385 65.28C159.855 64.68 159.355 64.31 159.065 64.27C159.085 64.24 159.465 63.92 159.805 64.36C159.825 64.39 159.855 64.4 159.855 64.34C159.895 63.58 159.275 63.52 158.875 63.84C158.855 63.76 158.725 63.34 159.325 63.35C159.345 63.35 159.365 63.33 159.345 63.3C158.885 62.8 158.495 63.25 158.405 63.36C158.195 63.61 157.675 63.5 157.625 63.5C157.785 60.87 160.105 61.8 160.425 60.52C160.445 60.46 160.475 60.48 160.475 60.5C160.565 60.81 161.345 60.85 161.495 60.24C161.495 60.2 161.495 60.18 161.475 60.2C160.805 60.87 159.295 58.78 161.355 57.07C163.115 55.62 164.695 56.43 165.295 56.9C165.325 57.11 165.195 57.18 165.115 57.2C165.085 57.2 165.075 57.23 165.115 57.26C165.285 57.32 165.515 57.3 165.625 57.15C166.005 57.41 165.685 57.75 165.525 57.84C165.485 57.86 165.505 57.89 165.525 57.9C165.865 57.96 166.155 57.61 166.175 57.4L166.235 57.43V58.93C166.235 61.06 168.695 61.35 171.385 63.15C174.085 61.34 176.525 61.05 176.525 58.93V57.43L176.585 57.4C176.605 57.6 176.885 57.96 177.235 57.9C177.265 57.9 177.285 57.87 177.235 57.84C177.085 57.74 176.755 57.42 177.135 57.15C177.245 57.31 177.475 57.33 177.645 57.26C177.695 57.24 177.685 57.21 177.645 57.2C177.565 57.18 177.435 57.1 177.465 56.9C178.065 56.42 179.645 55.61 181.405 57.07C183.465 58.77 181.955 60.86 181.285 60.2C181.255 60.17 181.255 60.2 181.265 60.24C181.405 60.86 182.195 60.81 182.285 60.5C182.285 60.48 182.325 60.45 182.335 60.52C182.655 61.8 184.965 60.86 185.135 63.5C185.085 63.5 184.565 63.6 184.355 63.36C184.265 63.26 183.885 62.8 183.415 63.3C183.385 63.33 183.415 63.35 183.435 63.35C184.035 63.33 183.905 63.76 183.885 63.84C183.485 63.51 182.865 63.58 182.905 64.34C182.905 64.4 182.925 64.4 182.955 64.36C183.295 63.92 183.675 64.24 183.695 64.27C183.415 64.31 182.905 64.68 183.375 65.28C183.395 65.3 183.425 65.34 183.435 65.28C183.495 64.58 184.125 64.8 184.255 64.87C184.345 64.92 184.785 65.05 185.075 64.69C185.195 65.23 185.865 65.17 185.935 65.16C185.985 65.16 185.985 65.13 185.935 65.1C185.645 64.91 185.375 64.54 185.805 64.4C185.805 64.4 186.385 64.92 186.845 64.35C186.885 64.3 186.865 64.29 186.845 64.29C186.785 64.31 186.135 64.39 186.185 63.73C186.215 63.27 186.555 61.72 185.925 61.33C185.885 61.31 185.865 61.28 185.905 61.27C186.525 61.13 186.605 60.69 186.405 60.2C186.385 60.14 186.345 60.15 186.345 60.2C186.295 61.21 184.685 60.73 184.635 59.32C185.495 59.54 186.975 59.24 186.975 57.83C186.975 56.42 185.205 55.7 185.205 54.69C185.205 54.52 185.205 53.83 186.025 53.83C186.695 53.83 187.195 54.33 187.325 54.86C187.325 54.88 187.355 54.89 187.385 54.86C187.485 54.73 187.465 54.21 187.225 53.93C187.205 53.91 187.225 53.85 187.285 53.88C187.355 53.93 187.595 54 187.845 54C188.395 54 188.695 53.7 188.695 53.19C188.695 52.88 188.585 52.72 188.635 52.61C188.655 52.56 188.595 52.53 188.575 52.59C188.495 52.75 188.355 53.15 187.795 53.15H186.445C184.935 53.15 184.795 54.37 184.795 54.67C184.795 55.91 186.375 56.45 186.375 57.7C186.375 58 186.225 58.48 185.415 58.48C185.075 58.48 184.725 58.38 184.515 58.3C184.515 58.3 184.155 56.1 183.085 55.33C183.085 55.33 181.835 55.94 180.595 55.27C179.655 54.76 179.205 54.41 178.375 54.99C177.545 55.57 176.825 56.18 176.735 56.17L176.535 56.13V51.18C176.915 51.14 176.945 51.48 176.925 51.57C176.905 51.68 176.785 51.78 177.035 52.17C177.055 52.2 177.085 52.19 177.095 52.15C177.095 52.05 177.155 51.89 177.285 51.89C177.415 51.89 178.005 52.33 178.505 52.83C178.505 52.83 178.795 51.96 179.485 51.69C179.095 51.63 177.395 51.22 177.395 50.47C177.395 50.22 177.115 50.17 176.935 50.18C176.935 50.16 176.645 49.5 176.135 49.84C176.115 49.86 176.115 49.9 176.135 49.9C176.365 49.96 176.465 50.19 176.475 50.44C175.975 50.29 173.875 49.7 171.375 49.7C170.155 49.7 169.045 49.84 168.155 50V51.71H167.455V50.13M162.855 67.72C162.675 67.65 162.555 67.53 162.555 67.28V66.22C162.255 66.12 161.415 65.8 159.745 65.8C158.365 65.8 157.925 66.11 157.905 66.22L157.535 68.24C157.535 68.24 158.095 67.73 160.105 67.86C162.525 68.01 165.025 69.44 165.025 67.92V67.02C163.135 67.02 162.855 67.64 162.855 67.72ZM177.735 67.02V67.92C177.735 69.44 180.235 68.02 182.655 67.86C184.665 67.73 185.225 68.24 185.225 68.24L184.855 66.21C184.835 66.1 184.395 65.79 183.015 65.79C181.355 65.79 180.515 66.11 180.205 66.21V67.27C180.205 67.51 180.085 67.63 179.905 67.71C179.905 67.62 179.635 67.01 177.735 67.01V67.02ZM171.375 66.1C175.275 66.1 179.225 66.3 179.735 66.89C179.775 66.94 179.795 66.89 179.795 66.85V64.79C179.795 64.19 175.715 63.84 171.375 63.84C167.035 63.84 162.955 64.19 162.955 64.79V66.85C162.955 66.85 162.975 66.93 163.015 66.89C163.555 66.31 167.505 66.1 171.395 66.1H171.375ZM167.905 56.38L167.515 56.28L167.485 56.33L167.025 56.13H167.435C167.435 56.13 167.475 56.11 167.455 56.09C167.275 55.91 167.105 55.75 167.105 55.75C167.105 55.75 167.285 55.82 167.555 55.92C167.585 55.92 167.595 55.92 167.575 55.89C167.445 55.71 167.275 55.45 167.275 55.45C167.275 55.45 167.645 55.7 167.715 55.75C167.735 55.77 167.755 55.75 167.745 55.73C167.645 55.49 167.535 55.21 167.535 55.21L167.935 55.59C167.935 55.59 167.975 55.59 167.965 55.57C167.925 55.39 167.855 55.05 167.855 55.05L168.155 55.48C168.155 55.48 168.195 55.5 168.195 55.48C168.195 55.39 168.195 55.01 168.195 55.01C168.195 55.01 168.325 55.3 168.375 55.44C168.395 55.47 168.405 55.47 168.425 55.44C168.445 55.39 168.575 55.07 168.575 55.07L168.595 55.57L168.535 55.59L168.455 56.18C169.035 56.04 169.775 55.04 170.335 55.04C171.005 55.04 171.245 55.82 172.475 55.42C172.785 55.88 172.895 56.28 173.015 56.84C173.495 57.29 174.155 57.14 174.155 56.66C174.155 56.02 173.455 55.9 173.455 55.23C173.455 54.93 173.665 54.5 174.235 54.5C174.535 54.5 174.975 54.63 175.235 54.63C175.535 54.63 175.605 54.41 175.635 54.32C175.655 54.26 175.745 54.27 175.735 54.32C175.735 54.38 175.765 54.47 175.765 54.62C175.765 55.04 175.145 55.1 175.075 55.04C175.045 55.02 175.015 55.04 175.045 55.07C175.145 55.14 175.115 55.4 175.005 55.56C174.985 55.58 174.975 55.58 174.975 55.56C174.915 55.26 174.555 54.88 174.235 54.88C174.125 54.88 173.895 54.94 173.895 55.22C173.895 55.6 174.655 55.95 174.655 56.73C174.655 57.51 173.845 57.75 173.035 57.54C173.055 58.32 174.215 58.77 174.245 58.22C174.245 58.18 174.265 58.2 174.275 58.22C174.445 58.46 174.375 58.64 174.145 58.73C174.345 58.82 174.385 59.23 174.445 59.47C174.535 59.84 174.915 59.63 174.945 59.62C174.965 59.6 174.975 59.62 174.965 59.64C174.825 60.02 174.425 59.87 174.425 59.87C174.225 60.01 174.465 60.14 174.645 60.2C174.665 60.2 174.665 60.22 174.645 60.24C174.505 60.29 174.225 60.38 174.075 60.14C173.975 60.4 173.755 60.39 173.675 60.39C173.525 60.39 173.425 60.54 173.455 60.75C173.455 60.77 173.455 60.77 173.435 60.77C173.085 60.54 173.285 60.26 173.435 60.19C173.415 60.17 173.165 60.07 173.055 60.36C173.055 60.38 173.035 60.38 173.025 60.36C172.875 59.94 173.205 59.82 173.445 59.93C173.425 59.87 173.305 59.67 172.985 59.74C172.965 59.74 172.965 59.74 172.965 59.72C173.025 59.59 173.175 59.41 173.465 59.59C173.615 59.69 173.875 59.55 173.895 59.53C173.375 58.5 172.375 59.36 172.145 58.55C172.145 58.53 172.125 58.52 172.105 58.57C172.045 58.74 171.605 58.75 171.525 58.42C171.525 58.4 171.525 58.39 171.545 58.4C171.605 58.46 171.745 58.52 171.925 58.26C172.045 58.08 172.065 57.85 172.065 57.7C172.065 57.08 171.445 56.02 170.465 56.02C169.845 56.02 169.185 56.26 168.685 56.62L169.145 56.72C169.105 57.18 168.655 57.46 168.245 57.34L168.315 56.81C168.245 56.83 168.065 56.9 167.975 57.03H167.955C167.875 56.73 168.125 56.57 168.195 56.54C167.975 56.54 167.855 56.69 167.815 56.75H167.795C167.815 56.69 167.775 56.53 167.885 56.42L167.905 56.38ZM169.275 59.96C169.095 60.18 168.945 59.96 168.715 59.96C168.495 59.96 168.455 60.14 168.455 60.22C168.455 60.24 168.455 60.24 168.435 60.22C168.185 59.88 168.465 59.7 168.625 59.68C168.605 59.66 168.365 59.5 168.205 59.72C168.205 59.74 168.185 59.72 168.185 59.72C168.185 59.3 168.505 59.27 168.725 59.46C168.765 59.3 168.665 59.2 168.485 59.19C168.465 59.19 168.465 59.17 168.465 59.17C168.535 59.09 168.605 59.06 168.685 59.06C168.915 59.06 168.945 59.36 169.105 59.36C169.325 59.36 169.655 59.06 169.685 59.02C169.685 59 169.465 58.41 169.505 58.06C169.505 58.04 169.505 58.04 169.485 58.06C169.375 58.12 169.105 58.12 169.105 57.78C169.105 57.76 169.105 57.75 169.125 57.78C169.245 57.95 169.445 57.76 169.545 57.64C169.645 57.52 170.225 56.69 170.985 56.69C171.155 56.69 171.365 56.79 171.545 56.91C171.285 57.23 171.545 57.53 171.735 57.49C171.755 57.49 171.755 57.51 171.735 57.51C170.725 57.89 170.275 58.04 170.275 58.89C170.275 59.33 170.425 59.58 170.685 59.51C170.705 59.51 170.705 59.51 170.685 59.53C170.585 59.64 170.485 59.68 170.395 59.68C170.185 59.68 170.145 59.57 170.035 59.57C169.925 59.57 169.545 59.79 169.545 59.98C169.545 60.05 169.595 60.15 169.725 60.23V60.25C169.615 60.25 169.315 60.27 169.255 59.99L169.275 59.96ZM171.925 51.76C171.615 51.74 171.405 51.81 171.425 51.91C171.575 52.07 171.775 52.05 171.925 51.76ZM170.765 52.54C170.985 52.48 171.225 52.51 171.265 52.52C171.305 52.53 171.295 52.58 171.265 52.59C170.805 52.65 170.775 52.86 170.485 52.86C170.295 52.86 170.075 52.66 170.155 52.37C170.155 52.33 170.195 52.33 170.205 52.37C170.235 52.5 170.425 52.63 170.785 52.54H170.765ZM164.735 62.82C165.035 63.21 165.335 62.84 165.745 62.84C165.945 62.84 166.185 62.9 166.225 63.3C166.225 63.32 166.245 63.32 166.265 63.3C166.705 62.7 166.205 62.36 165.915 62.32C165.975 62.26 166.405 62 166.685 62.39C166.705 62.41 166.735 62.41 166.735 62.37C166.735 61.61 166.165 61.55 165.755 61.88C165.675 61.58 165.895 61.39 166.185 61.39C166.215 61.39 166.235 61.37 166.215 61.35C165.705 60.81 165.325 61.49 165.235 61.6C165.035 61.87 164.305 61.36 164.015 61.06C164.015 61.06 164.655 60.39 164.655 59.77C164.655 59.73 164.655 59.68 164.655 59.66C164.655 59.64 164.655 59.64 164.675 59.64C164.735 59.68 164.825 59.7 164.915 59.7C165.055 59.7 165.335 59.65 165.335 59.13C165.335 59.09 165.315 59.09 165.305 59.11C165.225 59.22 165.145 59.25 165.085 59.25C164.565 59.25 163.485 57.52 162.205 57.52C161.865 57.52 161.235 57.76 160.925 58.1C161.075 58.19 161.105 58.38 161.095 58.52C161.075 58.74 160.895 58.85 160.715 58.9C160.685 58.9 160.685 58.93 160.715 58.95C161.365 59.2 162.535 59.64 162.805 59.87C163.115 60.14 163.065 60.65 162.875 61.37C162.695 62.05 162.325 61.96 162.175 61.94C162.155 61.94 162.155 61.94 162.155 61.96C162.325 62.17 162.525 62.24 162.695 62.24C163.035 62.24 163.155 62.03 163.325 62.03C163.615 62.03 164.225 62.45 164.225 62.77C164.225 62.95 164.085 63.11 163.905 63.23V63.25C164.045 63.27 164.605 63.32 164.725 62.81L164.735 62.82ZM178.845 63.26C178.845 63.26 178.865 63.24 178.845 63.24C178.665 63.12 178.525 62.96 178.525 62.78C178.525 62.46 179.135 62.04 179.425 62.04C179.605 62.04 179.725 62.25 180.055 62.25C180.235 62.25 180.435 62.18 180.595 61.97C180.615 61.95 180.595 61.94 180.575 61.95C180.435 61.97 180.055 62.06 179.875 61.38C179.695 60.67 179.625 60.16 179.945 59.88C180.205 59.65 181.385 59.21 182.035 58.96C182.065 58.94 182.065 58.92 182.035 58.91C181.855 58.86 181.685 58.75 181.655 58.53C181.635 58.39 181.675 58.21 181.825 58.11C181.505 57.77 180.875 57.53 180.535 57.53C179.255 57.53 178.175 59.26 177.655 59.26C177.595 59.26 177.505 59.24 177.435 59.12C177.415 59.1 177.405 59.1 177.405 59.14C177.405 59.66 177.685 59.71 177.825 59.71C177.905 59.71 178.005 59.69 178.065 59.65C178.085 59.65 178.085 59.65 178.085 59.67C178.085 59.69 178.085 59.74 178.085 59.78C178.085 60.4 178.725 61.07 178.725 61.07C178.435 61.37 177.705 61.88 177.505 61.61C177.415 61.5 177.045 60.82 176.525 61.36C176.505 61.38 176.525 61.4 176.555 61.4C176.845 61.4 177.065 61.59 176.985 61.89C176.565 61.56 176.005 61.62 176.005 62.38C176.005 62.41 176.035 62.42 176.055 62.4C176.325 62.01 176.755 62.27 176.815 62.33C176.525 62.37 176.035 62.71 176.465 63.31C176.485 63.33 176.495 63.33 176.505 63.31C176.555 62.92 176.795 62.85 176.985 62.85C177.385 62.85 177.685 63.22 177.995 62.83C178.125 63.34 178.695 63.29 178.825 63.27L178.845 63.26ZM168.515 53.29C168.475 53.35 168.335 53.29 168.295 53.27C168.325 53.34 168.455 53.56 168.645 53.56C168.735 53.56 168.865 53.51 168.895 53.45C168.895 53.45 169.645 53.7 170.015 53.79C169.875 53.98 169.785 54.21 169.755 54.46C169.455 54.28 168.255 53.64 168.255 53.64L167.885 54.15C167.825 54.23 167.525 54.01 167.585 53.93L167.865 53.54C167.765 53.44 167.545 53.5 167.485 53.52C167.485 53.52 167.465 53.52 167.485 53.5C167.525 53.42 167.665 53.19 168.015 53.29C168.015 53.07 167.695 53.15 167.605 53.17C167.695 53.07 167.955 52.87 168.245 53.04L168.375 52.86L168.115 52.59L168.275 52.37L168.455 52.61L169.835 50.71C169.835 50.71 170.145 50.58 170.245 50.56C170.245 50.66 170.265 50.95 170.245 51L168.885 52.91L169.175 53.01L169.015 53.23L168.675 53.07L168.535 53.28L168.515 53.29ZM173.375 52.98C173.375 53.16 173.475 53.41 173.715 53.33H173.735C173.705 53.52 173.355 53.7 173.195 53.47C173.055 53.77 173.095 54.05 173.385 54.21C173.405 54.21 173.405 54.24 173.385 54.26C173.205 54.39 172.925 54.36 172.795 54.11C172.545 54.29 172.575 54.69 172.735 54.83C172.735 54.83 172.045 55.24 171.425 54.95C171.005 54.75 170.675 54.49 170.135 54.54C170.205 53.79 170.585 53.6 171.275 53.48C171.825 53.39 171.895 53.14 171.815 52.94C171.635 52.89 171.285 53.06 171.285 53.06C171.225 52.96 171.305 52.85 171.305 52.85C171.275 52.81 171.255 52.67 171.255 52.67C171.635 52.67 171.715 52.58 171.715 52.58C171.785 52.18 171.375 52.14 171.065 52.36C170.925 52.23 170.945 52.06 170.945 52.06C170.905 52.04 170.875 51.97 170.875 51.94C170.875 51.84 171.335 51.59 171.455 51.56C171.485 51.42 171.645 51.24 172.135 51.29C172.195 51.16 172.095 50.69 172.035 50.57C172.015 50.53 172.035 50.51 172.085 50.54C172.255 50.64 172.425 51.04 172.545 51.05C172.545 51.05 173.085 50.76 173.115 50.78C173.135 50.8 173.215 51.4 173.215 51.4C173.285 51.49 173.715 51.4 173.895 51.48C173.945 51.5 173.945 51.54 173.895 51.54C173.755 51.56 173.315 51.76 173.245 51.88C173.505 52.26 173.385 52.81 173.385 52.96L173.375 52.98Z" fill="#F5F5F5"/>
</svg>
