<svg width="30" height="30" viewBox="0 0 30 30" fill="none" xmlns="http://www.w3.org/2000/svg">
<circle cx="15" cy="15" r="15" fill="#333333"/>
<path d="M15.3375 16.9417L11.9542 20.325C11.7403 20.5389 11.4681 20.6458 11.1375 20.6458C10.8069 20.6458 10.5347 20.5389 10.3208 20.325C10.1069 20.1111 10 19.8389 10 19.5083C10 19.1778 10.1069 18.9056 10.3208 18.6917L13.7042 15.3083L10.3208 11.9542C10.1069 11.7403 10 11.4681 10 11.1375C10 10.8069 10.1069 10.5347 10.3208 10.3208C10.5347 10.1069 10.8069 10 11.1375 10C11.4681 10 11.7403 10.1069 11.9542 10.3208L15.3375 13.7042L18.6917 10.3208C18.9056 10.1069 19.1778 10 19.5083 10C19.8389 10 20.1111 10.1069 20.325 10.3208C20.5583 10.5542 20.675 10.8313 20.675 11.1521C20.675 11.4729 20.5583 11.7403 20.325 11.9542L16.9417 15.3083L20.325 18.6917C20.5389 18.9056 20.6458 19.1778 20.6458 19.5083C20.6458 19.8389 20.5389 20.1111 20.325 20.325C20.0917 20.5583 19.8146 20.675 19.4938 20.675C19.1729 20.675 18.9056 20.5583 18.6917 20.325L15.3375 16.9417Z" fill="#B4B4B4"/>
</svg>
