<svg width="32" height="32" viewBox="0 0 32 32" fill="none" xmlns="http://www.w3.org/2000/svg">
<g id="error">
<mask id="mask0_4563_1980" style="mask-type:alpha" maskUnits="userSpaceOnUse" x="0" y="0" width="32" height="32">
<rect id="Bounding box" width="32" height="32" fill="#D9D9D9"/>
</mask>
<g mask="url(#mask0_4563_1980)">
<path id="error_2" d="M15.9993 22.6667C16.3771 22.6667 16.6938 22.5389 16.9493 22.2833C17.2049 22.0278 17.3327 21.7111 17.3327 21.3333C17.3327 20.9555 17.2049 20.6389 16.9493 20.3833C16.6938 20.1278 16.3771 20 15.9993 20C15.6216 20 15.3049 20.1278 15.0493 20.3833C14.7938 20.6389 14.666 20.9555 14.666 21.3333C14.666 21.7111 14.7938 22.0278 15.0493 22.2833C15.3049 22.5389 15.6216 22.6667 15.9993 22.6667ZM15.9993 17.3333C16.3771 17.3333 16.6938 17.2055 16.9493 16.95C17.2049 16.6944 17.3327 16.3778 17.3327 16V10.6667C17.3327 10.2889 17.2049 9.97221 16.9493 9.71666C16.6938 9.4611 16.3771 9.33332 15.9993 9.33332C15.6216 9.33332 15.3049 9.4611 15.0493 9.71666C14.7938 9.97221 14.666 10.2889 14.666 10.6667V16C14.666 16.3778 14.7938 16.6944 15.0493 16.95C15.3049 17.2055 15.6216 17.3333 15.9993 17.3333ZM15.9993 29.3333C14.1549 29.3333 12.4216 28.9833 10.7993 28.2833C9.17713 27.5833 7.76602 26.6333 6.56602 25.4333C5.36602 24.2333 4.41602 22.8222 3.71602 21.2C3.01602 19.5778 2.66602 17.8444 2.66602 16C2.66602 14.1555 3.01602 12.4222 3.71602 10.8C4.41602 9.17777 5.36602 7.76666 6.56602 6.56666C7.76602 5.36666 9.17713 4.41666 10.7993 3.71666C12.4216 3.01666 14.1549 2.66666 15.9993 2.66666C17.8438 2.66666 19.5771 3.01666 21.1993 3.71666C22.8216 4.41666 24.2327 5.36666 25.4327 6.56666C26.6327 7.76666 27.5827 9.17777 28.2827 10.8C28.9827 12.4222 29.3327 14.1555 29.3327 16C29.3327 17.8444 28.9827 19.5778 28.2827 21.2C27.5827 22.8222 26.6327 24.2333 25.4327 25.4333C24.2327 26.6333 22.8216 27.5833 21.1993 28.2833C19.5771 28.9833 17.8438 29.3333 15.9993 29.3333Z" fill="#D52B1E"/>
</g>
</g>
</svg>
