<svg width="24" height="24" viewBox="0 0 24 24" fill="none" xmlns="http://www.w3.org/2000/svg">
<g id="Frame 5771439">
<g id="health_and_safety">
<mask id="mask0_2056_19921" style="mask-type:alpha" maskUnits="userSpaceOnUse" x="0" y="0" width="24" height="24">
<rect id="Bounding box" width="24" height="24" fill="#D9D9D9"/>
</mask>
<g mask="url(#mask0_2056_19921)">
<path id="health_and_safety_2" d="M10.75 12.7502V14.4907C10.75 14.7059 10.8228 14.8862 10.9685 15.0317C11.114 15.1774 11.2943 15.2502 11.5095 15.2502H12.4905C12.7097 15.2502 12.891 15.1774 13.0345 15.0317C13.1782 14.8862 13.25 14.7059 13.25 14.4907V12.7502H14.9905C15.2097 12.7502 15.391 12.6774 15.5345 12.5317C15.6782 12.3862 15.75 12.2059 15.75 11.9907V11.0097C15.75 10.7905 15.6782 10.6092 15.5345 10.4657C15.391 10.322 15.2097 10.2502 14.9905 10.2502H13.25V8.50968C13.25 8.29052 13.1782 8.10918 13.0345 7.96568C12.891 7.82202 12.7097 7.75018 12.4905 7.75018H11.5095C11.2943 7.75018 11.114 7.82202 10.9685 7.96568C10.8228 8.10918 10.75 8.29052 10.75 8.50968V10.2502H9.0095C8.79433 10.2502 8.614 10.322 8.4685 10.4657C8.32283 10.6092 8.25 10.7905 8.25 11.0097V11.9907C8.25 12.2059 8.32283 12.3862 8.4685 12.5317C8.614 12.6774 8.79433 12.7502 9.0095 12.7502H10.75ZM12 21.3712C11.8962 21.3712 11.7942 21.3629 11.6942 21.3462C11.5942 21.3295 11.4974 21.3045 11.4037 21.2712C9.29492 20.5212 7.61708 19.1914 6.37025 17.2819C5.12342 15.3723 4.5 13.3117 4.5 11.1002V6.59643C4.5 6.2166 4.60925 5.87468 4.82775 5.57068C5.04608 5.26685 5.3285 5.0466 5.675 4.90993L11.3672 2.78493C11.5814 2.70793 11.7923 2.66943 12 2.66943C12.2077 2.66943 12.4186 2.70793 12.6328 2.78493L18.325 4.90993C18.6715 5.0466 18.9539 5.26685 19.1723 5.57068C19.3908 5.87468 19.5 6.2166 19.5 6.59643V11.1002C19.5 13.3117 18.8766 15.3723 17.6298 17.2819C16.3829 19.1914 14.7051 20.5212 12.5963 21.2712C12.5026 21.3045 12.4058 21.3295 12.3058 21.3462C12.2058 21.3629 12.1038 21.3712 12 21.3712ZM12 19.9002C13.7333 19.3502 15.1667 18.2502 16.3 16.6002C17.4333 14.9502 18 13.1168 18 11.1002V6.58668C18 6.52268 17.9823 6.46502 17.947 6.41368C17.9118 6.36235 17.8622 6.32385 17.798 6.29818L12.1058 4.17318C12.0738 4.16035 12.0385 4.15393 12 4.15393C11.9615 4.15393 11.9262 4.16035 11.8942 4.17318L6.202 6.29818C6.13783 6.32385 6.08817 6.36235 6.053 6.41368C6.01767 6.46502 6 6.52268 6 6.58668V11.1002C6 13.1168 6.56667 14.9502 7.7 16.6002C8.83333 18.2502 10.2667 19.3502 12 19.9002Z" fill="#154273"/>
</g>
</g>
</g>
</svg>
