<svg width="32" height="24" viewBox="0 0 32 24" fill="none" xmlns="http://www.w3.org/2000/svg">
<g id="notification icons">
<path id="Vector" d="M23.8491 17.7994L17.1589 4.74559C16.8593 4.0954 16.1104 3.84533 15.5113 4.0954C15.2118 4.24545 15.0121 4.4455 14.8623 4.74559L8.17211 17.7994C7.67285 18.7496 8.32189 20 9.32042 20H22.6508C23.6993 20 24.2984 18.7997 23.8491 17.7994ZM15.2118 8.34663L16.9093 8.19659L16.7595 12.3978V14.3984L15.2118 14.4484V8.34663ZM17.0091 16.1489C17.0091 16.449 16.9093 16.7491 16.7595 16.9991C16.5598 17.2492 16.3101 17.3492 16.0106 17.3492C15.711 17.3492 15.4614 17.2492 15.2617 17.0491C15.062 16.7991 14.9621 16.449 15.0121 16.1489C15.0121 15.8488 15.1119 15.5487 15.2617 15.2986C15.4115 15.0486 15.711 14.9485 16.0106 14.9485C16.3101 14.9485 16.5598 15.0486 16.7595 15.2486C16.9592 15.4987 17.059 15.8488 17.0091 16.1489Z" fill="#007BC7"/>
</g>
</svg>
