<svg width="24" height="24" viewBox="0 0 24 24" fill="none" xmlns="http://www.w3.org/2000/svg">
<g id="Frame 5771439">
<g id="person">
<mask id="mask0_2056_19865" style="mask-type:alpha" maskUnits="userSpaceOnUse" x="0" y="0" width="24" height="25">
<rect id="Bounding box" y="0.000488281" width="24" height="24" fill="#D9D9D9"/>
</mask>
<g mask="url(#mask0_2056_19865)">
<path id="person_2" d="M12 11.6929C11.0375 11.6929 10.2136 11.3502 9.52825 10.6649C8.84275 9.97937 8.5 9.15537 8.5 8.19287C8.5 7.23037 8.84275 6.40645 9.52825 5.72112C10.2136 5.03562 11.0375 4.69287 12 4.69287C12.9625 4.69287 13.7864 5.03562 14.4718 5.72112C15.1573 6.40645 15.5 7.23037 15.5 8.19287C15.5 9.15537 15.1573 9.97937 14.4718 10.6649C13.7864 11.3502 12.9625 11.6929 12 11.6929ZM4.5 17.7891V17.0851C4.5 16.5955 4.633 16.142 4.899 15.7246C5.165 15.3073 5.5205 14.9865 5.9655 14.7621C6.95383 14.2776 7.95092 13.9142 8.95675 13.6719C9.96258 13.4295 10.977 13.3084 12 13.3084C13.023 13.3084 14.0374 13.4295 15.0433 13.6719C16.0491 13.9142 17.0462 14.2776 18.0345 14.7621C18.4795 14.9865 18.835 15.3073 19.101 15.7246C19.367 16.142 19.5 16.5955 19.5 17.0851V17.7891C19.5 18.2108 19.3523 18.5695 19.0568 18.8651C18.7613 19.1606 18.4026 19.3084 17.9808 19.3084H6.01925C5.59742 19.3084 5.23875 19.1606 4.94325 18.8651C4.64775 18.5695 4.5 18.2108 4.5 17.7891ZM6 17.8084H18V17.0851C18 16.8826 17.9413 16.6951 17.824 16.5226C17.7067 16.3503 17.5474 16.2096 17.3462 16.1006C16.4846 15.6763 15.6061 15.3548 14.7107 15.1361C13.8152 14.9176 12.9117 14.8084 12 14.8084C11.0883 14.8084 10.1848 14.9176 9.28925 15.1361C8.39392 15.3548 7.51542 15.6763 6.65375 16.1006C6.45258 16.2096 6.29333 16.3503 6.176 16.5226C6.05867 16.6951 6 16.8826 6 17.0851V17.8084ZM12 10.1929C12.55 10.1929 13.0208 9.99704 13.4125 9.60537C13.8042 9.2137 14 8.74287 14 8.19287C14 7.64287 13.8042 7.17204 13.4125 6.78037C13.0208 6.3887 12.55 6.19287 12 6.19287C11.45 6.19287 10.9792 6.3887 10.5875 6.78037C10.1958 7.17204 10 7.64287 10 8.19287C10 8.74287 10.1958 9.2137 10.5875 9.60537C10.9792 9.99704 11.45 10.1929 12 10.1929Z" fill="#999999"/>
</g>
</g>
</g>
</svg>
