<svg width="50" height="50" viewBox="0 0 50 50" fill="none" xmlns="http://www.w3.org/2000/svg">
<path d="M19.2587 42.7083C18.7166 42.7083 18.2661 42.5277 17.9071 42.1666C17.5477 41.8059 17.368 41.3586 17.368 40.825V32.6323H9.17533C8.64165 32.6323 8.19442 32.4517 7.83366 32.0906C7.47255 31.7298 7.29199 31.2826 7.29199 30.7489V19.2781C7.29199 18.7364 7.47255 18.2859 7.83366 17.9265C8.19442 17.5675 8.64165 17.388 9.17533 17.388H17.368V9.17496C17.368 8.64128 17.5486 8.19406 17.9097 7.83329C18.2705 7.47218 18.7177 7.29163 19.2514 7.29163H30.7222C31.2639 7.29163 31.7144 7.47218 32.0738 7.83329C32.4328 8.19406 32.6123 8.64128 32.6123 9.17496V17.388H40.8253C41.359 17.388 41.8062 17.5684 42.167 17.9291C42.5281 18.2902 42.7087 18.7375 42.7087 19.2708V30.7416C42.7087 31.2836 42.5281 31.7342 42.167 32.0932C41.8062 32.4526 41.359 32.6323 40.8253 32.6323H32.6123V40.825C32.6123 41.3586 32.4319 41.8059 32.0712 42.1666C31.71 42.5277 31.2628 42.7083 30.7295 42.7083H19.2587ZM20.493 39.5833H29.4873V29.5073H39.5837V20.513H29.4873V10.4166H20.493V20.513H10.417V29.5073H20.493V39.5833Z" fill="#6D6D6D"/>
</svg>
