<svg width="24" height="24" viewBox="0 0 24 24" fill="none" xmlns="http://www.w3.org/2000/svg">
<g id="syringe">
<mask id="mask0_1357_42816" style="mask-type:alpha" maskUnits="userSpaceOnUse" x="0" y="0" width="24" height="24">
<rect id="Bounding box" width="24" height="24" fill="#D9D9D9"/>
</mask>
<g mask="url(#mask0_1357_42816)">
<path id="syringe_2" d="M4.55415 10.9345C4.41565 10.7858 4.3464 10.6093 4.3464 10.4048C4.3464 10.2003 4.41565 10.0205 4.55415 9.8655L7.19065 7.22875L5.96165 6.00975L5.48865 6.48275C5.33348 6.63792 5.15365 6.7155 4.94915 6.7155C4.74465 6.7155 4.56807 6.63792 4.4194 6.48275C4.27457 6.34425 4.20215 6.17017 4.20215 5.9605C4.20215 5.751 4.27457 5.57383 4.4194 5.429L6.4194 3.4385C6.56806 3.28333 6.74465 3.20575 6.94915 3.20575C7.15365 3.20575 7.33348 3.28333 7.48865 3.4385C7.62715 3.577 7.6964 3.751 7.6964 3.9605C7.6964 4.17017 7.62715 4.34425 7.48865 4.48275L7.0059 4.9655L8.2349 6.18475L10.8714 3.54825C11.0264 3.39308 11.2061 3.3155 11.4106 3.3155C11.6151 3.3155 11.7917 3.39308 11.9404 3.54825C12.0956 3.69692 12.1731 3.8735 12.1731 4.078C12.1731 4.2825 12.0956 4.46225 11.9404 4.61725L11.3231 5.21925L18.4096 12.3058C18.761 12.6571 18.9366 13.0847 18.9366 13.5885C18.9366 14.0923 18.761 14.5167 18.4096 14.8615L17.6809 15.6058L21.4116 19.3213C21.5398 19.4494 21.5719 19.5894 21.5079 19.7413C21.4437 19.8933 21.3238 19.9693 21.1481 19.9693H20.4211C20.2596 19.9693 20.1039 19.9372 19.9539 19.873C19.8039 19.809 19.6719 19.7199 19.5579 19.6058L16.6116 16.6595L15.8829 17.4038C15.5379 17.7486 15.1135 17.921 14.6096 17.921C14.1058 17.921 13.6783 17.7486 13.3271 17.4038L6.24065 10.3173L5.62315 10.9345C5.46815 11.0795 5.28998 11.152 5.08865 11.152C4.88731 11.152 4.70915 11.0795 4.55415 10.9345ZM7.28465 9.273L14.3711 16.3595C14.4353 16.4173 14.5091 16.4463 14.5924 16.4463C14.6757 16.4463 14.7495 16.4173 14.8136 16.3595L17.3404 13.8078C17.4046 13.7501 17.4366 13.6779 17.4366 13.5913C17.4366 13.5048 17.4046 13.4327 17.3404 13.375L15.8789 11.8885L14.4116 13.3558C14.2565 13.5006 14.0783 13.5756 13.8771 13.5808C13.6758 13.5859 13.5059 13.5193 13.3674 13.3808C13.2124 13.2321 13.1349 13.0555 13.1349 12.851C13.1349 12.6465 13.2124 12.4667 13.3674 12.3115L14.8349 10.8443L13.0366 9.05575L11.5694 10.523C11.4207 10.6615 11.2441 10.7308 11.0396 10.7308C10.8351 10.7308 10.6553 10.6615 10.5001 10.523C10.3616 10.368 10.2924 10.1883 10.2924 9.98375C10.2924 9.77925 10.3616 9.60258 10.5001 9.45375L11.9674 7.9865L10.2694 6.2885L7.28465 9.273ZM7.28465 9.273L7.34715 9.2105C7.38882 9.16883 7.44173 9.116 7.5059 9.052L10.2694 6.2885L7.28465 9.273Z" fill="#8FCAE7"/>
</g>
</g>
</svg>
