<svg width="11" height="20" viewBox="0 0 11 20" fill="none" xmlns="http://www.w3.org/2000/svg">
<mask id="mask0_2360_12389" style="mask-type:alpha" maskUnits="userSpaceOnUse" x="0" y="0" width="11" height="20">
<rect width="11" height="20" fill="#D9D9D9"/>
</mask>
<g mask="url(#mask0_2360_12389)">
<path d="M2.86842 10.0068L10.6053 17.7588C10.8684 18.0225 10.9956 18.3301 10.9868 18.6816C10.9781 19.0332 10.8421 19.3408 10.5789 19.6045C10.3158 19.8682 10.0088 20 9.6579 20C9.30702 20 9 19.8682 8.73684 19.6045L0.631579 11.5097C0.421053 11.2988 0.263158 11.0615 0.157895 10.7978C0.0526316 10.5342 0 10.2705 0 10.0068C0 9.74313 0.0526316 9.47946 0.157895 9.21579C0.263158 8.95212 0.421053 8.71481 0.631579 8.50387L8.73684 0.382751C9 0.119078 9.3114 -0.00836381 9.67105 0.000425279C10.0307 0.00921437 10.3421 0.145445 10.6053 0.409118C10.8684 0.672791 11 0.980409 11 1.33197C11 1.68354 10.8684 1.99115 10.6053 2.25483L2.86842 10.0068Z" fill="#01689B"/>
</g>
</svg>
