<svg width="200" height="200" viewBox="0 0 200 200" fill="none" xmlns="http://www.w3.org/2000/svg">
<g id="Group 1989">
<g id="Group">
<path id="Vector" d="M100 200C155.228 200 200 155.228 200 100C200 44.7715 155.228 0 100 0C44.7715 0 0 44.7715 0 100C0 155.228 44.7715 200 100 200Z" fill="#EDEDED"/>
<g id="Group_2">
<g id="Group_3">
<path id="Vector_2" d="M58.7806 191.098C71.3416 196.829 85.244 200 100 200C112.561 200 124.512 197.683 135.488 193.537C131.951 179.878 127.195 173.659 120.854 167.195L120.732 167.073H68.9025C68.7806 167.195 68.6586 167.317 68.4147 167.439C68.0489 167.805 67.683 168.171 67.3172 168.659C67.1952 168.781 66.9513 169.024 66.8294 169.268C66.7074 169.512 66.4635 169.634 66.3416 169.878C65.9757 170.244 65.7318 170.732 65.3659 171.22C65.244 171.463 65.122 171.707 64.8781 171.951C63.1708 174.634 61.7074 177.927 60.6098 181.22C59.8781 183.902 59.1464 186.951 58.7806 191.098Z" fill="#004CBB"/>
<g id="Group_4">
<path id="Vector_3" d="M64.999 171.829L115.243 167.073H101.584H96.5844H69.0234C67.56 168.293 66.2185 170 64.999 171.829Z" fill="#0034B0"/>
</g>
<g id="Group_5">
<path id="Vector_4" fill-rule="evenodd" clip-rule="evenodd" d="M91.3424 22.1952C91.3424 22.1952 57.5619 21.3415 62.196 78.9025H119.391C119.269 78.9025 122.44 20.122 91.3424 22.1952Z" fill="black"/>
</g>
<g id="Group_6">
<path id="Vector_5" d="M112.805 88.1707C123.659 91.9512 140.61 128.415 140.61 128.415L159.39 100.854L172.073 105.488C172.073 105.488 166.708 128.659 151.464 145.366C147.927 149.146 140.244 150.61 134.756 148.415C124.878 144.512 121.098 131.463 121.098 131.463L112.927 101.707V88.1707H112.805Z" fill="#FF9D12"/>
</g>
<g id="Group_7">
<path id="Vector_6" d="M139.024 125.244C139.999 127.195 140.609 128.415 140.609 128.415L138.414 133.049C138.414 133.049 138.048 128.903 139.024 125.244Z" fill="#EC8A12"/>
</g>
<g id="Group_8">
<path id="Vector_7" fill-rule="evenodd" clip-rule="evenodd" d="M131.463 121.585C131.463 119.024 130.731 116.585 129.39 114.634C128.049 112.561 127.195 110.122 126.707 107.683C124.756 97.8049 117.683 89.2683 107.683 85.8537L102.317 84.0244L81.829 83.9025L75.4876 86.4635C62.8047 89.2683 54.2681 103.415 58.1705 120L65.1217 163.293C65.4876 165.61 67.4388 167.561 69.7559 167.561H118.658C121.097 167.561 123.17 165.976 123.414 163.537L125.975 132.073C129.268 129.756 131.463 125.976 131.463 121.585Z" fill="#FFB512"/>
</g>
<g id="Group_9">
<path id="Vector_8" d="M72.3166 115.61L62.5605 106.951C62.4385 107.195 62.3166 107.439 62.0727 107.683C61.341 108.293 60.6093 108.781 59.8775 109.268C59.5117 109.512 59.1458 109.756 58.658 110C58.5361 110 58.4141 110.122 58.4141 110.122L58.2922 110.244C58.2922 110.244 58.2922 110.366 58.1702 110.366C57.9263 110.732 57.6824 110.854 57.3166 110.854C57.1946 113.781 57.4385 116.829 58.1702 120L65.1215 163.293C65.4873 165.61 67.4385 167.561 69.7556 167.561H71.219C75.1215 161.342 87.0727 140.976 87.0727 140.976L72.3166 115.61Z" fill="#FF9D12"/>
</g>
<g id="Group_10">
<path id="Vector_9" d="M59.8785 185.976C64.6346 173.903 80.6102 130 80.6102 86.7075C80.6102 85.366 79.5127 84.1465 78.0493 84.1465C76.5858 84.1465 75.4883 85.244 75.4883 86.7075C75.4883 129.634 59.3907 173.171 55.0005 184.512C56.7078 185 58.2932 185.488 59.8785 185.976Z" fill="#008ECC"/>
</g>
<g id="Group_11">
<path id="Vector_10" fill-rule="evenodd" clip-rule="evenodd" d="M119.389 100.976L126.95 89.0244C129.633 84.8781 135.121 83.5366 139.511 85.9756L147.438 90.6098C148.292 91.0976 148.536 92.0732 148.292 92.9268C147.926 93.9024 146.828 94.3903 145.853 94.0244L138.536 91.2195L139.145 94.1464C139.389 95.6098 139.267 97.0732 138.78 98.4146C137.438 102.073 133.658 104.268 129.755 103.537L126.706 107.195L119.389 100.976Z" fill="#FF7254"/>
</g>
<g id="Group_12">
<path id="Vector_11" d="M57.0737 110.854C57.4396 117.683 70.0006 136.708 79.7567 146.342C82.9274 149.512 88.4152 151.464 96.342 146.342C108.171 138.537 119.513 120.366 125.732 112.195C127.805 109.512 127.805 105.854 125.854 103.049C123.171 99.2685 117.683 98.9026 114.391 102.073L91.0981 128.293L73.0493 94.7563L57.0737 110.854Z" fill="#FFB512"/>
</g>
<g id="Group_13">
<path id="Vector_12" d="M91.0973 129.146C90.9754 129.146 90.9754 129.146 91.0973 129.146C90.7315 129.146 90.4876 128.903 90.3656 128.659L73.5364 97.5611C73.2925 97.1952 73.4144 96.5855 73.9022 96.3416C74.2681 96.0977 74.8778 96.2196 75.1217 96.7074L91.3413 126.707L112.927 102.073C113.292 101.707 113.78 101.707 114.146 101.951C114.512 102.317 114.512 102.805 114.268 103.171L91.8291 128.781C91.5852 129.024 91.3412 129.146 91.0973 129.146Z" fill="#FFCA55"/>
</g>
<g id="Group_14">
<path id="Vector_13" d="M86.463 150.976C82.5606 150.976 79.9996 149.146 78.7801 148.049L79.9996 146.707C81.8289 148.415 87.0728 151.707 95.9752 145.854C111.585 135.61 127.317 109.756 127.561 109.512L129.024 110.366C128.414 111.463 112.926 136.707 96.9508 147.195C92.6825 150 89.1459 150.976 86.463 150.976Z" fill="#FF9D12"/>
</g>
<g id="Group_15">
<path id="Vector_14" d="M88.7808 132.805C88.6588 132.805 88.6588 132.805 88.5369 132.805C88.0491 132.683 87.8052 132.195 87.9271 131.707C87.9271 131.585 88.5369 129.512 90.3662 127.683C90.732 127.317 91.2198 127.317 91.5857 127.683C91.9515 128.049 91.9515 128.537 91.5857 128.903C90.1223 130.366 89.6344 132.195 89.6344 132.195C89.5125 132.561 89.2686 132.805 88.7808 132.805Z" fill="#FFCA55"/>
</g>
<g id="Group_16">
<path id="Vector_15" d="M87.0731 129.878C86.7072 129.878 86.4633 129.634 86.2194 129.39C85.9755 128.902 86.2194 128.415 86.7072 128.293L90.2438 126.829C90.7316 126.585 91.2194 126.829 91.3414 127.317C91.5853 127.805 91.3414 128.293 90.8536 128.415L87.317 129.878C87.317 129.756 87.195 129.878 87.0731 129.878Z" fill="#FFCA55"/>
</g>
<g id="Group_17">
<path id="Vector_16" fill-rule="evenodd" clip-rule="evenodd" d="M82.5612 80.122L101.098 80.6098L97.1953 55.9756L80.9758 51.7073L82.5612 80.122Z" fill="#FF7254"/>
</g>
<g id="Group_18">
<path id="Vector_17" fill-rule="evenodd" clip-rule="evenodd" d="M98.5372 64.6342L100.123 74.3903L86.464 64.1464L98.5372 64.6342Z" fill="#F15A37"/>
</g>
<g id="Group_19">
<path id="Vector_18" fill-rule="evenodd" clip-rule="evenodd" d="M102.684 85.3659L101.464 76.5854H81.5861V85.3659H102.684Z" fill="#FFB512"/>
</g>
<g id="Group_20">
<path id="Vector_19" fill-rule="evenodd" clip-rule="evenodd" d="M111.829 53.9025C111.463 60.9757 108.658 66.0977 100.122 67.683C99.9996 67.683 99.8777 67.805 99.7557 67.805C99.146 67.9269 95.2435 68.1708 94.024 68.0489C89.5118 67.5611 84.9996 65.3659 81.2192 62.1952C80.2435 61.3416 79.2679 60.4879 78.4143 59.5123C78.0484 59.1464 77.8045 58.7806 77.5606 58.5367C77.1948 58.0489 76.8289 57.5611 76.463 57.1952C76.2191 56.8293 75.9752 56.5855 75.8533 56.2196C74.146 53.5367 72.9265 50.7318 72.5606 47.805C71.707 41.4635 72.1948 36.4635 73.9021 32.683C74.9996 30.244 76.4631 28.4147 78.5362 27.0733C79.6338 26.3415 80.9753 25.7318 82.4387 25.244C83.0484 25.0001 83.6582 24.8781 84.3899 24.7562C84.9996 24.6342 85.6094 24.5123 86.3411 24.3903H86.4631C86.585 24.3903 86.585 24.3903 86.707 24.3903C87.3167 24.2684 88.0484 24.2684 88.7801 24.1464C89.6338 24.0245 90.3655 24.0245 91.2192 24.0245C91.8289 24.0245 92.4387 24.0245 92.9265 24.1464C92.9265 24.1464 92.9265 24.1464 93.0484 24.1464C93.1704 24.1464 93.2923 24.1464 93.4143 24.1464C93.6582 24.1464 93.7801 24.2684 93.9021 24.2684C94.5118 24.3903 94.9996 24.5123 95.4874 24.6342C95.6094 24.6342 95.6094 24.7562 95.7313 24.7562C96.2191 24.8781 96.707 25.0001 97.0728 25.244C97.4387 25.3659 97.8045 25.4879 98.1704 25.7318C98.5362 25.9757 99.024 26.0976 99.3899 26.3416C99.7557 26.5855 100.122 26.7074 100.487 26.9513C101.463 27.5611 102.439 28.4147 103.292 29.2684C103.536 29.5123 103.78 29.7562 104.024 30.0001C104.146 30.122 104.39 30.3659 104.512 30.4879C108.536 35.0001 110.853 41.3415 111.463 48.0489C111.463 48.4147 111.585 48.6586 111.585 48.9025C111.951 50.3659 111.951 52.1952 111.829 53.9025Z" fill="#FF7254"/>
</g>
<g id="Group_21">
<path id="Vector_20" fill-rule="evenodd" clip-rule="evenodd" d="M86.4631 24.1464C85.8533 25.244 80.9752 29.3903 80.7313 33.9025C80.3655 41.0976 80.1216 50.4879 75.8533 55.9757C74.146 53.2928 72.9265 50.4879 72.5606 47.5611C71.707 41.2196 72.1948 36.2196 73.9021 32.4391C74.9996 30.0001 76.4631 28.1708 78.5362 26.8294C79.6338 26.0976 80.9753 25.4879 82.4387 25.0001C83.0484 24.7562 83.6582 24.6342 84.3899 24.5123C85.1216 24.3903 85.7314 24.2684 86.4631 24.1464Z" fill="black"/>
</g>
<g id="Group_22">
<path id="Vector_21" d="M78.7801 52.4389C81.2721 52.4389 83.2923 50.4188 83.2923 47.9267C83.2923 45.4347 81.2721 43.4146 78.7801 43.4146C76.2881 43.4146 74.2679 45.4347 74.2679 47.9267C74.2679 50.4188 76.2881 52.4389 78.7801 52.4389Z" fill="#FF7254"/>
</g>
<g id="Group_23">
<path id="Vector_22" fill-rule="evenodd" clip-rule="evenodd" d="M88.9022 23.9025C89.7559 23.9025 90.6095 23.7805 91.4632 23.7805C92.1949 23.7805 92.9266 23.7805 93.5364 23.9025C93.6583 23.9025 93.9022 23.9025 94.0242 24.0244C94.512 24.1464 95.1218 24.1464 95.6096 24.2683C95.7315 24.2683 95.7315 24.2683 95.8535 24.2683C99.39 25.2439 102.317 27.1952 104.634 29.8781C101.463 35.4878 79.8778 43.1708 79.8778 43.4147L77.9266 27.1952C80.9754 24.7561 85.1217 24.2683 86.5852 24.0244C86.7071 24.0244 86.7071 24.0244 86.8291 24.0244C87.5608 24.0244 88.1705 24.0244 88.9022 23.9025Z" fill="black"/>
</g>
<g id="Group_24">
<path id="Vector_23" d="M101.463 58.2927C101.341 58.2927 101.097 58.2927 100.975 58.2927C97.6826 58.0488 96.8289 55.9757 96.8289 55.8537L97.9265 55.4879C97.9265 55.4879 98.5362 56.9513 100.975 57.0732C103.292 57.1952 104.024 56.2196 104.024 56.0976L105 56.7074C105 56.8293 104.024 58.2927 101.463 58.2927Z" fill="black"/>
</g>
<path id="Vector_24" d="M60.7318 181.098C60.4879 181.098 60.244 180.976 60.0001 180.976H59.1465L50.4879 180.61C48.1709 180.488 46.2196 181.707 45.1221 183.537C51.4635 187.683 58.4148 191.22 65.6099 193.903L65.8538 187.195C65.9757 184.146 63.7806 181.585 60.7318 181.098Z" fill="#008ECC"/>
<g id="Group_25">
<path id="Vector_25" fill-rule="evenodd" clip-rule="evenodd" d="M173.903 89.3904L175.732 78.7806C175.976 77.5611 175.122 76.3416 173.903 76.0977C172.561 75.8538 171.098 76.7075 170.732 78.0489L168.781 84.6343L173.903 89.3904Z" fill="#F15A37"/>
</g>
<g id="Group_26">
<g id="Group_27">
<path id="Vector_26" d="M148.048 102.073H159.389C161.707 102.073 164.268 100.122 164.999 97.8048L173.658 71.4634C174.389 69.1463 173.17 67.1951 170.853 67.1951H159.511C157.194 67.1951 154.633 69.1463 153.902 71.4634L145.243 97.8048C144.389 100.122 145.731 102.073 148.048 102.073Z" fill="white"/>
</g>
<g id="Group_28">
<path id="Vector_27" d="M150.122 102.073H161.463C163.78 102.073 166.341 100.122 167.073 97.8048L175.732 71.4634C176.463 69.1463 175.244 67.1951 172.927 67.1951H161.585C159.268 67.1951 156.707 69.1463 155.975 71.4634L147.317 97.8048C146.463 100.122 147.805 102.073 150.122 102.073Z" fill="#ABABAB"/>
</g>
</g>
<g id="Group_29">
<path id="Vector_28" fill-rule="evenodd" clip-rule="evenodd" d="M171.22 106.22L174.147 96.5855C175.854 90.366 174.025 86.8294 171.22 85.2441L162.927 80.1221C161.708 79.3904 160.122 79.8782 159.391 81.0977C158.781 82.1953 159.025 83.5367 160 84.2685L163.781 86.8294L158.537 83.2928C157.44 82.5611 155.854 82.927 155.122 84.1465C154.391 85.2441 154.635 86.5855 155.61 87.3172L161.464 91.2197L156.83 88.1709C155.854 87.5611 154.391 87.805 153.659 88.9026C152.927 89.8782 153.171 91.2197 154.147 91.8294L161.098 97.0733L159.513 103.293L171.22 106.22Z" fill="#FF7254"/>
</g>
<g id="Group_30">
<path id="Vector_29" d="M148.536 116.707L159.39 100.854L172.073 105.488C172.073 105.488 170.244 114.39 164.268 126.22C159.024 123.049 153.902 119.878 148.536 116.707Z" fill="#FF9D12"/>
</g>
</g>
</g>
</g>
<g id="Group 1988">
<g id="Group_31">
<g id="Group_32">
<g id="Group_33">
<path id="Vector_30" d="M171.01 53.3706V60.9986C171.01 61.9354 171.947 62.3368 172.616 61.6677L181.047 53.2368H171.01V53.3706Z" fill="#01689B"/>
</g>
<g id="Group_34">
<g id="Group_35">
<path id="Vector_31" d="M168.2 54.8427H187.47C190.414 54.8427 192.823 52.4339 192.823 49.4898V30.353C192.823 27.4088 190.414 25 187.47 25H168.2C165.256 25 162.847 27.4088 162.847 30.353V49.4898C162.847 52.4339 165.256 54.8427 168.2 54.8427Z" fill="#01689B"/>
</g>
</g>
<path id="Vector_32" d="M177.248 47.9319C177.111 47.9319 177.043 47.8638 177.043 47.7277L176.769 46.1617C176.769 46.0255 176.632 45.8894 176.496 45.8894C175.949 45.7532 175.402 45.5489 174.923 45.2766C174.855 45.2766 174.786 45.2085 174.718 45.2085C174.65 45.2085 174.581 45.2085 174.513 45.2766L173.145 46.2298H173.077C173.009 46.2298 172.94 46.2298 172.94 46.1617L171.846 45.0723C171.778 45.0043 171.778 44.8681 171.846 44.8L172.735 43.5064C172.803 43.3702 172.803 43.234 172.735 43.0979C172.462 42.6213 172.188 42.0766 172.051 41.5319C171.983 41.3957 171.915 41.2596 171.778 41.2596L170.205 40.9872C170.068 40.9872 170 40.8511 170 40.783V39.217C170 39.0808 170.068 39.0128 170.205 39.0128L171.778 38.7404C171.915 38.7404 172.051 38.6043 172.051 38.4681C172.188 37.9234 172.393 37.3787 172.667 36.9021C172.735 36.766 172.735 36.6298 172.667 36.4936L171.778 35.2C171.709 35.1319 171.709 34.9957 171.778 34.9277L172.872 33.8383C172.94 33.7702 172.94 33.7702 173.009 33.7702H173.077L173.145 33.8383L174.444 34.7234C174.513 34.7915 174.581 34.7915 174.65 34.7915C174.718 34.7915 174.786 34.7915 174.855 34.7234C175.333 34.4511 175.88 34.1787 176.427 34.0426C176.564 33.9745 176.701 33.9064 176.701 33.7702L176.974 32.2043C176.974 32.0681 177.111 32 177.179 32H178.752C178.889 32 178.957 32.0681 178.957 32.2043L179.231 33.7702C179.231 33.9064 179.368 34.0426 179.504 34.0426C180.051 34.1787 180.598 34.383 181.145 34.7234C181.214 34.7234 181.282 34.7915 181.35 34.7915C181.419 34.7915 181.487 34.7915 181.556 34.7234L182.855 33.7702H182.923C182.991 33.7702 183.06 33.7702 183.06 33.8383L184.154 34.9277C184.222 34.9957 184.222 35.1319 184.154 35.2L183.265 36.4936C183.197 36.6298 183.197 36.766 183.265 36.9021C183.538 37.3787 183.744 37.9234 183.949 38.4681C184.017 38.6043 184.085 38.7404 184.222 38.7404L185.795 39.0128C185.932 39.0128 186 39.1489 186 39.217V40.9191H185.932C185.863 40.9872 185.863 40.9872 185.795 40.9872L184.222 41.2596C184.085 41.2596 183.949 41.3957 183.949 41.5319C183.812 42.0766 183.607 42.6213 183.265 43.0979C183.197 43.234 183.197 43.3702 183.265 43.5064L184.154 44.8C184.222 44.8681 184.222 45.0043 184.154 45.0723L183.06 46.1617C183.06 46.1617 182.991 46.2298 182.923 46.2298H182.855L182.786 46.1617L181.487 45.2766C181.419 45.2085 181.35 45.2085 181.282 45.2085C181.214 45.2085 181.145 45.2085 181.077 45.2766C180.598 45.5489 180.051 45.8213 179.504 45.9574C179.368 46.0255 179.231 46.0936 179.231 46.2298L178.957 47.7957C178.957 47.9319 178.821 48 178.752 48H177.248V47.9319ZM178.068 37.2426C176.564 37.2426 175.402 38.4681 175.402 39.8979C175.402 41.3277 176.632 42.5532 178.068 42.5532C179.504 42.5532 180.735 41.3277 180.735 39.8979C180.735 38.4681 179.573 37.2426 178.068 37.2426Z" fill="white"/>
</g>
</g>
<g id="Group_36">
<path id="Vector_33" d="M191.5 32C194.538 32 197 29.5376 197 26.5C197 23.4624 194.538 21 191.5 21C188.462 21 186 23.4624 186 26.5C186 29.5376 188.462 32 191.5 32Z" fill="#FF7254"/>
<g id="Group_37">
<path id="Vector_34" d="M190.972 29.4383V25.3699L189.993 26.4246L189.089 25.5205L191.198 23.4109H192.555V29.4383H190.972Z" fill="white"/>
</g>
</g>
</g>
</g>
</svg>
