<svg width="24" height="24" viewBox="0 0 24 24" fill="none" xmlns="http://www.w3.org/2000/svg">
<g id="Frame 5771435">
<g id="light_mode">
<mask id="mask0_1219_7299" style="mask-type:alpha" maskUnits="userSpaceOnUse" x="2" y="2" width="20" height="20">
<rect id="Bounding box" x="2" y="2" width="20" height="20" fill="#D9D9D9"/>
</mask>
<g mask="url(#mask0_1219_7299)">
<path id="light_mode_2" d="M11.9952 16C10.8873 16 9.94444 15.6095 9.16667 14.8285C8.38889 14.0477 8 13.1033 8 11.9952C8 10.8873 8.39049 9.94444 9.17146 9.16667C9.95229 8.38889 10.8967 8 12.0048 8C13.1127 8 14.0556 8.39049 14.8333 9.17146C15.6111 9.95229 16 10.8967 16 12.0048C16 13.1127 15.6095 14.0556 14.8285 14.8333C14.0477 15.6111 13.1033 16 11.9952 16ZM3.75 12.75C3.5375 12.75 3.35938 12.6785 3.21562 12.5356C3.07187 12.3927 3 12.2156 3 12.0044C3 11.7931 3.07187 11.6146 3.21562 11.4688C3.35938 11.3229 3.5375 11.25 3.75 11.25H5.75C5.9625 11.25 6.14062 11.3215 6.28437 11.4644C6.42812 11.6073 6.5 11.7844 6.5 11.9956C6.5 12.2069 6.42812 12.3854 6.28437 12.5312C6.14062 12.6771 5.9625 12.75 5.75 12.75H3.75ZM18.25 12.75C18.0375 12.75 17.8594 12.6785 17.7156 12.5356C17.5719 12.3927 17.5 12.2156 17.5 12.0044C17.5 11.7931 17.5719 11.6146 17.7156 11.4688C17.8594 11.3229 18.0375 11.25 18.25 11.25H20.25C20.4625 11.25 20.6406 11.3215 20.7844 11.4644C20.9281 11.6073 21 11.7844 21 11.9956C21 12.2069 20.9281 12.3854 20.7844 12.5312C20.6406 12.6771 20.4625 12.75 20.25 12.75H18.25ZM12.0044 6.5C11.7931 6.5 11.6146 6.42813 11.4688 6.28438C11.3229 6.14063 11.25 5.9625 11.25 5.75V3.75C11.25 3.5375 11.3215 3.35937 11.4644 3.21562C11.6073 3.07187 11.7844 3 11.9956 3C12.2069 3 12.3854 3.07187 12.5312 3.21562C12.6771 3.35937 12.75 3.5375 12.75 3.75V5.75C12.75 5.9625 12.6785 6.14063 12.5356 6.28438C12.3927 6.42813 12.2156 6.5 12.0044 6.5ZM12.0044 21C11.7931 21 11.6146 20.9281 11.4688 20.7844C11.3229 20.6406 11.25 20.4625 11.25 20.25V18.25C11.25 18.0375 11.3215 17.8594 11.4644 17.7156C11.6073 17.5719 11.7844 17.5 11.9956 17.5C12.2069 17.5 12.3854 17.5719 12.5312 17.7156C12.6771 17.8594 12.75 18.0375 12.75 18.25V20.25C12.75 20.4625 12.6785 20.6406 12.5356 20.7844C12.3927 20.9281 12.2156 21 12.0044 21ZM7.04167 8.10417L6 7.04167C5.84722 6.90278 5.77083 6.73264 5.77083 6.53125C5.77083 6.32986 5.84722 6.15278 6 6C6.14486 5.84722 6.32 5.77083 6.52542 5.77083C6.73069 5.77083 6.90278 5.84722 7.04167 6L8.10417 7.04167C8.25694 7.19361 8.33333 7.3709 8.33333 7.57354C8.33333 7.77618 8.25694 7.95347 8.10417 8.10542C7.96528 8.25736 7.79167 8.33333 7.58333 8.33333C7.375 8.33333 7.19444 8.25694 7.04167 8.10417ZM16.9583 18L15.8958 16.9583C15.7431 16.8101 15.6667 16.6342 15.6667 16.4306C15.6667 16.2269 15.7431 16.0486 15.8958 15.8958C16.0347 15.7431 16.2083 15.6667 16.4167 15.6667C16.625 15.6667 16.8056 15.7431 16.9583 15.8958L18 16.9583C18.1528 17.0972 18.2292 17.2674 18.2292 17.4688C18.2292 17.6701 18.1561 17.8472 18.01 18C17.8506 18.1528 17.6736 18.2292 17.4792 18.2292C17.2847 18.2292 17.1111 18.1528 16.9583 18ZM15.8946 8.10417C15.7426 7.96528 15.6667 7.79167 15.6667 7.58333C15.6667 7.375 15.7431 7.19444 15.8958 7.04167L16.9583 6C17.1111 5.84722 17.2847 5.77431 17.4792 5.78125C17.6736 5.78819 17.8472 5.86139 18 6.00083C18.1528 6.15306 18.2292 6.32639 18.2292 6.52083C18.2292 6.71528 18.1528 6.88889 18 7.04167L16.9583 8.10417C16.8064 8.25694 16.6291 8.33333 16.4265 8.33333C16.2238 8.33333 16.0465 8.25694 15.8946 8.10417ZM6 18C5.84722 17.8551 5.77083 17.68 5.77083 17.4746C5.77083 17.2693 5.84722 17.0972 6 16.9583L7.04167 15.8958C7.18986 15.7569 7.36576 15.6875 7.56938 15.6875C7.77313 15.6875 7.95139 15.7569 8.10417 15.8958C8.25694 16.0486 8.33014 16.2269 8.32375 16.4306C8.31736 16.6342 8.24417 16.8101 8.10417 16.9583L7.04167 18C6.90278 18.1528 6.73264 18.2292 6.53125 18.2292C6.32986 18.2292 6.15278 18.1528 6 18Z" fill="white"/>
</g>
</g>
</g>
</svg>
