<svg width="22" height="22" viewBox="0 0 22 22" fill="none" xmlns="http://www.w3.org/2000/svg">
<g id="DigiD">
<path id="Vector" d="M19.976 22H2.024C0.909333 22 0 21.0907 0 19.976V2.024C0 0.909333 0.909333 0 2.024 0H19.976C21.0907 0 22 0.909333 22 2.024V19.976C22 21.0907 21.0907 22 19.976 22Z" fill="black"/>
<g id="Group">
<path id="Vector_2" d="M2.05725 16.4169V11.2103H3.53614C5.27658 11.2103 6.23334 12.0903 6.23334 13.6596C6.23334 15.5369 5.18907 16.4169 3.49263 16.4169H2.05725ZM2.99983 15.6249H3.53614C4.56574 15.6249 5.24725 15.0676 5.24725 13.7036C5.24725 12.5743 4.58041 11.9876 3.46378 11.9876H2.99934L2.99983 15.6249ZM7.49467 10.8583C7.82858 10.8583 8.01681 11.0783 8.01681 11.3716C8.01681 11.6503 7.82858 11.8849 7.49516 11.8849C7.16125 11.8849 6.97303 11.6796 6.97303 11.3716C6.9877 11.1076 7.16125 10.8583 7.49516 10.8583H7.49467ZM7.94445 16.4169H7.05956V12.5156L7.94445 12.4716V16.4169ZM10.0907 15.6543H11.0186C11.8448 15.6543 12.2076 15.9916 12.2076 16.6223C12.2076 17.3703 11.5989 17.9716 10.1919 17.9716C9.08992 17.9716 8.58245 17.5756 8.58245 16.9596C8.58245 16.5929 8.78534 16.2849 9.17694 16.1089V16.0796C9.0029 15.9916 8.87236 15.7863 8.87236 15.5516C8.87236 15.3023 9.01756 15.0823 9.30747 14.9649V14.9356C8.95938 14.7303 8.75649 14.4076 8.75649 13.8943C8.75649 12.9409 9.3945 12.4276 10.3659 12.4276C10.5835 12.4276 10.7717 12.4569 10.9604 12.5009H12.2076V13.1023H11.6131V13.1316C11.7729 13.2636 11.9177 13.5276 11.9177 13.8649C11.9177 14.7303 11.3378 15.1849 10.2789 15.1849C10.1049 15.1849 9.94547 15.1556 9.7861 15.1263C9.68441 15.1849 9.62672 15.2729 9.62672 15.3756C9.59738 15.5516 9.72792 15.6543 10.0907 15.6543ZM10.2501 17.2969C11.0909 17.2969 11.3955 17.0769 11.3955 16.7689C11.3955 16.5343 11.2508 16.4169 10.8739 16.4023L9.58321 16.3583C9.43801 16.4609 9.36565 16.5929 9.36565 16.7689C9.38032 17.0916 9.65507 17.2969 10.2501 17.2969ZM11.0763 13.8063C11.0763 13.3369 10.8157 13.0729 10.3224 13.0729C9.8873 13.0729 9.56854 13.3223 9.56854 13.8503C9.56854 14.3636 9.84427 14.5689 10.3082 14.5689C10.7868 14.5836 11.0763 14.3636 11.0763 13.8063Z" fill="white"/>
<path id="Vector_3" d="M13.2229 10.8583C13.5564 10.8583 13.7446 11.0783 13.7446 11.3716C13.7446 11.6503 13.5564 11.8849 13.2229 11.8849C12.889 11.8849 12.7008 11.6796 12.7008 11.3716C12.7155 11.1076 12.889 10.8583 13.2229 10.8583ZM13.6727 16.4169H12.7878V12.5156L13.6727 12.4716V16.4169ZM14.7888 16.4169V11.2103H16.2677C18.0082 11.2103 18.9649 12.0903 18.9649 13.6596C18.9649 15.5369 17.9212 16.4169 16.2242 16.4169H14.7888ZM15.7314 15.6249H16.2677C17.2973 15.6249 17.9789 15.0676 17.9789 13.7036C17.9789 12.5743 17.312 11.9876 16.1954 11.9876H15.7314V15.6249Z" fill="#E1700D"/>
</g>
</g>
</svg>
