<svg width="24" height="24" viewBox="0 0 24 24" fill="none" xmlns="http://www.w3.org/2000/svg">
<g id="Frame 5771439">
<g id="medical_services">
<mask id="mask0_1357_42846" style="mask-type:alpha" maskUnits="userSpaceOnUse" x="0" y="0" width="24" height="24">
<rect id="Bounding box" width="24" height="24" fill="#D9D9D9"/>
</mask>
<g mask="url(#mask0_1357_42846)">
<path id="medical_services_2" d="M11.25 14.75V17C11.25 17.2128 11.3218 17.391 11.4655 17.5345C11.609 17.6782 11.7872 17.75 12 17.75C12.2128 17.75 12.391 17.6782 12.5345 17.5345C12.6782 17.391 12.75 17.2128 12.75 17V14.75H15C15.2128 14.75 15.391 14.6782 15.5345 14.5345C15.6782 14.391 15.75 14.2128 15.75 14C15.75 13.7872 15.6782 13.609 15.5345 13.4655C15.391 13.3218 15.2128 13.25 15 13.25H12.75V11C12.75 10.7872 12.6782 10.609 12.5345 10.4655C12.391 10.3218 12.2128 10.25 12 10.25C11.7872 10.25 11.609 10.3218 11.4655 10.4655C11.3218 10.609 11.25 10.7872 11.25 11V13.25H9C8.78717 13.25 8.609 13.3218 8.4655 13.4655C8.32183 13.609 8.25 13.7872 8.25 14C8.25 14.2128 8.32183 14.391 8.4655 14.5345C8.609 14.6782 8.78717 14.75 9 14.75H11.25ZM4.30775 21.5C3.80258 21.5 3.375 21.325 3.025 20.975C2.675 20.625 2.5 20.1974 2.5 19.6923V8.30775C2.5 7.80258 2.675 7.375 3.025 7.025C3.375 6.675 3.80258 6.5 4.30775 6.5H8.5V4.80775C8.5 4.30258 8.675 3.875 9.025 3.525C9.375 3.175 9.80258 3 10.3078 3H13.6923C14.1974 3 14.625 3.175 14.975 3.525C15.325 3.875 15.5 4.30258 15.5 4.80775V6.5H19.6923C20.1974 6.5 20.625 6.675 20.975 7.025C21.325 7.375 21.5 7.80258 21.5 8.30775V19.6923C21.5 20.1974 21.325 20.625 20.975 20.975C20.625 21.325 20.1974 21.5 19.6923 21.5H4.30775ZM4.30775 20H19.6923C19.7693 20 19.8398 19.9679 19.9038 19.9038C19.9679 19.8398 20 19.7693 20 19.6923V8.30775C20 8.23075 19.9679 8.16025 19.9038 8.09625C19.8398 8.03208 19.7693 8 19.6923 8H4.30775C4.23075 8 4.16025 8.03208 4.09625 8.09625C4.03208 8.16025 4 8.23075 4 8.30775V19.6923C4 19.7693 4.03208 19.8398 4.09625 19.9038C4.16025 19.9679 4.23075 20 4.30775 20ZM10 6.5H14V4.80775C14 4.73075 13.9679 4.66025 13.9038 4.59625C13.8398 4.53208 13.7692 4.5 13.6923 4.5H10.3078C10.2308 4.5 10.1603 4.53208 10.0963 4.59625C10.0321 4.66025 10 4.73075 10 4.80775V6.5Z" fill="#42145F"/>
</g>
</g>
</g>
</svg>
