<svg width="24" height="24" viewBox="0 0 24 24" fill="none" xmlns="http://www.w3.org/2000/svg">
<g id="Frame 5771439">
<g id="account_balance">
<mask id="mask0_2056_19893" style="mask-type:alpha" maskUnits="userSpaceOnUse" x="0" y="0" width="24" height="24">
<rect id="Bounding box" width="24" height="24" fill="#D9D9D9"/>
</mask>
<g mask="url(#mask0_2056_19893)">
<path id="account_balance_2" d="M5.75028 16.2498V10.2498C5.75028 10.0373 5.8222 9.85913 5.96603 9.71529C6.10987 9.57163 6.28803 9.49979 6.50053 9.49979C6.7132 9.49979 6.89137 9.57163 7.03503 9.71529C7.17853 9.85913 7.25028 10.0373 7.25028 10.2498V16.2498C7.25028 16.4623 7.17836 16.6405 7.03453 16.7843C6.8907 16.928 6.71253 16.9998 6.50003 16.9998C6.28736 16.9998 6.10928 16.928 5.96578 16.7843C5.82211 16.6405 5.75028 16.4623 5.75028 16.2498ZM11.2503 16.2498V10.2498C11.2503 10.0373 11.3222 9.85913 11.466 9.71529C11.6099 9.57163 11.788 9.49979 12.0005 9.49979C12.2132 9.49979 12.3913 9.57163 12.5348 9.71529C12.6784 9.85913 12.7503 10.0373 12.7503 10.2498V16.2498C12.7503 16.4623 12.6784 16.6405 12.5345 16.7843C12.3907 16.928 12.2125 16.9998 12 16.9998C11.7874 16.9998 11.6093 16.928 11.4658 16.7843C11.3221 16.6405 11.2503 16.4623 11.2503 16.2498ZM3.51953 20.4998C3.30703 20.4998 3.12895 20.4279 2.98528 20.284C2.84145 20.1402 2.76953 19.962 2.76953 19.7495C2.76953 19.5369 2.84145 19.3588 2.98528 19.2153C3.12895 19.0716 3.30703 18.9998 3.51953 18.9998H20.481C20.6935 18.9998 20.8716 19.0717 21.0153 19.2155C21.1591 19.3594 21.231 19.5375 21.231 19.75C21.231 19.9627 21.1591 20.1408 21.0153 20.2843C20.8716 20.428 20.6935 20.4998 20.481 20.4998H3.51953ZM16.7503 16.2498V10.2498C16.7503 10.0373 16.8222 9.85913 16.966 9.71529C17.1099 9.57163 17.288 9.49979 17.5005 9.49979C17.7132 9.49979 17.8913 9.57163 18.0348 9.71529C18.1784 9.85913 18.2503 10.0373 18.2503 10.2498V16.2498C18.2503 16.4623 18.1784 16.6405 18.0345 16.7843C17.8907 16.928 17.7125 16.9998 17.5 16.9998C17.2874 16.9998 17.1092 16.928 16.9655 16.7843C16.822 16.6405 16.7503 16.4623 16.7503 16.2498ZM20.5195 7.49979H3.41003C3.23203 7.49979 3.08078 7.43763 2.95628 7.31329C2.83178 7.18913 2.76953 7.03821 2.76953 6.86054V6.47004C2.76953 6.33988 2.80211 6.22763 2.86728 6.13329C2.93261 6.03913 3.01861 5.96254 3.12528 5.90354L11.206 1.94979C11.4557 1.82929 11.72 1.76904 11.999 1.76904C12.278 1.76904 12.5432 1.82929 12.7945 1.94979L20.8348 5.87854C20.9604 5.94271 21.0579 6.03246 21.127 6.14779C21.1964 6.26329 21.231 6.38729 21.231 6.51979V6.79079C21.231 6.99546 21.164 7.16479 21.03 7.29879C20.896 7.43279 20.7259 7.49979 20.5195 7.49979ZM6.31553 5.99979H17.685L12.135 3.30754C12.09 3.28821 12.0451 3.27854 12.0003 3.27854C11.9554 3.27854 11.9105 3.28821 11.8655 3.30754L6.31553 5.99979Z" fill="#A90061"/>
</g>
</g>
</g>
</svg>
