<svg width="235" height="374" viewBox="0 0 235 374" fill="none" xmlns="http://www.w3.org/2000/svg">
<path d="M49.3692 144.285C51.8058 145.556 53.9717 146.284 57.2622 146.826C60.5527 147.367 64.4048 147.118 64.4048 147.118C64.4048 147.118 62.8225 149.263 58.6157 149.658L156.726 374H234.385L102.141 130.477L108.097 102.653C109.555 95.843 109.806 88.8037 108.848 81.9102L105.973 61.1671L86.4387 63.6246L26.7109 111.713L39.3101 134.434C41.6635 138.683 45.1827 142.078 49.3895 144.285H49.3692Z" fill="#E9BEAE"/>
<path d="M73.35 0H36.4044C29.1812 0 23.3262 5.85565 23.3262 13.079V109.443C23.3262 116.666 29.1812 122.522 36.4044 122.522H73.35C80.5732 122.522 86.4282 116.666 86.4282 109.443V13.079C86.4282 5.85565 80.5732 0 73.35 0Z" fill="#154273"/>
<path d="M83.4559 109.442H26.3301V31.8013L55.0074 28.0942L83.4559 31.8013V109.442Z" fill="white"/>
<path d="M83.4559 33.6122H26.3301V28.5097L63.3581 21.887L83.4559 28.5097V33.6122Z" fill="#89A2B8"/>
<path d="M83.4559 14.8896H26.3301V28.4893H83.4559V14.8896Z" fill="white"/>
<path d="M94.3114 31.8027L105.973 61.1887L99.3511 67.0826L86.4386 63.6463L83.273 51.7336C81.003 43.1948 85.8764 34.4061 94.3317 31.8236L94.3114 31.8027Z" fill="#E9BEAE"/>
<path d="M26.3308 74.3499L23.3523 72.7255V70.9552C26.0597 70.6636 28.6003 69.1017 29.9957 66.54C32.2657 62.3748 30.7248 57.1682 26.5596 54.8981L23.332 53.1487V33.6135L12.6902 27.803C8.52507 25.5329 3.3179 27.0741 1.04788 31.2394C-1.22214 35.4046 0.318769 40.6112 4.48395 42.8813L18.4377 50.4829C14.2725 48.2128 9.06638 49.754 6.79635 53.9193C4.52633 58.0845 6.06724 63.2911 10.2324 65.5612L18.3543 69.9972V70.0388L18.2089 69.9556C14.0437 67.6855 8.83656 69.2266 6.56654 73.3919C4.29651 77.5572 5.83844 82.7638 10.0036 85.0338L19.7708 90.3654C16.2304 88.4285 11.7945 89.7406 9.87854 93.2811C7.94174 96.8216 9.25356 101.258 12.794 103.174L18.2506 106.152L23.3523 108.943V106.86C25.3308 106.402 27.1016 105.152 28.1429 103.236C30.0797 99.6956 28.7679 95.2596 25.2275 93.3436L23.3523 92.3231V90.4487C25.9764 90.0947 28.4132 88.5535 29.7669 86.0543C32.0369 81.889 30.496 76.6825 26.3308 74.4124V74.3499Z" fill="#E9BEAE"/>
<path d="M122.821 158.843L68.0479 185.438L58.3438 165.236L113.115 138.641L122.821 158.843Z" fill="#154273"/>
<path d="M57.4838 11.3092H52.2773V23.4093H57.4838V11.3092Z" fill="#154273"/>
</svg>
