<svg width="24" height="24" viewBox="0 0 24 24" fill="none" xmlns="http://www.w3.org/2000/svg">
<g id="vital_signs">
<mask id="mask0_1357_42557" style="mask-type:alpha" maskUnits="userSpaceOnUse" x="0" y="0" width="24" height="24">
<rect id="Bounding box" width="24" height="24" fill="#D9D9D9"/>
</mask>
<g mask="url(#mask0_1357_42557)">
<path id="vital_signs_2" d="M9.21278 19.125C8.96595 19.125 8.74486 19.0523 8.54953 18.907C8.35403 18.7615 8.2107 18.5764 8.11953 18.3517L5.93503 12.75H2.26953C2.05703 12.75 1.87895 12.6781 1.73528 12.5342C1.59145 12.3904 1.51953 12.2122 1.51953 11.9997C1.51953 11.7871 1.59145 11.609 1.73528 11.4655C1.87895 11.3218 2.05703 11.25 2.26953 11.25H6.35603C6.54703 11.25 6.71528 11.3035 6.86078 11.4105C7.00628 11.5176 7.11753 11.6584 7.19453 11.8327L9.21178 17.023L13.6965 5.63848C13.7874 5.41381 13.9302 5.22881 14.125 5.08348C14.32 4.93815 14.5409 4.86548 14.7878 4.86548C15.0346 4.86548 15.2557 4.93815 15.451 5.08348C15.6465 5.22881 15.7899 5.41381 15.881 5.63848L18.0848 11.25H21.7503C21.9628 11.25 22.1409 11.3219 22.2845 11.4657C22.4284 11.6096 22.5003 11.7877 22.5003 12.0002C22.5003 12.2129 22.4284 12.391 22.2845 12.5345C22.1409 12.6781 21.9628 12.75 21.7503 12.75H17.654C17.4609 12.75 17.2937 12.6965 17.1525 12.5895C17.0112 12.4823 16.9021 12.3416 16.8253 12.1672L14.7888 6.96723L10.304 18.3517C10.2132 18.5764 10.0704 18.7615 9.87553 18.907C9.68053 19.0523 9.45961 19.125 9.21278 19.125Z" fill="#275937"/>
</g>
</g>
</svg>
