<svg width="17" height="18" viewBox="0 0 17 18" fill="none" xmlns="http://www.w3.org/2000/svg">
<path d="M13.3877 2.625H3.8252V14.8438H13.3877V2.625Z" fill="white"/>
<path d="M8.5 0.5C3.825 0.5 0 4.325 0 9C0 13.675 3.825 17.5 8.5 17.5C13.175 17.5 17 13.675 17 9C17 4.325 13.175 0.5 8.5 0.5ZM11.9531 12.4531C11.6875 12.7188 11.2625 12.7188 10.9969 12.4531L8.44687 10.2219L5.95 12.4531C5.68437 12.7188 5.25937 12.7188 4.99375 12.4531C4.72812 12.1875 4.72812 11.7625 4.99375 11.4969L7.225 8.94688L4.99375 6.39687C4.78125 6.13125 4.78125 5.75938 4.99375 5.49375C5.25937 5.28125 5.68437 5.28125 5.95 5.49375L8.5 7.725L11.05 5.49375V5.54688C11.3156 5.28125 11.7406 5.28125 12.0063 5.54688C12.2719 5.8125 12.2719 6.18437 12.0063 6.45L9.72188 9L11.9531 11.55C12.2188 11.8156 12.2188 12.2406 11.9531 12.4531Z" fill="#D52B1E"/>
</svg>
