<svg width="24" height="24" viewBox="0 0 24 24" fill="none" xmlns="http://www.w3.org/2000/svg">
<g id="chevron">
<path id="arrow_forward_ios" d="M13.9115 12.5048L8.27814 6.69845C8.08653 6.50096 7.99392 6.26725 8.00031 5.99735C8.0067 5.72744 8.10569 5.49374 8.2973 5.29624C8.48891 5.09875 8.71565 5 8.97752 5C9.23938 5 9.46612 5.09875 9.65773 5.29624L15.5401 11.3791C15.6934 11.5371 15.8084 11.7148 15.885 11.9123C15.9617 12.1098 16 12.3073 16 12.5048C16 12.7023 15.9617 12.8998 15.885 13.0973C15.8084 13.2948 15.6934 13.4725 15.5401 13.6305L9.63857 19.7133C9.44696 19.9108 9.22342 20.0063 8.96794 19.9997C8.71246 19.9931 8.48891 19.8911 8.2973 19.6936C8.10569 19.4961 8.00989 19.2624 8.00989 18.9925C8.00989 18.7226 8.10569 18.4889 8.2973 18.2914L13.9115 12.5048Z" fill="#888888"/>
</g>
</svg>
