<svg width="24" height="24" viewBox="0 0 24 24" fill="none" xmlns="http://www.w3.org/2000/svg">
<g id="Frame 5771439">
<g id="diagnosis">
<mask id="mask0_753_11854" style="mask-type:alpha" maskUnits="userSpaceOnUse" x="0" y="0" width="24" height="24">
<rect id="Bounding box" width="24" height="24" fill="#D9D9D9"/>
</mask>
<g mask="url(#mask0_753_11854)">
<path id="diagnosis_2" d="M9 18.3652H15C15.2128 18.3652 15.391 18.2935 15.5345 18.15C15.6782 18.0063 15.75 17.8281 15.75 17.6152C15.75 17.4026 15.6782 17.2244 15.5345 17.0807C15.391 16.9371 15.2128 16.8652 15 16.8652H9C8.78717 16.8652 8.609 16.9371 8.4655 17.0807C8.32183 17.2244 8.25 17.4026 8.25 17.6152C8.25 17.8281 8.32183 18.0063 8.4655 18.15C8.609 18.2935 8.78717 18.3652 9 18.3652ZM9 15.5577H15C15.2128 15.5577 15.391 15.4859 15.5345 15.3422C15.6782 15.1987 15.75 15.0206 15.75 14.8077C15.75 14.5949 15.6782 14.4167 15.5345 14.273C15.391 14.1295 15.2128 14.0577 15 14.0577H9C8.78717 14.0577 8.609 14.1295 8.4655 14.273C8.32183 14.4167 8.25 14.5949 8.25 14.8077C8.25 15.0206 8.32183 15.1987 8.4655 15.3422C8.609 15.4859 8.78717 15.5577 9 15.5577ZM12 6.5885C11.768 6.3 11.5103 6.06892 11.227 5.89525C10.9437 5.72158 10.6013 5.63475 10.2 5.63475C9.66417 5.63475 9.20517 5.82575 8.823 6.20775C8.441 6.58975 8.25 7.04875 8.25 7.58475C8.25 8.43592 8.63267 9.21567 9.398 9.924C10.1635 10.6323 10.8282 11.2436 11.3923 11.7578C11.5564 11.9218 11.759 12.0037 12 12.0037C12.241 12.0037 12.4436 11.9218 12.6077 11.7578C13.1718 11.2501 13.8365 10.6404 14.602 9.92875C15.3673 9.21725 15.75 8.43592 15.75 7.58475C15.75 7.04875 15.559 6.58975 15.177 6.20775C14.7948 5.82575 14.3358 5.63475 13.8 5.63475C13.3987 5.63475 13.0563 5.72158 12.773 5.89525C12.4897 6.06892 12.232 6.3 12 6.5885ZM17.6923 21.5H6.30775C5.80258 21.5 5.375 21.325 5.025 20.975C4.675 20.625 4.5 20.1974 4.5 19.6923V4.30775C4.5 3.80258 4.675 3.375 5.025 3.025C5.375 2.675 5.80258 2.5 6.30775 2.5H17.6923C18.1974 2.5 18.625 2.675 18.975 3.025C19.325 3.375 19.5 3.80258 19.5 4.30775V19.6923C19.5 20.1974 19.325 20.625 18.975 20.975C18.625 21.325 18.1974 21.5 17.6923 21.5ZM6.30775 20H17.6923C17.7821 20 17.8558 19.9712 17.9135 19.9135C17.9712 19.8558 18 19.7821 18 19.6923V4.30775C18 4.21792 17.9712 4.14417 17.9135 4.0865C17.8558 4.02883 17.7821 4 17.6923 4H6.30775C6.21792 4 6.14417 4.02883 6.0865 4.0865C6.02883 4.14417 6 4.21792 6 4.30775V19.6923C6 19.7821 6.02883 19.8558 6.0865 19.9135C6.14417 19.9712 6.21792 20 6.30775 20Z" fill="#F092CD"/>
</g>
</g>
</g>
</svg>
