<svg width="32" height="32" viewBox="0 0 32 32" fill="none" xmlns="http://www.w3.org/2000/svg">
<rect width="32" height="32" rx="8" fill="#BFA96C" fill-opacity="0.15"/>
<mask id="mask0_1758_487" style="mask-type:alpha" maskUnits="userSpaceOnUse" x="4" y="4" width="24" height="25">
<rect x="4" y="4.00012" width="24" height="24" fill="#D9D9D9"/>
</mask>
<g mask="url(#mask0_1758_487)">
<path d="M19.935 17.8079C19.2092 17.8079 18.5914 17.5538 18.0817 17.0456C17.5721 16.5375 17.3172 15.9205 17.3172 15.1946C17.3172 14.4688 17.5713 13.8511 18.0795 13.3416C18.5877 12.832 19.2047 12.5771 19.9305 12.5771C20.6563 12.5771 21.2741 12.8311 21.7837 13.3391C22.2932 13.8473 22.548 14.4643 22.548 15.1901C22.548 15.916 22.294 16.5337 21.786 17.0434C21.2778 17.553 20.6608 17.8079 19.935 17.8079ZM15.2212 23.4231C14.9651 23.4231 14.7504 23.3365 14.5772 23.1634C14.4039 22.99 14.3172 22.7754 14.3172 22.5194V21.9079C14.3172 21.624 14.3862 21.3537 14.524 21.0969C14.6618 20.84 14.8519 20.636 15.0942 20.4849C15.8186 20.0604 16.583 19.7389 17.3875 19.5204C18.1922 19.3017 19.0406 19.1924 19.9327 19.1924C20.8249 19.1924 21.6732 19.3017 22.4777 19.5204C23.2822 19.7389 24.0467 20.0604 24.7712 20.4849C25.0134 20.636 25.2034 20.84 25.3412 21.0969C25.4791 21.3537 25.548 21.624 25.548 21.9079V22.5194C25.548 22.7754 25.4614 22.99 25.2882 23.1634C25.1149 23.3365 24.9003 23.4231 24.6443 23.4231H15.2212ZM15.9095 21.7694V21.9231H23.9557V21.7694C23.3339 21.4167 22.6836 21.149 22.0047 20.9664C21.3259 20.7837 20.6353 20.6924 19.9327 20.6924C19.2301 20.6924 18.5393 20.7837 17.8605 20.9664C17.1817 21.149 16.5313 21.4167 15.9095 21.7694ZM19.9327 16.3079C20.2417 16.3079 20.5048 16.1992 20.722 15.9819C20.9393 15.7645 21.048 15.5014 21.048 15.1924C21.048 14.8834 20.9393 14.6203 20.722 14.4031C20.5048 14.1858 20.2417 14.0771 19.9327 14.0771C19.6237 14.0771 19.3606 14.1858 19.1432 14.4031C18.9259 14.6203 18.8172 14.8834 18.8172 15.1924C18.8172 15.5014 18.9259 15.7645 19.1432 15.9819C19.3606 16.1992 19.6237 16.3079 19.9327 16.3079ZM14.1922 17.7501H8.19225C7.97975 17.7501 7.80167 17.6782 7.658 17.5344C7.51417 17.3905 7.44225 17.2124 7.44225 16.9999C7.44225 16.7872 7.51417 16.6091 7.658 16.4656C7.80167 16.322 7.97975 16.2501 8.19225 16.2501H14.1922C14.4047 16.2501 14.5829 16.322 14.7267 16.4659C14.8704 16.6097 14.9422 16.7879 14.9422 17.0004C14.9422 17.213 14.8704 17.3911 14.7267 17.5346C14.5829 17.6783 14.4047 17.7501 14.1922 17.7501ZM18.1922 9.75012H8.19225C7.97975 9.75012 7.80167 9.67821 7.658 9.53437C7.51417 9.39054 7.44225 9.21237 7.44225 8.99987C7.44225 8.78721 7.51417 8.60912 7.658 8.46562C7.80167 8.32196 7.97975 8.25012 8.19225 8.25012H18.1922C18.4047 8.25012 18.5829 8.32204 18.7267 8.46587C18.8704 8.60971 18.9422 8.78787 18.9422 9.00037C18.9422 9.21304 18.8704 9.39112 18.7267 9.53462C18.5829 9.67829 18.4047 9.75012 18.1922 9.75012ZM15.398 13.7501H8.19225C7.97975 13.7501 7.80167 13.6782 7.658 13.5344C7.51417 13.3905 7.44225 13.2124 7.44225 12.9999C7.44225 12.7872 7.51417 12.6091 7.658 12.4656C7.80167 12.322 7.97975 12.2501 8.19225 12.2501H16.1347C15.9591 12.4693 15.8116 12.7023 15.6922 12.9491C15.5731 13.196 15.475 13.463 15.398 13.7501Z" fill="#BFA96C"/>
</g>
</svg>
