<svg width="24" height="24" viewBox="0 0 24 24" fill="none" xmlns="http://www.w3.org/2000/svg">
<g id="Frame 5771439">
<g id="emergency_home">
<mask id="mask0_2056_19879" style="mask-type:alpha" maskUnits="userSpaceOnUse" x="0" y="0" width="24" height="24">
<rect id="Bounding box" width="24" height="24" fill="#D9D9D9"/>
</mask>
<g mask="url(#mask0_2056_19879)">
<path id="emergency_home_2" d="M11.9996 21.4001C11.7649 21.4001 11.5381 21.3543 11.3191 21.2626C11.1001 21.1709 10.9 21.0411 10.7189 20.8731L3.12661 13.2808C2.95861 13.0997 2.82878 12.8996 2.73711 12.6806C2.64544 12.4616 2.59961 12.2348 2.59961 12.0001C2.59961 11.7654 2.64478 11.5359 2.73511 11.3116C2.82561 11.0873 2.95611 10.8898 3.12661 10.7193L10.7189 3.1271C10.9 2.94376 11.1001 2.8101 11.3191 2.7261C11.5381 2.6421 11.7649 2.6001 11.9996 2.6001C12.2343 2.6001 12.4638 2.64276 12.6881 2.7281C12.9124 2.81326 13.1099 2.94626 13.2804 3.1271L20.8726 10.7193C21.0534 10.8898 21.1864 11.0865 21.2716 11.3093C21.3569 11.5322 21.3996 11.7624 21.3996 12.0001C21.3996 12.2348 21.3576 12.4616 21.2736 12.6806C21.1896 12.8996 21.0559 13.0997 20.8726 13.2808L13.2804 20.8731C13.1099 21.0436 12.9132 21.1741 12.6904 21.2646C12.4675 21.3549 12.2373 21.4001 11.9996 21.4001ZM12.2209 19.8039L19.8034 12.2213C19.8547 12.17 19.8804 12.0963 19.8804 12.0001C19.8804 11.9039 19.8547 11.8302 19.8034 11.7788L12.2209 4.19635C12.1695 4.14501 12.0958 4.11935 11.9996 4.11935C11.9034 4.11935 11.8297 4.14501 11.7784 4.19635L4.19586 11.7788C4.14453 11.8302 4.11886 11.9039 4.11886 12.0001C4.11886 12.0963 4.14453 12.17 4.19586 12.2213L11.7784 19.8039C11.8297 19.8552 11.9034 19.8808 11.9996 19.8808C12.0958 19.8808 12.1695 19.8552 12.2209 19.8039ZM11.9999 13.0866C12.2125 13.0866 12.3906 13.0148 12.5341 12.8711C12.6778 12.7273 12.7496 12.5491 12.7496 12.3366V8.22135C12.7496 8.00885 12.6777 7.83068 12.5339 7.68685C12.39 7.54318 12.2119 7.47135 11.9994 7.47135C11.7867 7.47135 11.6086 7.54318 11.4651 7.68685C11.3214 7.83068 11.2496 8.00885 11.2496 8.22135V12.3366C11.2496 12.5491 11.3215 12.7273 11.4654 12.8711C11.6092 13.0148 11.7874 13.0866 11.9999 13.0866ZM11.9996 15.7021C12.2284 15.7021 12.4203 15.6247 12.5751 15.4698C12.7299 15.315 12.8074 15.1232 12.8074 14.8943C12.8074 14.6655 12.7299 14.4737 12.5751 14.3188C12.4203 14.164 12.2284 14.0866 11.9996 14.0866C11.7708 14.0866 11.5789 14.164 11.4241 14.3188C11.2693 14.4737 11.1919 14.6655 11.1919 14.8943C11.1919 15.1232 11.2693 15.315 11.4241 15.4698C11.5789 15.6247 11.7708 15.7021 11.9996 15.7021Z" fill="#F9E11E"/>
</g>
</g>
</g>
</svg>
