<svg width="19" height="19" viewBox="0 0 19 19" fill="none" xmlns="http://www.w3.org/2000/svg">
<path d="M8.75 11.75V14C8.75 14.2128 8.82183 14.391 8.9655 14.5345C9.109 14.6782 9.28717 14.75 9.5 14.75C9.71283 14.75 9.891 14.6782 10.0345 14.5345C10.1782 14.391 10.25 14.2128 10.25 14V11.75H12.5C12.7128 11.75 12.891 11.6782 13.0345 11.5345C13.1782 11.391 13.25 11.2128 13.25 11C13.25 10.7872 13.1782 10.609 13.0345 10.4655C12.891 10.3218 12.7128 10.25 12.5 10.25H10.25V8C10.25 7.78717 10.1782 7.609 10.0345 7.4655C9.891 7.32183 9.71283 7.25 9.5 7.25C9.28717 7.25 9.109 7.32183 8.9655 7.4655C8.82183 7.609 8.75 7.78717 8.75 8V10.25H6.5C6.28717 10.25 6.109 10.3218 5.9655 10.4655C5.82183 10.609 5.75 10.7872 5.75 11C5.75 11.2128 5.82183 11.391 5.9655 11.5345C6.109 11.6782 6.28717 11.75 6.5 11.75H8.75ZM1.80775 18.5C1.30258 18.5 0.875 18.325 0.525 17.975C0.175 17.625 0 17.1974 0 16.6923V5.30775C0 4.80258 0.175 4.375 0.525 4.025C0.875 3.675 1.30258 3.5 1.80775 3.5H6V1.80775C6 1.30258 6.175 0.875 6.525 0.525C6.875 0.175 7.30258 0 7.80775 0H11.1923C11.6974 0 12.125 0.175 12.475 0.525C12.825 0.875 13 1.30258 13 1.80775V3.5H17.1923C17.6974 3.5 18.125 3.675 18.475 4.025C18.825 4.375 19 4.80258 19 5.30775V16.6923C19 17.1974 18.825 17.625 18.475 17.975C18.125 18.325 17.6974 18.5 17.1923 18.5H1.80775ZM1.80775 17H17.1923C17.2693 17 17.3398 16.9679 17.4038 16.9038C17.4679 16.8398 17.5 16.7693 17.5 16.6923V5.30775C17.5 5.23075 17.4679 5.16025 17.4038 5.09625C17.3398 5.03208 17.2693 5 17.1923 5H1.80775C1.73075 5 1.66025 5.03208 1.59625 5.09625C1.53208 5.16025 1.5 5.23075 1.5 5.30775V16.6923C1.5 16.7693 1.53208 16.8398 1.59625 16.9038C1.66025 16.9679 1.73075 17 1.80775 17ZM7.5 3.5H11.5V1.80775C11.5 1.73075 11.4679 1.66025 11.4038 1.59625C11.3398 1.53208 11.2692 1.5 11.1923 1.5H7.80775C7.73075 1.5 7.66025 1.53208 7.59625 1.59625C7.53208 1.66025 7.5 1.73075 7.5 1.80775V3.5Z" fill="#A90061"/>
</svg>
