<svg width="24" height="24" viewBox="0 0 24 24" fill="none" xmlns="http://www.w3.org/2000/svg">
<g id="pill">
<mask id="mask0_794_8504" style="mask-type:alpha" maskUnits="userSpaceOnUse" x="0" y="0" width="24" height="24">
<rect id="Bounding box" width="24" height="24" fill="#D9D9D9"/>
</mask>
<g mask="url(#mask0_794_8504)">
<path id="pill_2" d="M8.625 20.5C7.19933 20.5 5.98875 20.0023 4.99325 19.0068C3.99775 18.0113 3.5 16.8007 3.5 15.375C3.5 14.6892 3.6305 14.0334 3.8915 13.4078C4.15233 12.7821 4.52375 12.2283 5.00575 11.7463L11.7463 5.00575C12.2283 4.52375 12.7821 4.15233 13.4078 3.8915C14.0334 3.6305 14.6892 3.5 15.375 3.5C16.8007 3.5 18.0113 3.99775 19.0068 4.99325C20.0023 5.98875 20.5 7.19933 20.5 8.625C20.5 9.31083 20.3695 9.96658 20.1085 10.5923C19.8477 11.2179 19.4763 11.7717 18.9943 12.2537L12.2537 18.9943C11.7717 19.4763 11.2179 19.8477 10.5923 20.1085C9.96658 20.3695 9.31083 20.5 8.625 20.5ZM15.102 14.023L17.95 11.2C18.2833 10.8667 18.5417 10.475 18.725 10.025C18.9083 9.575 19 9.10833 19 8.625C19 7.625 18.6458 6.77083 17.9375 6.0625C17.2292 5.35417 16.375 5 15.375 5C14.8917 5 14.425 5.09167 13.975 5.275C13.525 5.45833 13.1333 5.71667 12.8 6.05L9.977 8.898L15.102 14.023ZM8.625 19C9.10833 19 9.575 18.9083 10.025 18.725C10.475 18.5417 10.8667 18.2833 11.2 17.95L14.023 15.102L8.898 9.977L6.05 12.8C5.71667 13.1333 5.45833 13.525 5.275 13.975C5.09167 14.425 5 14.8917 5 15.375C5 16.375 5.35417 17.2292 6.0625 17.9375C6.77083 18.6458 7.625 19 8.625 19Z" fill="#01689B"/>
</g>
</g>
</svg>
