<svg width="24" height="24" viewBox="0 0 24 24" fill="none" xmlns="http://www.w3.org/2000/svg">
<g id="Frame 5771439">
<g id="nutrition">
<mask id="mask0_2056_19949" style="mask-type:alpha" maskUnits="userSpaceOnUse" x="0" y="0" width="24" height="24">
<rect id="Bounding box" width="24" height="24" fill="#D9D9D9"/>
</mask>
<g mask="url(#mask0_2056_19949)">
<path id="nutrition_2" d="M12 20.4999C10.191 20.4999 8.65542 19.8688 7.39325 18.6066C6.13108 17.3445 5.5 15.8089 5.5 13.9999C5.5 12.5294 5.9385 11.215 6.8155 10.0566C7.69233 8.8983 8.83908 8.12488 10.2558 7.73638C9.92242 7.65955 9.59583 7.54513 9.276 7.39313C8.95617 7.24129 8.67442 7.04355 8.43075 6.79988C7.93208 6.30121 7.61 5.70955 7.4645 5.02488C7.319 4.34038 7.27183 3.64488 7.323 2.93838C8.01667 2.88704 8.701 2.93255 9.376 3.07488C10.051 3.21721 10.6378 3.5313 11.1365 4.01713C11.5198 4.3813 11.7958 4.80346 11.9645 5.28363C12.133 5.76379 12.2391 6.2673 12.2828 6.79413C12.4929 6.2903 12.7474 5.81405 13.0462 5.36538C13.3449 4.91655 13.6859 4.50046 14.0693 4.11713C14.2078 3.9788 14.3833 3.90963 14.596 3.90963C14.8088 3.90963 14.9845 3.9788 15.123 4.11713C15.2615 4.25563 15.3307 4.4313 15.3307 4.64413C15.3307 4.85696 15.2615 5.03263 15.123 5.17113C14.7628 5.53129 14.4443 5.92421 14.1673 6.34988C13.8904 6.77555 13.6757 7.2288 13.523 7.70963C14.9897 8.05446 16.1858 8.81213 17.1115 9.98263C18.0372 11.1531 18.5 12.4922 18.5 13.9999C18.5 15.8089 17.8689 17.3445 16.6068 18.6066C15.3446 19.8688 13.809 20.4999 12 20.4999ZM12 18.9999C13.3833 18.9999 14.5625 18.5124 15.5375 17.5374C16.5125 16.5624 17 15.3832 17 13.9999C17 12.6165 16.5125 11.4374 15.5375 10.4624C14.5625 9.48738 13.3833 8.99988 12 8.99988C10.6167 8.99988 9.4375 9.48738 8.4625 10.4624C7.4875 11.4374 7 12.6165 7 13.9999C7 15.3832 7.4875 16.5624 8.4625 17.5374C9.4375 18.5124 10.6167 18.9999 12 18.9999Z" fill="#34C759"/>
</g>
</g>
</g>
</svg>
