<svg width="24" height="24" viewBox="0 0 24 24" fill="none" xmlns="http://www.w3.org/2000/svg">
<g id="Frame 5771439">
<g id="psychology">
<mask id="mask0_855_1055" style="mask-type:alpha" maskUnits="userSpaceOnUse" x="0" y="0" width="24" height="25">
<rect id="Bounding box" y="0.000244141" width="24" height="24" fill="#D9D9D9"/>
</mask>
<g mask="url(#mask0_855_1055)">
<path id="psychology_2" d="M11.1098 13.7022L11.1808 14.3772C11.1911 14.4977 11.2383 14.5964 11.3225 14.6732C11.4068 14.7502 11.5103 14.7887 11.6328 14.7887H12.3673C12.4898 14.7887 12.5932 14.7502 12.6775 14.6732C12.7617 14.5964 12.8089 14.4977 12.8193 14.3772L12.8903 13.7022C13.0878 13.6522 13.2728 13.5795 13.4453 13.484C13.6176 13.3883 13.7647 13.27 13.8865 13.129L14.4923 13.406C14.5961 13.456 14.7026 13.4661 14.8117 13.4362C14.9211 13.4064 15.0069 13.3392 15.0693 13.2347L15.4365 12.6022C15.4968 12.4984 15.5155 12.3928 15.4925 12.2855C15.4697 12.1783 15.4126 12.0865 15.3212 12.01L14.777 11.6117C14.8487 11.4079 14.8845 11.2041 14.8845 11.0002C14.8845 10.7964 14.8487 10.5926 14.777 10.3887L15.3212 9.99049C15.4126 9.91399 15.4697 9.82216 15.4925 9.71499C15.5155 9.60766 15.4968 9.50208 15.4365 9.39824L15.0693 8.76574C15.0069 8.66124 14.9211 8.59408 14.8117 8.56424C14.7026 8.53441 14.5961 8.54449 14.4923 8.59449L13.8865 8.87149C13.7647 8.73049 13.6176 8.61216 13.4453 8.51649C13.2728 8.42099 13.0878 8.34824 12.8903 8.29824L12.8193 7.62324C12.8089 7.50274 12.7617 7.40408 12.6775 7.32724C12.5932 7.25024 12.4898 7.21174 12.3673 7.21174H11.6328C11.5103 7.21174 11.4068 7.25024 11.3225 7.32724C11.2383 7.40408 11.1911 7.50274 11.1808 7.62324L11.1098 8.29824C10.9123 8.34824 10.7273 8.42099 10.5547 8.51649C10.3824 8.61216 10.2353 8.73049 10.1135 8.87149L9.50775 8.59449C9.40392 8.54449 9.29742 8.53441 9.18825 8.56424C9.07892 8.59408 8.99308 8.66124 8.93075 8.76574L8.5635 9.39824C8.50317 9.50208 8.4845 9.60766 8.5075 9.71499C8.53033 9.82216 8.58742 9.91399 8.67875 9.99049L9.223 10.3887C9.15133 10.5926 9.1155 10.7964 9.1155 11.0002C9.1155 11.2041 9.15133 11.4079 9.223 11.6117L8.67875 12.01C8.58742 12.0865 8.53033 12.1783 8.5075 12.2855C8.4845 12.3928 8.50317 12.4984 8.5635 12.6022L8.93075 13.2347C8.99308 13.3392 9.07892 13.4064 9.18825 13.4362C9.29742 13.4661 9.40392 13.456 9.50775 13.406L10.1135 13.129C10.2353 13.27 10.3824 13.3883 10.5547 13.484C10.7273 13.5795 10.9123 13.6522 11.1098 13.7022ZM11.9995 12.683C11.5318 12.683 11.1346 12.5193 10.8078 12.192C10.4808 11.8647 10.3173 11.4672 10.3173 10.9997C10.3173 10.5321 10.4809 10.1348 10.8082 9.80799C11.1356 9.48099 11.533 9.31749 12.0005 9.31749C12.4682 9.31749 12.8654 9.48116 13.1923 9.80849C13.5192 10.1358 13.6827 10.5332 13.6827 11.0007C13.6827 11.4684 13.5191 11.8657 13.1917 12.1925C12.8644 12.5195 12.467 12.683 11.9995 12.683ZM6.5 17.4695C5.55 16.6028 4.8125 15.6096 4.2875 14.4897C3.7625 13.3697 3.5 12.2042 3.5 10.9932C3.5 8.63408 4.32642 6.62883 5.97925 4.97749C7.63192 3.32599 9.63883 2.50024 12 2.50024C13.9423 2.50024 15.6792 3.08074 17.2105 4.24174C18.742 5.40258 19.7366 6.90866 20.1943 8.75999L21.3625 13.3745C21.4375 13.6597 21.3846 13.9186 21.2038 14.1512C21.0231 14.3839 20.7821 14.5002 20.4807 14.5002H18.5V17.6925C18.5 18.1897 18.323 18.6152 17.969 18.9692C17.615 19.3232 17.1894 19.5002 16.6923 19.5002H14.5V20.7502C14.5 20.9627 14.4281 21.1408 14.2843 21.2845C14.1404 21.4283 13.9622 21.5002 13.7498 21.5002C13.5371 21.5002 13.359 21.4283 13.2155 21.2845C13.0718 21.1408 13 20.9627 13 20.7502V18.9087C13 18.6479 13.0866 18.4313 13.2598 18.259C13.4331 18.0865 13.6478 18.0002 13.9038 18.0002H16.6923C16.7821 18.0002 16.8558 17.9714 16.9135 17.9137C16.9712 17.8561 17 17.7823 17 17.6925V13.904C17 13.648 17.0866 13.4333 17.2598 13.26C17.4331 13.0868 17.6478 13.0002 17.9038 13.0002H19.7L18.75 9.12524C18.3667 7.60224 17.5468 6.36733 16.2905 5.42049C15.034 4.47366 13.6038 4.00024 12 4.00024C10.0667 4.00024 8.41667 4.67616 7.05 6.02799C5.68333 7.37983 5 9.02374 5 10.9597C5 11.9582 5.20417 12.9067 5.6125 13.8052C6.02083 14.7037 6.6 15.5024 7.35 16.2012L8 16.8002V20.7502C8 20.9627 7.92808 21.1408 7.78425 21.2845C7.64042 21.4283 7.46225 21.5002 7.24975 21.5002C7.03708 21.5002 6.859 21.4283 6.7155 21.2845C6.57183 21.1408 6.5 20.9627 6.5 20.7502V17.4695Z" fill="#8437B9"/>
</g>
</g>
</g>
</svg>
