<svg width="24" height="24" viewBox="0 0 24 24" fill="none" xmlns="http://www.w3.org/2000/svg">
<g id="allergy">
<mask id="mask0_1357_42554" style="mask-type:alpha" maskUnits="userSpaceOnUse" x="0" y="0" width="24" height="24">
<rect id="Bounding box" width="24" height="24" fill="#D9D9D9"/>
</mask>
<g mask="url(#mask0_1357_42554)">
<path id="allergy_2" d="M18.7889 22.1828C18.5646 22.1828 18.3601 22.1292 18.1754 22.022C17.9907 21.915 17.8446 21.7679 17.7369 21.5808C15.7522 21.2269 14.0099 20.3349 12.5099 18.9048C11.0101 17.4746 9.95816 15.6935 9.35416 13.5615C7.80549 14.2347 6.54332 15.2254 5.56766 16.5338C4.59199 17.8421 4.00607 19.3129 3.80991 20.9463C3.78307 21.1654 3.69782 21.3542 3.55416 21.5125C3.41066 21.6708 3.22924 21.75 3.00991 21.75C2.79074 21.75 2.61099 21.6667 2.47066 21.5C2.33032 21.3333 2.27357 21.1372 2.30041 20.9115C2.48374 18.9142 3.17224 17.1286 4.36591 15.5548C5.55941 13.9811 7.11066 12.8135 9.01966 12.052C8.66966 10.225 8.61966 8.54868 8.86966 7.02301C9.11966 5.49751 9.66641 4.25976 10.5099 3.30976C10.4972 3.28409 10.4861 3.25843 10.4764 3.23276C10.4667 3.20709 10.4619 3.17826 10.4619 3.14626C10.4824 2.81026 10.6119 2.52559 10.8504 2.29226C11.0889 2.05893 11.3761 1.94226 11.7119 1.94226C12.0581 1.94226 12.3529 2.06409 12.5964 2.30776C12.8401 2.55126 12.9619 2.84609 12.9619 3.19226C12.9619 3.53843 12.8401 3.83334 12.5964 4.07701C12.3529 4.32051 12.0581 4.44226 11.7119 4.44226H11.6167C11.5867 4.44226 11.5498 4.43393 11.5062 4.41726C11.0753 4.96226 10.7548 5.60459 10.5447 6.34426C10.3343 7.08409 10.2311 7.94118 10.2349 8.91551C10.5106 8.47318 10.8612 8.09434 11.2869 7.77901C11.7126 7.46351 12.2049 7.21026 12.7639 7.01926C13.2574 6.85393 13.7965 6.73759 14.3812 6.67026C14.9658 6.60293 15.594 6.58468 16.2657 6.61551C16.3798 6.48218 16.5122 6.37993 16.6629 6.30876C16.8136 6.23759 16.9773 6.20201 17.1542 6.20201C17.5003 6.20201 17.7952 6.32376 18.0389 6.56726C18.2824 6.81093 18.4042 7.10584 18.4042 7.45201C18.4042 7.79818 18.2824 8.09301 18.0389 8.33651C17.7952 8.58018 17.5003 8.70201 17.1542 8.70201C16.9402 8.70201 16.7382 8.65101 16.5484 8.54901C16.3587 8.44718 16.2101 8.30259 16.1024 8.11526C15.4946 8.09476 14.9269 8.11659 14.3994 8.18076C13.8719 8.24493 13.4017 8.35643 12.9889 8.51526C12.3004 8.77693 11.7751 9.15776 11.4129 9.65776C11.0507 10.1578 10.8453 10.784 10.7967 11.5365C11.2888 11.4275 11.7455 11.3509 12.1667 11.3068C12.5878 11.2626 13.2491 11.2405 14.1504 11.2405C14.2646 11.0867 14.4047 10.9664 14.5707 10.8798C14.7367 10.7933 14.9183 10.75 15.1157 10.75C15.4618 10.75 15.7567 10.8718 16.0004 11.1155C16.2439 11.359 16.3657 11.6538 16.3657 12C16.3657 12.3462 16.2439 12.641 16.0004 12.8845C15.7567 13.1282 15.4618 13.25 15.1157 13.25C14.9118 13.25 14.7253 13.2068 14.5562 13.1203C14.387 13.0336 14.2485 12.9069 14.1407 12.7403C13.2767 12.7403 12.6379 12.7624 12.2244 12.8068C11.8109 12.8509 11.3734 12.9308 10.9119 13.0463C11.1157 13.7603 11.5632 14.3009 12.2542 14.6683C12.9452 15.0356 13.876 15.2295 15.0467 15.25C15.485 15.2705 15.9577 15.259 16.4649 15.2155C16.9719 15.1718 17.4863 15.1064 18.0082 15.0193C18.1158 14.8116 18.2687 14.6475 18.4667 14.527C18.6648 14.4065 18.8812 14.3463 19.1157 14.3463C19.4618 14.3463 19.7567 14.468 20.0004 14.7115C20.2439 14.9552 20.3657 15.2501 20.3657 15.5963C20.3657 15.9424 20.2439 16.2373 20.0004 16.4808C19.7567 16.7244 19.4618 16.8463 19.1157 16.8463C18.9555 16.8463 18.8077 16.8164 18.6724 16.7568C18.5372 16.6971 18.4126 16.6108 18.2984 16.498C17.7639 16.5852 17.2482 16.6532 16.7514 16.702C16.2546 16.7507 15.7869 16.775 15.3484 16.775C14.7177 16.775 14.1392 16.7243 13.6129 16.623C13.0866 16.5217 12.6125 16.3666 12.1907 16.1578C12.8497 17.2116 13.675 18.0818 14.6667 18.7683C15.6583 19.4548 16.7311 19.9025 17.8849 20.1115C17.9991 19.9718 18.1341 19.8654 18.2899 19.7923C18.4456 19.7193 18.6119 19.6828 18.7889 19.6828C19.1351 19.6828 19.4299 19.8045 19.6734 20.048C19.9171 20.2917 20.0389 20.5866 20.0389 20.9328C20.0389 21.2789 19.9171 21.5738 19.6734 21.8173C19.4299 22.0609 19.1351 22.1828 18.7889 22.1828Z" fill="#E17000"/>
</g>
</g>
</svg>
