<svg width="102" height="102" viewBox="0 0 102 102" fill="none" xmlns="http://www.w3.org/2000/svg">
<rect width="102" height="102" rx="51" fill="#D52B1E"/>
<mask id="mask0_3902_25375" style="mask-type:alpha" maskUnits="userSpaceOnUse" x="21" y="20" width="61" height="61">
<rect x="21" y="20" width="61" height="61" fill="#FFFFFF"/>
</mask>
<g mask="url(#mask0_3902_25375)">
<path d="M38.7924 73.375C37.3944 73.375 36.1977 72.8773 35.2023 71.8818C34.2068 70.8863 33.709 69.6896 33.709 68.2917V35.25H31.1674V30.1667H43.8757V27.625H59.1257V30.1667H71.834V35.25H69.2924V68.2917C69.2924 69.6896 68.7946 70.8863 67.7991 71.8818C66.8036 72.8773 65.6069 73.375 64.209 73.375H38.7924ZM43.8757 63.2083H48.959V40.3333H43.8757V63.2083ZM54.0424 63.2083H59.1257V40.3333H54.0424V63.2083Z" fill="white"/>
</g>
</svg>
