<svg width="24" height="24" viewBox="0 0 24 24" fill="none" xmlns="http://www.w3.org/2000/svg">
<g id="Frame 5771545">
<rect width="24" height="24" rx="6"/>
<g id="lock">
<mask id="mask0_1219_7317" style="mask-type:alpha" maskUnits="userSpaceOnUse" x="2" y="2" width="20" height="20">
<rect id="Bounding box" x="2" y="2" width="20" height="20" fill="#ffffff"/>
</mask>
<g mask="url(#mask0_1219_7317)">
<path id="lock_2" d="M7.25646 19.9166C6.84215 19.9166 6.4875 19.7691 6.1925 19.4741C5.8975 19.1791 5.75 18.8245 5.75 18.4102V10.5898C5.75 10.1754 5.8975 9.82079 6.1925 9.52579C6.4875 9.23079 6.84215 9.08329 7.25646 9.08329H8.25V7.41663C8.25 6.37607 8.61486 5.49093 9.34458 4.76121C10.0743 4.03149 10.9594 3.66663 12 3.66663C13.0406 3.66663 13.9257 4.03149 14.6554 4.76121C15.3851 5.49093 15.75 6.37607 15.75 7.41663V9.08329H16.7435C17.1578 9.08329 17.5125 9.23079 17.8075 9.52579C18.1025 9.82079 18.25 10.1754 18.25 10.5898V18.4102C18.25 18.8245 18.1025 19.1791 17.8075 19.4741C17.5125 19.7691 17.1578 19.9166 16.7435 19.9166H7.25646ZM12 15.9583C12.4049 15.9583 12.7492 15.8165 13.0329 15.5329C13.3165 15.2491 13.4583 14.9048 13.4583 14.5C13.4583 14.0951 13.3165 13.7508 13.0329 13.467C12.7492 13.1834 12.4049 13.0416 12 13.0416C11.5951 13.0416 11.2508 13.1834 10.9671 13.467C10.6835 13.7508 10.5417 14.0951 10.5417 14.5C10.5417 14.9048 10.6835 15.2491 10.9671 15.5329C11.2508 15.8165 11.5951 15.9583 12 15.9583ZM9.5 9.08329H14.5V7.41663C14.5 6.72218 14.2569 6.1319 13.7708 5.64579C13.2847 5.15968 12.6944 4.91663 12 4.91663C11.3056 4.91663 10.7153 5.15968 10.2292 5.64579C9.74306 6.1319 9.5 6.72218 9.5 7.41663V9.08329Z" fill="white"/>
</g>
</g>
</g>
</svg>
