<svg width="32" height="16" viewBox="0 0 32 16" fill="none" xmlns="http://www.w3.org/2000/svg">
<g id="Frame 5771400">
<g id="arrow_forward_ios">
<mask id="mask0_2498_13487" style="mask-type:alpha" maskUnits="userSpaceOnUse" x="0" y="-16" width="32" height="32">
<rect id="Bounding box" y="16" width="32" height="32" transform="rotate(-90 0 16)" fill="#D9D9D9"/>
</mask>
<g mask="url(#mask0_2498_13487)">
<path id="arrow_forward_ios_2" d="M15.5048 6.08854L9.69845 11.7219C9.50096 11.9135 9.26725 12.0061 8.99735 11.9997C8.72744 11.9933 8.49374 11.8943 8.29624 11.7027C8.09875 11.5111 8 11.2843 8 11.0225C8 10.7606 8.09875 10.5339 8.29624 10.3423L14.3791 4.45986C14.5371 4.30657 14.7148 4.19161 14.9123 4.11496C15.1098 4.03832 15.3073 4 15.5048 4C15.7023 4 15.8998 4.03832 16.0973 4.11496C16.2948 4.19161 16.4725 4.30657 16.6305 4.45986L22.7133 10.3614C22.9108 10.553 23.0063 10.7766 22.9997 11.0321C22.9931 11.2875 22.8911 11.5111 22.6936 11.7027C22.4961 11.8943 22.2624 11.9901 21.9925 11.9901C21.7226 11.9901 21.4889 11.8943 21.2914 11.7027L15.5048 6.08854Z" fill="#696969"/>
</g>
</g>
</g>
</svg>
