<svg width="20" height="20" viewBox="0 0 20 20" fill="none" xmlns="http://www.w3.org/2000/svg">
<path d="M8.03969 4.86879C8.02656 5.12317 8.07969 5.36442 8.20031 5.59254L10.1897 8.60754H3.49719C2.98802 8.60754 2.61281 8.80858 2.37156 9.21067C2.17073 9.54567 2.07031 10.008 2.07031 10.5975C2.07031 11.1871 2.17073 11.6761 2.37156 12.0644C2.62594 12.5469 3.00156 12.7882 3.49719 12.7882H10.1897L8.20031 15.8025C8.02615 16.0034 7.95906 16.2311 7.99906 16.4857C8.03906 16.7403 8.15969 16.9546 8.36094 17.1288C8.56219 17.303 8.78323 17.39 9.02406 17.39C9.26531 17.39 9.48656 17.3363 9.68719 17.2294L16.8016 11.5213C16.9357 11.4409 17.0428 11.3202 17.1228 11.1594C17.2028 10.9986 17.2364 10.8377 17.2234 10.6769C17.2234 10.4088 17.0828 10.1407 16.8016 9.87317L9.68719 4.16504C9.47302 4.00421 9.24531 3.93046 9.00406 3.94379C8.76281 3.95692 8.54844 4.05754 8.36094 4.24504C8.1601 4.40588 8.05302 4.61358 8.03969 4.86817V4.86879Z" fill="#01689B"/>
</svg>
