<svg width="90" height="90" viewBox="0 0 90 90" fill="none" xmlns="http://www.w3.org/2000/svg">
<g id="App icon (light mode) 1">
<g clip-path="url(#clip0_4174_22584)">
<g id="Clip path group">
<mask id="mask0_4174_22584" style="mask-type:luminance" maskUnits="userSpaceOnUse" x="0" y="0" width="90" height="90">
<g id="clip0_1109_10888">
<path id="Vector" d="M90 0H0V90H90V0Z" fill="white"/>
</g>
</mask>
<g mask="url(#mask0_4174_22584)">
<g id="Group">
<path id="Vector_2" d="M90 0H0V90H90V0Z" fill="#007BC7"/>
<g id="Group_2" opacity="0.5">
<path id="Vector_3" d="M8.36588 70.1047C8.24257 68.7563 8.3498 67.5286 8.63663 66.4081C6.07123 67.5635 3.71225 68.8957 2.42285 70.3004C-1.43999 74.501 -3.47461 90.3173 -3.47461 90.3173H6.92637C6.89688 90.2602 6.85667 90.218 6.83254 90.1565C6.57788 89.5131 0.908277 75.0076 8.36588 70.1047ZM30.2347 77.4631V77.2701C30.2079 77.2889 30.1811 77.3104 30.1543 77.3291C27.0608 74.9755 21.7826 69.8957 22.3643 65.2018C22.6833 62.6311 22.4206 64.4645 23.4714 57.8916C20.4101 54.9348 17.9546 51.3507 17.9546 47.0563C15.7806 46.3781 15.2096 43.6358 15.2096 41.9229C15.2096 40.2099 15.6412 39.2878 16.2497 39.001C16.7778 38.7543 17.2871 38.9366 17.6115 39.1189C17.8018 39.9954 17.9465 40.6495 18.0002 40.8801C18.2763 42.0247 19.3754 41.9202 19.3754 41.9202V32.8542C22.1633 32.6531 27.7015 31.8409 33.8268 28.6777L40.885 33.4171V41.9202C40.885 41.9202 41.9841 42.0247 42.2602 40.8801C42.3165 40.6495 42.4585 39.9982 42.6489 39.1189C42.9732 38.9366 43.4825 38.7517 44.0107 39.001C44.6191 39.2878 45.0508 40.2126 45.0508 41.9229C45.0508 43.6331 44.4825 46.3781 42.3058 47.0563C42.3058 52.0343 38.9013 55.7873 35.127 58.9987C34.0788 59.8914 32.1032 60.4864 30.1275 60.4838C28.6987 60.4838 27.2699 60.0978 26.1923 59.6313C27.0179 60.8833 28.4172 62.4192 31.0121 63.1055C35.2529 64.2287 38.3518 61.8777 38.3518 61.8777C38.3518 61.8777 38.7324 64.4485 38.7217 65.1241C38.7566 65.4994 38.7405 65.8746 38.7002 66.2552L42.4961 62.8321C42.2923 61.3899 42.0323 59.7654 41.7965 58.3929C44.201 55.479 45.678 52.4712 46.1659 49.3912C47.9513 47.7506 48.9457 45.1343 48.9457 41.9229C48.9457 40.923 48.9485 38.2906 47.2972 36.4972C47.7046 32.0098 47.9888 25.0669 46.2383 22.2655C44.083 18.8182 41.4667 17.1347 36.4753 18.2633C33.2022 16.7058 30.9719 15.7328 25.2353 17.1347C21.2491 18.1079 16.8877 19.6975 14.5877 22.3513C12.3681 24.914 12.5182 32.0607 12.8747 36.6071C11.3173 38.3978 11.3119 40.9444 11.3119 41.9255C11.3119 45.1316 12.3038 47.7453 14.0837 49.3858C14.5957 52.7635 16.2524 55.991 19.0724 59.1488C18.9304 60.2345 18.7642 61.4997 18.598 62.8213C17.9251 63.017 17.0458 63.2449 15.928 63.647C14.5207 64.1537 11.9982 64.9176 11.9258 68.8073C13.242 68.6652 14.5555 68.8824 15.8127 69.4614C21.9971 72.3162 24.9913 82.8245 25.1146 83.2694C25.6776 85.2826 22.5278 86.6658 20.5307 87.2904C18.9491 87.7863 18.48 87.0492 18.1074 85.9688C17.7374 84.8939 17.8983 84.189 19.2922 83.3365C19.7614 83.0496 20.3752 82.7226 21.032 82.4626C19.8713 79.3128 17.4372 74.2115 14.2928 72.7586C13.1857 72.2466 12.1241 72.2626 10.95 72.8069C6.36879 74.9246 8.47847 83.4785 9.62848 87.1403C10.2718 86.8696 10.9313 86.6765 11.4593 86.5559C13.0195 86.1994 13.6146 86.5908 14.0917 87.6095C14.7271 88.9656 14.5421 89.6203 13.0812 90.3252H34.1619V82.1785C31.9289 81.7764 30.2321 79.8195 30.2321 77.4738L30.2347 77.4631ZM71.2301 75.2489L53.4975 59.2561C53.2107 58.9934 52.7711 58.9934 52.4842 59.2561L34.7517 75.2489C34.4433 75.533 34.2664 75.9325 34.2664 76.3507V77.4605C34.2664 77.8733 34.6015 78.2084 35.0144 78.2084H38.1963V94.3462H67.7694V78.2084H70.9621C71.3749 78.2084 71.7099 77.8733 71.7099 77.4605V76.3507C71.7099 75.9325 71.5357 75.533 71.2274 75.2489H71.2301ZM58.363 87.6255H47.6081V79.5594H58.363V87.6255Z" fill="white"/>
</g>
<g id="Clip path group_2">
<mask id="mask1_4174_22584" style="mask-type:luminance" maskUnits="userSpaceOnUse" x="33" y="0" width="24" height="45">
<g id="clip1_1109_10888">
<path id="Vector_4" d="M56.25 0H33.8379V45H56.25V0Z" fill="white"/>
</g>
</mask>
<g mask="url(#mask1_4174_22584)">
<g id="Group_3">
<path id="Vector_5" d="M56.25 0H33.8379V45H56.25V0Z" fill="#154273"/>
<path id="Vector_6" d="M45.4384 34.8034H45.074V33.705H45.4384V34.8034ZM47.1998 29.9797H46.8354V28.8813H47.1998V29.9797ZM39.9709 28.1478C39.9709 28.1478 39.728 28.1478 39.728 28.2091C39.728 28.2703 39.8495 28.2091 39.9709 28.2703C40.2749 28.3316 40.3963 28.4537 40.6392 28.4537C40.8216 28.4537 41.0646 28.3316 40.9431 28.0261C40.9431 27.9648 40.8821 27.9648 40.8821 28.0261C40.8821 28.1483 40.6997 28.2095 40.5177 28.2095C40.3358 28.2095 40.2757 28.1483 39.9723 28.1483L39.9709 28.1478ZM37.8465 29.1859C37.9075 29.2472 38.2718 29.7351 37.6641 29.9185C37.6641 29.9185 37.6032 29.9797 37.6641 29.9797C37.8671 30.1047 38.1317 30.0515 38.2714 29.8576C38.3931 30.1027 38.3436 30.3988 38.1486 30.5903C38.296 30.7451 38.4864 30.8515 38.695 30.8957C38.8579 30.8239 38.988 30.6931 39.0594 30.5294C39.0965 30.6695 39.0965 30.8169 39.0594 30.957C39.9096 31.0182 40.2134 30.3465 40.8817 30.4686C40.9027 29.8092 40.436 29.2356 39.789 29.1254C38.9993 28.9421 39.1817 28.637 39.1817 28.637C39.3714 28.6271 39.5603 28.6693 39.728 28.7592C39.789 28.637 39.728 28.5758 39.728 28.5758C39.7678 28.523 39.7893 28.4586 39.789 28.3924C39.6247 28.4046 39.4594 28.3838 39.3032 28.3312C39.2422 28.0869 39.4246 27.7819 39.9714 28.1478C40.0467 28.0637 40.0897 27.9554 40.0929 27.8423C40.1538 27.8423 40.1538 27.7811 40.1538 27.7202C40.1538 27.5982 39.668 27.3539 39.6074 27.3539C39.6074 27.2318 39.4251 26.9876 38.8786 27.1098C38.6357 27.171 38.4533 27.0485 38.5143 26.9263H38.4538C38.3666 27.0239 38.3745 27.174 38.4715 27.2617C38.4847 27.2736 38.4992 27.284 38.5147 27.2927C38.8186 27.2314 38.8186 27.476 38.8186 27.476C38.8186 27.5373 38.7576 27.5373 38.7576 27.476C38.6362 27.0485 38.0894 26.9876 37.725 27.1706C37.7366 27.3678 37.8931 27.5252 38.0894 27.5369C38.1877 27.5313 38.2662 27.4523 38.2718 27.3535C38.2718 27.2922 38.2718 27.2922 38.3328 27.3535C38.3937 27.4756 38.1503 27.7811 37.8469 27.5977C37.5431 27.9031 37.6645 28.3303 37.6645 28.5137C37.7254 28.7579 37.6035 29.0629 37.3606 28.9412C37.3606 29.1859 37.5426 29.3692 37.8465 29.1859ZM39.6688 27.5381C39.5784 27.6587 39.408 27.6829 39.288 27.592C39.2315 27.5493 39.1939 27.4862 39.1829 27.416C39.4864 27.3543 39.6079 27.4152 39.6683 27.5372L39.6688 27.5381ZM49.5083 28.2099C49.3613 28.2288 49.2175 28.157 49.1435 28.0278C49.1435 27.9665 49.0826 27.9665 49.0826 28.0278C49.0217 28.3333 49.204 28.4554 49.3864 28.4554C49.6293 28.4554 49.7508 28.272 50.0546 28.272C50.1761 28.272 50.2976 28.272 50.2976 28.2108C50.2976 28.1495 50.1152 28.1495 50.0546 28.1495C49.7508 28.1483 49.7508 28.2091 49.5079 28.2091L49.5083 28.2099ZM52.7272 29.0038C52.4843 29.1259 52.3019 28.8205 52.3628 28.5762C52.5011 28.2629 52.428 27.8959 52.1805 27.6602C51.8766 27.8436 51.6341 27.5381 51.6946 27.416C51.6946 27.3548 51.7555 27.3548 51.7555 27.416C51.7611 27.5148 51.8396 27.5938 51.938 27.5994C52.1341 27.5877 52.2908 27.4304 52.3024 27.2331C52.0008 27.0108 51.5771 27.0764 51.3559 27.3795C51.3203 27.4284 51.2913 27.4819 51.2697 27.5386C51.2697 27.5998 51.2087 27.5998 51.2087 27.5386C51.1986 27.3603 51.2938 27.1928 51.4517 27.111C51.5609 27.076 51.6213 26.9586 51.5865 26.8488C51.5733 26.8071 51.5475 26.7708 51.5127 26.7447H51.4517C51.5127 26.8668 51.3302 26.9889 51.0873 26.9281C50.5409 26.8668 50.3586 27.0502 50.3586 27.1722C50.1469 27.2426 49.9581 27.3691 49.8121 27.5386C49.8121 27.5386 49.8122 27.6606 49.8731 27.6606C49.8763 27.7738 49.9193 27.882 49.9946 27.9662C50.5409 27.5998 50.7233 27.9662 50.6628 28.1495C50.5065 28.2021 50.3413 28.223 50.177 28.2108C50.1767 28.2769 50.1982 28.3414 50.2379 28.3941C50.2379 28.3941 50.177 28.5163 50.2379 28.5775C50.4056 28.4876 50.5945 28.4454 50.7843 28.4554C50.7843 28.4554 51.0272 28.7609 50.177 28.9438C49.5534 29.093 49.106 29.6429 49.0842 30.2869C49.7525 30.1648 50.056 30.8361 50.9066 30.7753C50.8727 30.6349 50.8727 30.4883 50.9066 30.3477C50.978 30.5115 51.1081 30.6423 51.271 30.7141C51.4882 30.6957 51.6872 30.5845 51.8173 30.4086C51.6228 30.2169 51.5737 29.9208 51.6958 29.676C51.8355 29.8699 52.1001 29.923 52.3031 29.7981C52.3641 29.7981 52.3031 29.7368 52.3031 29.7368C51.7568 29.5535 52.1208 29.0651 52.1208 29.0042C52.4839 29.3692 52.7272 29.1859 52.7272 29.0029V29.0038ZM50.9049 27.356C50.844 27.6615 50.6011 27.6615 50.419 27.4781C50.4207 27.4152 50.5405 27.3543 50.9049 27.3543V27.356ZM44.892 22.5919C44.892 22.6532 44.9529 22.7141 44.9529 22.7753C45.0138 22.8366 45.0138 22.8974 44.9529 22.8974C44.9209 22.9311 44.8676 22.9323 44.8341 22.9001C44.8332 22.8992 44.8324 22.8983 44.8315 22.8974C44.7706 22.8974 44.71 22.8362 44.6491 22.8362C44.5276 22.8362 44.4666 22.8974 44.4666 22.9582C44.4666 23.0191 44.5276 23.0803 44.6491 23.0803C44.71 23.0803 44.7706 23.0191 44.8315 23.0191C44.8924 22.9578 44.9529 22.9578 44.9529 23.0191C44.9501 23.1836 44.9297 23.3473 44.892 23.5075C44.7096 23.5687 44.5881 23.6909 44.5881 23.813C44.5881 24.0571 44.831 24.1793 45.0135 24.3014C45.2394 24.2383 45.4065 24.0464 45.4388 23.813C45.4388 23.6909 45.3173 23.5687 45.1349 23.5075C45.1349 23.3241 45.074 23.0799 45.074 23.0191C45.106 22.9854 45.1593 22.9842 45.1928 23.0164C45.1937 23.0173 45.1946 23.0182 45.1954 23.0191C45.2563 23.0191 45.3169 23.0803 45.3778 23.0803C45.4993 23.0803 45.5603 23.0191 45.5603 22.9582C45.5603 22.8974 45.4993 22.8362 45.3778 22.8362C45.3169 22.8362 45.2563 22.8974 45.1954 22.8974C45.1345 22.9587 45.074 22.9587 45.074 22.8974C45.0405 22.8652 45.0392 22.8116 45.0713 22.7779C45.0722 22.777 45.0731 22.7761 45.074 22.7753C45.074 22.7141 45.1349 22.6532 45.1349 22.5919C45.1349 22.4698 45.074 22.4086 45.0135 22.4086C44.9529 22.4086 44.892 22.4698 44.892 22.5919ZM45.0135 24.4239C44.8456 24.4239 44.7096 24.5607 44.7096 24.7293C44.7096 24.8981 44.8456 25.0348 45.0135 25.0348C45.1813 25.0348 45.3173 24.8981 45.3173 24.7293C45.3271 24.5703 45.2068 24.4334 45.0486 24.4235C45.0369 24.4228 45.0252 24.4228 45.0135 24.4235V24.4239ZM45.0135 27.2935C45.65 27.2744 46.2855 27.3567 46.8963 27.5377C46.8963 26.9272 46.8963 26.6217 47.2607 26.6217C47.0783 26.1333 47.868 25.8891 47.868 25.2786C47.9019 25.0455 47.7413 24.8287 47.5093 24.7946C47.4873 24.7914 47.4649 24.7899 47.4426 24.7902C47.1998 24.7902 47.1998 24.9736 46.9568 24.9736H46.8959C46.9015 25.0724 46.98 25.1513 47.0783 25.1569C47.1998 25.1569 47.1998 25.0348 47.3212 25.0348C47.3821 25.0348 47.4426 25.0961 47.4426 25.2182C47.4153 25.5473 47.2626 25.8532 47.0165 26.072C46.9555 26.0108 46.8951 25.9499 46.8341 25.9499C46.6839 25.9683 46.5758 26.1041 46.5911 26.2555C46.5829 26.3227 46.6053 26.39 46.6521 26.4388C46.5433 26.5317 46.3802 26.5182 46.2878 26.4088C46.2514 26.3658 46.23 26.3119 46.2268 26.2555C46.2268 25.767 46.8951 25.3395 46.8951 24.729C46.9152 24.412 46.676 24.1387 46.3607 24.1184C46.3363 24.1169 46.312 24.1169 46.2877 24.1184C45.8624 24.1184 45.9233 24.546 45.5589 24.546H45.4993C45.4993 24.546 45.5603 24.7902 45.7422 24.7902C45.9242 24.7902 45.9851 24.4239 46.1675 24.4239C46.2285 24.4239 46.35 24.4852 46.35 24.7293C46.3086 25.0046 46.2267 25.2722 46.107 25.5232C46.0585 25.4761 45.9915 25.4536 45.9247 25.462C45.7413 25.4811 45.6066 25.6436 45.6207 25.8283C45.6228 25.9416 45.666 26.0502 45.7422 26.1337C45.6207 26.2559 45.5598 26.378 45.4384 26.378C45.1954 26.378 45.074 26.2558 45.074 26.0725C45.074 25.8891 45.3778 25.8283 45.3778 25.5841C45.3931 25.4327 45.2852 25.2969 45.1349 25.2786C45.0686 25.2755 45.0036 25.2973 44.9525 25.3399C44.9014 25.2973 44.8364 25.2755 44.7701 25.2786C44.6199 25.2969 44.5119 25.4327 44.5272 25.5841C44.5272 25.8283 44.831 25.8896 44.831 26.0725C44.831 26.2555 44.7096 26.378 44.4666 26.378C44.3305 26.3542 44.2158 26.2621 44.1628 26.1337C44.239 26.0502 44.2822 25.9416 44.2843 25.8283C44.2985 25.6436 44.1637 25.4811 43.9804 25.462C43.9194 25.462 43.859 25.5232 43.7981 25.5232C43.6784 25.2722 43.5964 25.0046 43.5551 24.7293C43.5551 24.4852 43.6766 24.4239 43.7375 24.4239C43.9199 24.4239 43.9804 24.7902 44.1628 24.7902C44.3452 24.7902 44.4057 24.546 44.4057 24.546H44.3448C43.9804 24.546 44.0409 24.1184 43.616 24.1184C43.3008 24.0982 43.0288 24.3386 43.0087 24.6557C43.0072 24.68 43.0072 24.7045 43.0087 24.729C43.0087 25.3395 43.6769 25.767 43.6769 26.2555C43.6769 26.4996 43.5555 26.4996 43.434 26.4996C43.3672 26.508 43.3002 26.4855 43.2516 26.4384C43.2516 26.3771 43.3126 26.3163 43.3126 26.255C43.3279 26.1037 43.2199 25.9679 43.0697 25.9495C43.0087 25.9495 42.9482 26.0108 42.8872 26.0717C42.6413 25.8525 42.4889 25.5463 42.4619 25.2169C42.4619 25.0949 42.5229 25.0336 42.5834 25.0336C42.7049 25.0336 42.7049 25.1557 42.8263 25.1557C42.9246 25.1501 43.0032 25.0711 43.0087 24.9723H42.9482C42.7053 24.9723 42.7658 24.7889 42.4624 24.7889C42.2117 24.8046 42.0212 25.0216 42.0368 25.2736C42.0369 25.2749 42.037 25.2761 42.0371 25.2773C42.0371 25.9492 42.8268 26.1321 42.6443 26.6205C43.0087 26.5592 43.0087 26.926 43.0087 27.5365C43.6673 27.3885 44.3389 27.3071 45.0135 27.2931V27.2935ZM42.828 28.1483C42.5993 28.185 42.3754 28.2465 42.1598 28.3316C42.1598 28.2095 42.2207 28.0261 42.3422 28.0261V27.9648C42.0383 27.7815 41.9168 28.1483 41.9168 28.1483C41.7954 28.1483 41.6739 28.1483 41.6739 28.3316C41.6739 28.7592 40.7023 29.0034 40.5198 29.0034C40.7728 29.1294 40.9682 29.3477 41.0662 29.6138C41.2587 29.3965 41.4843 29.2111 41.7345 29.0646C41.7954 29.0646 41.8559 29.1867 41.8559 29.1867H41.9168C42.0383 28.9425 41.9778 28.9425 41.9778 28.8813C41.9608 28.7635 42.042 28.6542 42.1591 28.637C42.1796 28.634 42.2003 28.634 42.2207 28.637V31.4458H42.0992C42.0383 31.4458 41.6739 31.0795 41.1881 30.7741C40.7023 30.4686 40.4594 30.6519 39.9735 30.9574C39.5361 31.1703 39.0307 31.1924 38.5765 31.0187C37.9692 31.4463 37.7868 32.6665 37.7868 32.6665C37.6358 32.7427 37.4698 32.7844 37.3009 32.7885C37.0331 32.8226 36.7886 32.6318 36.7548 32.3625C36.7547 32.362 36.7547 32.3615 36.7546 32.361C36.7529 31.6284 37.6023 31.3233 37.6023 30.6516C37.6243 30.1989 37.277 29.8141 36.8268 29.7921C36.7816 29.7899 36.7361 29.7915 36.6911 29.7968H35.9632C35.7675 29.8085 35.5903 29.6813 35.5379 29.4913C35.5379 29.4301 35.4769 29.4913 35.4769 29.4913C35.444 29.5902 35.4235 29.6929 35.416 29.7968C35.416 30.1023 35.5984 30.2244 35.9019 30.2244C36.0043 30.21 36.1057 30.1895 36.2057 30.1632C36.099 30.3258 36.0763 30.5301 36.1448 30.7124H36.2057C36.2838 30.367 36.5824 30.1168 36.9345 30.1019C37.169 30.068 37.3865 30.2316 37.4203 30.4674C37.4262 30.5081 37.4262 30.5495 37.4203 30.5903C37.4203 31.1395 36.4486 31.5671 36.4486 32.361C36.4486 33.1549 37.2997 33.3382 37.7855 33.2161C37.7855 34.01 36.8744 34.2542 36.8138 33.7045C36.8138 33.7045 36.8138 33.6433 36.7529 33.7045C36.6315 34.01 36.692 34.2538 37.0568 34.315V34.3763C36.6924 34.6205 36.8744 35.4748 36.9353 35.7194C36.9434 35.8842 36.817 36.0243 36.6531 36.0323C36.6255 36.0337 36.5978 36.0312 36.5709 36.0248V36.0861C36.8138 36.3916 37.1782 36.0861 37.1782 36.0861C37.4212 36.1474 37.2997 36.3916 37.1173 36.4524V36.5137C37.1782 36.5137 37.5426 36.575 37.6032 36.2695C37.7373 36.3841 37.9169 36.4291 38.0889 36.3916C38.2176 36.2876 38.4057 36.3083 38.5091 36.4376C38.5539 36.4936 38.5772 36.564 38.5748 36.6358C38.7048 36.5222 38.7185 36.3242 38.6055 36.1935C38.5513 36.1309 38.4748 36.0925 38.3924 36.0865C38.5218 35.9847 38.7088 36.0075 38.8101 36.1376C38.8127 36.141 38.8153 36.1444 38.8177 36.1478C38.8177 35.7202 38.5139 35.6594 38.2714 35.8424C38.2714 35.7811 38.2104 35.5369 38.5143 35.5981C38.2714 35.2927 38.0285 35.5981 37.9679 35.6594C37.8465 35.7816 37.5426 35.7207 37.5426 35.7207C37.4212 34.1942 38.6967 34.6826 38.8786 34.0113C38.9396 34.1946 39.3645 34.1946 39.4251 33.8891C39.0607 34.2554 38.2104 33.0953 39.3641 32.1185C39.969 31.5559 40.8863 31.5046 41.5496 31.9964C41.5496 32.1185 41.4886 32.1797 41.4281 32.1797C41.532 32.2266 41.6541 32.202 41.7319 32.1185C41.9143 32.2405 41.7319 32.4239 41.671 32.4848V32.546C41.8534 32.6073 42.0354 32.3626 42.0354 32.2405H42.0992V33.0953C42.0992 34.3163 43.4962 34.4384 44.9538 35.4765C46.4722 34.4384 47.8083 34.3163 47.8083 33.0953V32.2389H47.8692C47.9092 32.411 48.0579 32.5358 48.2336 32.5443V32.483C48.1726 32.4218 47.9907 32.2389 48.1726 32.1168C48.2506 32.2003 48.3726 32.2249 48.4766 32.1781C48.4156 32.1781 48.3551 32.1168 48.3551 31.9946C49.0094 31.4737 49.9477 31.5261 50.5405 32.1168C51.6946 33.0936 50.8443 34.2538 50.4796 33.8874C50.5405 34.2538 51.0259 34.1929 51.0259 34.0096C51.2084 34.7422 52.4835 34.1929 52.605 35.6573C52.605 35.6573 52.301 35.7185 52.1796 35.596C52.0752 35.4308 51.8573 35.3818 51.6929 35.4869C51.6714 35.5006 51.6514 35.5167 51.6332 35.5348C51.9976 35.5348 51.8762 35.779 51.8762 35.779C51.6332 35.5956 51.3298 35.6569 51.3298 36.0844C51.4256 35.9501 51.6114 35.9194 51.745 36.0155C51.7485 36.0181 51.7518 36.0205 51.7551 36.0232C51.5833 36.0356 51.454 36.1856 51.4663 36.3582C51.4722 36.4409 51.5105 36.518 51.5727 36.5724C51.6337 36.2062 51.9371 36.3282 52.0585 36.3282C52.2296 36.3995 52.4269 36.35 52.5444 36.2062C52.6053 36.5116 52.9697 36.4503 53.0303 36.4503V36.3891C52.8478 36.267 52.7263 36.0836 52.9693 36.0227C53.1298 36.1913 53.3958 36.1973 53.5635 36.0359C53.568 36.0316 53.5724 36.0272 53.5766 36.0227V35.9615C53.5766 35.9615 53.1513 36.0227 53.2122 35.6561C53.2122 35.4118 53.3947 34.5575 53.0907 34.3129C53.0907 34.3129 53.0298 34.3129 53.0907 34.2517C53.4551 34.1904 53.516 33.9461 53.3947 33.6412C53.3947 33.5799 53.3337 33.6412 53.3337 33.6412C53.3337 34.1904 52.4225 33.9466 52.362 33.1528C52.8478 33.2748 53.6981 33.0915 53.6981 32.298C53.6981 31.5045 52.7263 31.077 52.7263 30.5273C52.6926 30.2915 52.8555 30.0728 53.09 30.0389C53.1306 30.0331 53.1717 30.0331 53.2122 30.0389C53.5643 30.0539 53.8628 30.304 53.941 30.6495H54.0019C54.069 30.4669 54.0465 30.2633 53.941 30.1001C54.041 30.1266 54.1424 30.147 54.2448 30.1614C54.4824 30.1907 54.6985 30.0207 54.7275 29.7819C54.7295 29.766 54.7305 29.7499 54.7306 29.7339C54.7231 29.6299 54.7026 29.5273 54.6697 29.4284C54.6697 29.4284 54.6697 29.3671 54.6088 29.4284C54.5478 29.4897 54.4873 29.7339 54.1835 29.7339H53.4559C53.0083 29.6806 52.6025 30.0022 52.5495 30.4522C52.5441 30.4974 52.5426 30.543 52.5448 30.5885C52.5448 31.2604 53.395 31.5654 53.395 32.298C53.395 32.4814 53.334 32.7256 52.8486 32.7256C52.6798 32.7215 52.5138 32.6797 52.3628 32.6034C52.3628 32.6034 52.1804 31.3825 51.5731 30.9558C51.1251 31.1646 50.6042 31.1417 50.1761 30.8945C49.6298 30.589 49.3864 30.4061 48.9615 30.7111C48.4757 31.0166 48.1113 31.3829 48.0503 31.3829H47.9289V28.5771C48.046 28.5599 48.1548 28.6416 48.1718 28.7594C48.1747 28.7798 48.1747 28.8008 48.1718 28.8212C48.138 28.9268 48.161 29.0425 48.2328 29.1268C48.2372 29.0613 48.2891 29.0091 48.3542 29.0047C48.6153 29.1346 48.8439 29.3224 49.0225 29.5539C49.1204 29.2878 49.3158 29.0694 49.5688 28.9433C49.3259 28.8821 48.4147 28.6992 48.4147 28.2716C48.4147 28.1495 48.2323 28.0882 48.1718 28.0882C48.1718 28.0882 47.9894 27.7219 47.7465 27.9049V27.9662C47.8679 27.9662 47.9289 28.1495 47.9289 28.2716C46.9987 28.0105 46.0398 27.8668 45.0743 27.844C44.4621 27.8385 43.8511 27.9001 43.252 28.0278V29.0047H42.8877V28.1483H42.8267H42.828ZM40.2757 38.0411C40.1542 37.9798 40.0933 37.919 40.0933 37.7968V37.1847C39.5875 37.0019 39.0513 36.9197 38.5143 36.9425C37.7246 36.9425 37.4817 37.1259 37.4817 37.1868L37.2997 38.3448C37.2997 38.3448 37.6035 38.0394 38.7572 38.1006C40.0933 38.1619 41.489 39.0166 41.489 38.1619V37.6731C40.3971 37.6731 40.2757 37.9785 40.2757 38.0411ZM48.5972 37.6747V38.1631C48.5972 39.0179 49.9942 38.2244 51.329 38.1019C52.4217 38.0406 52.7865 38.3461 52.7865 38.3461L52.6062 37.1847C52.6062 37.1234 52.3633 36.9404 51.5736 36.9404C51.0369 36.9258 50.502 37.0085 49.9946 37.1847V37.7951C49.9946 37.9172 49.9336 37.9785 49.8121 38.0394C49.8118 37.9785 49.6293 37.6731 48.5967 37.6731L48.5972 37.6747ZM45.0135 37.1255C47.1989 37.1255 49.3864 37.2476 49.6903 37.5531H49.7512V36.3912C49.7512 36.0248 47.4431 35.8419 45.0744 35.8419C42.6448 35.8419 40.3976 36.0253 40.3976 36.3912V37.551C40.3976 37.551 40.3976 37.6122 40.4585 37.551C40.6405 37.2459 42.8268 37.1238 45.0135 37.1238V37.1255ZM43.0697 31.6896L42.8268 31.6284L42.5838 31.5062H42.8268L42.6456 31.3233L42.8886 31.4454C42.8389 31.3562 42.7776 31.274 42.7061 31.2012C42.7908 31.2571 42.872 31.3184 42.949 31.3846C42.9028 31.2852 42.8622 31.1831 42.8276 31.0791L43.0705 31.3233C43.063 31.2193 43.0426 31.1167 43.0096 31.0178L43.192 31.2621V31.0178C43.2194 31.1052 43.2604 31.1875 43.3134 31.2621L43.3743 31.0787V31.3841H43.3134L43.2525 31.6896C43.5564 31.6284 43.9812 31.0178 44.2851 31.0178C44.6495 31.0178 44.7709 31.4454 45.4997 31.2621C45.6627 31.4984 45.7668 31.7707 45.8035 32.0559C46.0465 32.3001 46.4718 32.2393 46.4718 31.9338C46.4718 31.5675 46.1075 31.5062 46.1075 31.14C46.1001 30.9112 46.2787 30.7198 46.5063 30.7124C46.5151 30.712 46.5239 30.712 46.5328 30.7124C46.7151 30.7124 46.9581 30.7736 47.0791 30.7736C47.2615 30.7736 47.2615 30.6516 47.322 30.5903C47.322 30.529 47.3829 30.5903 47.3829 30.5903V30.7741C47.3829 31.0182 47.0186 31.0182 47.0186 31.0182C47.0793 31.0882 47.0793 31.1925 47.0186 31.2625C46.9597 31.0676 46.7938 30.9248 46.5932 30.8962C46.495 30.9018 46.4165 30.9807 46.4109 31.0795C46.4109 31.2628 46.8362 31.5071 46.8362 31.9342C46.8362 32.4227 46.4109 32.4835 45.925 32.3618C45.925 32.7894 46.5932 33.0336 46.5932 32.7282C46.7147 32.8502 46.6542 32.9723 46.5323 33.0336C46.6538 33.0948 46.6538 33.3391 46.7147 33.4612C46.7757 33.6445 46.9576 33.5224 47.0186 33.5224C46.9576 33.7058 46.7147 33.6445 46.7147 33.6445C46.5932 33.7058 46.7147 33.7666 46.8362 33.8278C46.7753 33.8278 46.5932 33.8891 46.5323 33.7666C46.4837 33.8533 46.3876 33.9017 46.2894 33.8888C46.2285 33.8888 46.1679 33.95 46.1679 34.0721C46.084 34.0321 46.0482 33.9314 46.088 33.847C46.1046 33.8118 46.1329 33.7834 46.1679 33.7666C46.1679 33.7666 46.0465 33.7053 45.9856 33.8888C45.9247 33.6445 46.107 33.5832 46.2285 33.6445C46.2285 33.5832 46.1675 33.5224 45.9856 33.5224C45.9856 33.4612 46.107 33.3391 46.2894 33.4612C46.3504 33.5224 46.5323 33.4612 46.5323 33.4612C46.2285 32.9119 45.6821 33.3391 45.5606 32.9119C45.5606 33.034 45.2568 33.034 45.2568 32.8507C45.3178 32.9119 45.3782 32.9119 45.4997 32.7894C45.5438 32.6939 45.5647 32.5892 45.5606 32.4839C45.529 31.9918 45.139 31.5998 44.6495 31.5679C44.2905 31.5582 43.9419 31.6896 43.6778 31.9342L43.9208 31.9955C43.8965 32.2245 43.6922 32.3904 43.4643 32.366C43.4545 32.365 43.4446 32.3636 43.4349 32.3618L43.4958 32.0563C43.4349 32.0563 43.3743 32.1176 43.3134 32.1785C43.2525 31.9951 43.4349 31.9342 43.4349 31.873C43.3397 31.8748 43.2505 31.9197 43.192 31.9951C43.0697 31.8117 43.0092 31.7505 43.0697 31.6896ZM43.8594 33.7045C43.7379 33.8266 43.6769 33.7045 43.5555 33.7045C43.4898 33.7031 43.4354 33.7555 43.434 33.8215C43.434 33.8232 43.434 33.8249 43.434 33.8266C43.3126 33.6433 43.434 33.5211 43.5555 33.5211C43.4913 33.4537 43.3849 33.4513 43.3178 33.5158C43.3161 33.5176 43.3143 33.5194 43.3126 33.5211C43.3126 33.2769 43.495 33.2769 43.6165 33.399C43.612 33.3335 43.5601 33.2814 43.495 33.2769C43.5559 33.2157 43.5559 33.2157 43.6165 33.2157C43.7379 33.2157 43.7379 33.399 43.8594 33.399C43.9809 33.399 44.1632 33.2157 44.1632 33.2157C44.1024 33.0377 44.0617 32.8535 44.0418 32.6665C43.9809 32.7277 43.7989 32.7277 43.7989 32.483C43.8598 32.6052 43.9812 32.483 44.0418 32.4218C44.1023 32.3605 44.4062 31.8725 44.8315 31.8725C44.9442 31.8747 45.0523 31.9181 45.1353 31.9946C45.0139 32.1781 45.1353 32.361 45.2568 32.3001C44.7105 32.4835 44.4671 32.6056 44.4671 33.094C44.4671 33.3382 44.5281 33.4603 44.71 33.4603C44.6615 33.5074 44.5945 33.5299 44.5276 33.5215C44.4062 33.5215 44.4062 33.4603 44.3452 33.4603C44.2843 33.4603 44.0413 33.5825 44.0413 33.7045C44.0413 33.7658 44.0413 33.8266 44.1628 33.8266C44.0413 33.8266 43.8594 33.8266 43.8594 33.7045ZM45.3169 29.0642C45.1345 29.0642 45.0131 29.0642 45.0131 29.1254C45.1349 29.2472 45.2563 29.2472 45.3169 29.0638V29.0642ZM44.7096 29.5526C44.831 29.4913 44.9525 29.5526 45.0135 29.5526V29.6138C44.7706 29.6751 44.7706 29.7973 44.5881 29.7973C44.4666 29.7973 44.3452 29.6751 44.4057 29.553C44.4062 29.4913 44.4666 29.5526 44.7096 29.5526ZM41.3083 35.2918C41.4907 35.5361 41.6727 35.2918 41.8546 35.2918C41.9769 35.2798 42.0856 35.3697 42.0975 35.4925C42.099 35.507 42.099 35.5216 42.0975 35.5361C42.3405 35.1698 42.0366 34.9868 41.9152 34.9868C42.0134 34.8804 42.1788 34.8744 42.2846 34.9731C42.3075 34.9945 42.3264 35.0199 42.3405 35.048C42.3405 34.6205 42.0366 34.6205 41.7942 34.8039C41.7332 34.6205 41.8551 34.4984 42.0371 34.4984C41.7332 34.1929 41.5512 34.5596 41.4907 34.6205C41.3692 34.7426 40.9443 34.4984 40.8224 34.315C41.0205 34.1176 41.1485 33.8602 41.1868 33.5825V33.5203C41.2477 33.5203 41.2477 33.5816 41.3083 33.5816C41.3688 33.5816 41.5512 33.5816 41.5512 33.2761C41.4903 33.3373 41.4903 33.3373 41.4298 33.3373C41.1259 33.3373 40.5186 32.3605 39.8508 32.3605C39.5816 32.3813 39.3262 32.4884 39.122 32.666C39.1859 32.7333 39.2282 32.8184 39.2435 32.9102C39.2379 33.0091 39.1594 33.088 39.0611 33.0936C39.4631 33.2114 39.8504 33.3753 40.2152 33.582C40.3976 33.7041 40.3366 34.0096 40.2761 34.4368C40.1546 34.803 39.9723 34.7422 39.9117 34.7422C40.0332 34.8643 40.0941 34.9255 40.2155 34.9255C40.398 34.9255 40.4585 34.8034 40.5799 34.8034C40.7623 34.8034 41.0658 35.0477 41.0658 35.231C41.0658 35.3531 41.0049 35.4144 40.8834 35.4752C41.0044 35.5627 41.1729 35.535 41.26 35.4135C41.2857 35.3774 41.3023 35.3358 41.3083 35.2918ZM49.204 35.5361C49.1068 35.4899 49.0385 35.3985 49.0217 35.2918C49.0217 35.1085 49.3861 34.8643 49.5075 34.8643C49.6289 34.8643 49.6899 34.9864 49.8718 34.9864C49.9933 34.9864 50.0543 34.9252 50.1758 34.803C50.1148 34.803 49.8718 34.8643 49.8114 34.4976C49.6899 34.07 49.6899 33.8257 49.8723 33.6428C50.2371 33.4361 50.6243 33.2722 51.0264 33.1544C50.9384 33.1673 50.8567 33.106 50.844 33.0175C50.8417 33.0021 50.8417 32.9865 50.844 32.9711C50.8311 32.8724 50.8791 32.7757 50.9655 32.7268C50.7613 32.5492 50.5059 32.4422 50.2367 32.4214C49.5079 32.4214 48.9006 33.3982 48.6577 33.3982C48.5967 33.3982 48.5967 33.3982 48.5362 33.337C48.5362 33.6424 48.7186 33.6424 48.7792 33.6424C48.8396 33.6424 48.9006 33.6424 48.9006 33.5811V33.6424C48.9389 33.9201 49.0669 34.1776 49.2649 34.3751C49.0826 34.5584 48.7186 34.8026 48.5967 34.6805C48.5358 34.6192 48.3538 34.2529 48.0504 34.5584C48.2328 34.5584 48.3542 34.6805 48.2933 34.8638C48.0504 34.6805 47.7469 34.6805 47.7469 35.1081C47.8684 34.8638 48.1113 35.0468 48.1723 35.0468C48.0005 35.0591 47.8712 35.2091 47.8835 35.3818C47.8894 35.4645 47.9276 35.5416 47.9898 35.596C47.9729 35.4783 48.0541 35.3689 48.1711 35.3519C48.1916 35.3489 48.2124 35.3489 48.2328 35.3519C48.4757 35.3519 48.5971 35.5352 48.7792 35.3519C48.7792 35.5973 49.1435 35.5361 49.204 35.5361ZM43.434 29.9168C43.434 29.9781 43.3126 29.9168 43.3126 29.9168C43.3182 30.0156 43.3967 30.0945 43.495 30.1001C43.5559 30.1001 43.6165 30.1001 43.6165 30.0389C43.6165 30.0389 44.0418 30.161 44.2238 30.2223C44.1564 30.3337 44.1149 30.4589 44.1023 30.5885C43.9199 30.4665 43.2521 30.1001 43.2521 30.1001L43.0697 30.4056C43.0087 30.4669 42.8872 30.3444 42.8872 30.2836L43.0697 30.0393C43.0087 29.9781 42.8872 30.0393 42.8268 30.0393C42.8688 29.9246 42.9954 29.8658 43.1095 29.9082C43.1167 29.9108 43.1238 29.9138 43.1306 29.9172C43.1306 29.7952 42.9482 29.856 42.8877 29.856C42.9703 29.7381 43.1324 29.7099 43.2496 29.793C43.2505 29.7935 43.2513 29.7941 43.2521 29.7947L43.313 29.6726L43.1915 29.5505L43.2525 29.4284L43.374 29.5505L44.1637 28.5124C44.2426 28.4846 44.3239 28.4641 44.4066 28.4511V28.6954L43.6169 29.7938L43.7993 29.8551L43.6778 29.9164L43.4954 29.8551L43.434 29.9168ZM46.1658 29.7947C46.1658 29.9168 46.2268 30.0389 46.3483 29.9781C46.3483 30.1001 46.1054 30.1614 46.0444 30.0393C45.9835 30.2227 45.9835 30.3448 46.1658 30.4669C46.0444 30.5282 45.9229 30.5282 45.862 30.4056C45.7542 30.521 45.7298 30.692 45.8011 30.8332C45.583 30.9731 45.3104 30.996 45.0723 30.8945C44.8548 30.7504 44.6035 30.6662 44.3435 30.6502C44.3442 30.3134 44.6157 30.0405 44.9508 30.0398C45.2547 29.9785 45.3152 29.8564 45.2547 29.7343C45.1513 29.7418 45.0492 29.7624 44.9508 29.7955C44.9173 29.7633 44.9161 29.7098 44.9482 29.6761C44.9491 29.6752 44.95 29.6743 44.9508 29.6734V29.5514C45.1938 29.5514 45.1938 29.4901 45.1938 29.4901C45.2547 29.2458 45.0114 29.2458 44.8294 29.368C44.7685 29.368 44.7685 29.2458 44.7685 29.2458L44.7075 29.1846C44.7075 29.1233 44.9504 29.0012 45.0114 28.9404C45.0114 28.8792 45.1329 28.7571 45.3757 28.7571C45.4367 28.6958 45.3757 28.4516 45.3148 28.3295C45.4363 28.3908 45.4972 28.6349 45.5577 28.6349C45.5577 28.6349 45.8616 28.4516 45.8616 28.5128L45.9225 28.8792C45.9835 28.9404 46.2264 28.8792 46.2869 28.9404V29.0017C46.1545 29.0377 46.0306 29.1 45.9225 29.185C46.1218 29.3187 46.2191 29.5616 46.1675 29.7968L46.1658 29.7947Z" fill="white"/>
</g>
</g>
</g>
</g>
</g>
</g>
</g>
</g>
<defs>
<clipPath id="clip0_4174_22584">
<rect width="90" height="90" rx="24" fill="white"/>
</clipPath>
</defs>
</svg>
